G04 #@! TF.GenerationSoftware,KiCad,Pcbnew,8.0.4*
G04 #@! TF.CreationDate,2025-01-13T22:16:17-08:00*
G04 #@! TF.ProjectId,CSI_HDMI_Passthrough_receiver_noRetimer,4353495f-4844-44d4-995f-506173737468,rev?*
G04 #@! TF.SameCoordinates,Original*
G04 #@! TF.FileFunction,Legend,Bot*
G04 #@! TF.FilePolarity,Positive*
%FSLAX46Y46*%
G04 Gerber Fmt 4.6, Leading zero omitted, Abs format (unit mm)*
G04 Created by KiCad (PCBNEW 8.0.4) date 2025-01-13 22:16:17*
%MOMM*%
%LPD*%
G01*
G04 APERTURE LIST*
%ADD10C,0.150000*%
G04 APERTURE END LIST*
D10*
X148960012Y-124163220D02*
X149960012Y-124163220D01*
X149960012Y-124163220D02*
X149245727Y-123829887D01*
X149245727Y-123829887D02*
X149960012Y-123496554D01*
X149960012Y-123496554D02*
X148960012Y-123496554D01*
X148960012Y-123020363D02*
X149960012Y-123020363D01*
X148960012Y-122544173D02*
X149960012Y-122544173D01*
X149960012Y-122544173D02*
X149960012Y-122163221D01*
X149960012Y-122163221D02*
X149912393Y-122067983D01*
X149912393Y-122067983D02*
X149864774Y-122020364D01*
X149864774Y-122020364D02*
X149769536Y-121972745D01*
X149769536Y-121972745D02*
X149626679Y-121972745D01*
X149626679Y-121972745D02*
X149531441Y-122020364D01*
X149531441Y-122020364D02*
X149483822Y-122067983D01*
X149483822Y-122067983D02*
X149436203Y-122163221D01*
X149436203Y-122163221D02*
X149436203Y-122544173D01*
X148960012Y-121544173D02*
X149960012Y-121544173D01*
X149055251Y-119734650D02*
X149007632Y-119782269D01*
X149007632Y-119782269D02*
X148960012Y-119925126D01*
X148960012Y-119925126D02*
X148960012Y-120020364D01*
X148960012Y-120020364D02*
X149007632Y-120163221D01*
X149007632Y-120163221D02*
X149102870Y-120258459D01*
X149102870Y-120258459D02*
X149198108Y-120306078D01*
X149198108Y-120306078D02*
X149388584Y-120353697D01*
X149388584Y-120353697D02*
X149531441Y-120353697D01*
X149531441Y-120353697D02*
X149721917Y-120306078D01*
X149721917Y-120306078D02*
X149817155Y-120258459D01*
X149817155Y-120258459D02*
X149912393Y-120163221D01*
X149912393Y-120163221D02*
X149960012Y-120020364D01*
X149960012Y-120020364D02*
X149960012Y-119925126D01*
X149960012Y-119925126D02*
X149912393Y-119782269D01*
X149912393Y-119782269D02*
X149864774Y-119734650D01*
X149007632Y-119353697D02*
X148960012Y-119210840D01*
X148960012Y-119210840D02*
X148960012Y-118972745D01*
X148960012Y-118972745D02*
X149007632Y-118877507D01*
X149007632Y-118877507D02*
X149055251Y-118829888D01*
X149055251Y-118829888D02*
X149150489Y-118782269D01*
X149150489Y-118782269D02*
X149245727Y-118782269D01*
X149245727Y-118782269D02*
X149340965Y-118829888D01*
X149340965Y-118829888D02*
X149388584Y-118877507D01*
X149388584Y-118877507D02*
X149436203Y-118972745D01*
X149436203Y-118972745D02*
X149483822Y-119163221D01*
X149483822Y-119163221D02*
X149531441Y-119258459D01*
X149531441Y-119258459D02*
X149579060Y-119306078D01*
X149579060Y-119306078D02*
X149674298Y-119353697D01*
X149674298Y-119353697D02*
X149769536Y-119353697D01*
X149769536Y-119353697D02*
X149864774Y-119306078D01*
X149864774Y-119306078D02*
X149912393Y-119258459D01*
X149912393Y-119258459D02*
X149960012Y-119163221D01*
X149960012Y-119163221D02*
X149960012Y-118925126D01*
X149960012Y-118925126D02*
X149912393Y-118782269D01*
X148960012Y-118353697D02*
X149960012Y-118353697D01*
X149340965Y-117877507D02*
X149340965Y-117115603D01*
X149864774Y-116687031D02*
X149912393Y-116639412D01*
X149912393Y-116639412D02*
X149960012Y-116544174D01*
X149960012Y-116544174D02*
X149960012Y-116306079D01*
X149960012Y-116306079D02*
X149912393Y-116210841D01*
X149912393Y-116210841D02*
X149864774Y-116163222D01*
X149864774Y-116163222D02*
X149769536Y-116115603D01*
X149769536Y-116115603D02*
X149674298Y-116115603D01*
X149674298Y-116115603D02*
X149531441Y-116163222D01*
X149531441Y-116163222D02*
X148960012Y-116734650D01*
X148960012Y-116734650D02*
X148960012Y-116115603D01*
X149960012Y-115067983D02*
X149960012Y-114496555D01*
X148960012Y-114782269D02*
X149960012Y-114782269D01*
X148960012Y-114163221D02*
X149960012Y-114163221D01*
X148960012Y-113734650D02*
X149483822Y-113734650D01*
X149483822Y-113734650D02*
X149579060Y-113782269D01*
X149579060Y-113782269D02*
X149626679Y-113877507D01*
X149626679Y-113877507D02*
X149626679Y-114020364D01*
X149626679Y-114020364D02*
X149579060Y-114115602D01*
X149579060Y-114115602D02*
X149531441Y-114163221D01*
X148960012Y-113258459D02*
X149626679Y-113258459D01*
X149436203Y-113258459D02*
X149531441Y-113210840D01*
X149531441Y-113210840D02*
X149579060Y-113163221D01*
X149579060Y-113163221D02*
X149626679Y-113067983D01*
X149626679Y-113067983D02*
X149626679Y-112972745D01*
X148960012Y-112496554D02*
X149007632Y-112591792D01*
X149007632Y-112591792D02*
X149055251Y-112639411D01*
X149055251Y-112639411D02*
X149150489Y-112687030D01*
X149150489Y-112687030D02*
X149436203Y-112687030D01*
X149436203Y-112687030D02*
X149531441Y-112639411D01*
X149531441Y-112639411D02*
X149579060Y-112591792D01*
X149579060Y-112591792D02*
X149626679Y-112496554D01*
X149626679Y-112496554D02*
X149626679Y-112353697D01*
X149626679Y-112353697D02*
X149579060Y-112258459D01*
X149579060Y-112258459D02*
X149531441Y-112210840D01*
X149531441Y-112210840D02*
X149436203Y-112163221D01*
X149436203Y-112163221D02*
X149150489Y-112163221D01*
X149150489Y-112163221D02*
X149055251Y-112210840D01*
X149055251Y-112210840D02*
X149007632Y-112258459D01*
X149007632Y-112258459D02*
X148960012Y-112353697D01*
X148960012Y-112353697D02*
X148960012Y-112496554D01*
X149626679Y-111306078D02*
X148960012Y-111306078D01*
X149626679Y-111734649D02*
X149102870Y-111734649D01*
X149102870Y-111734649D02*
X149007632Y-111687030D01*
X149007632Y-111687030D02*
X148960012Y-111591792D01*
X148960012Y-111591792D02*
X148960012Y-111448935D01*
X148960012Y-111448935D02*
X149007632Y-111353697D01*
X149007632Y-111353697D02*
X149055251Y-111306078D01*
X149626679Y-110401316D02*
X148817155Y-110401316D01*
X148817155Y-110401316D02*
X148721917Y-110448935D01*
X148721917Y-110448935D02*
X148674298Y-110496554D01*
X148674298Y-110496554D02*
X148626679Y-110591792D01*
X148626679Y-110591792D02*
X148626679Y-110734649D01*
X148626679Y-110734649D02*
X148674298Y-110829887D01*
X149007632Y-110401316D02*
X148960012Y-110496554D01*
X148960012Y-110496554D02*
X148960012Y-110687030D01*
X148960012Y-110687030D02*
X149007632Y-110782268D01*
X149007632Y-110782268D02*
X149055251Y-110829887D01*
X149055251Y-110829887D02*
X149150489Y-110877506D01*
X149150489Y-110877506D02*
X149436203Y-110877506D01*
X149436203Y-110877506D02*
X149531441Y-110829887D01*
X149531441Y-110829887D02*
X149579060Y-110782268D01*
X149579060Y-110782268D02*
X149626679Y-110687030D01*
X149626679Y-110687030D02*
X149626679Y-110496554D01*
X149626679Y-110496554D02*
X149579060Y-110401316D01*
X148960012Y-109925125D02*
X149960012Y-109925125D01*
X148960012Y-109496554D02*
X149483822Y-109496554D01*
X149483822Y-109496554D02*
X149579060Y-109544173D01*
X149579060Y-109544173D02*
X149626679Y-109639411D01*
X149626679Y-109639411D02*
X149626679Y-109782268D01*
X149626679Y-109782268D02*
X149579060Y-109877506D01*
X149579060Y-109877506D02*
X149531441Y-109925125D01*
X148960012Y-108258458D02*
X149960012Y-108258458D01*
X149483822Y-108258458D02*
X149483822Y-107687030D01*
X148960012Y-107687030D02*
X149960012Y-107687030D01*
X148960012Y-107210839D02*
X149960012Y-107210839D01*
X149960012Y-107210839D02*
X149960012Y-106972744D01*
X149960012Y-106972744D02*
X149912393Y-106829887D01*
X149912393Y-106829887D02*
X149817155Y-106734649D01*
X149817155Y-106734649D02*
X149721917Y-106687030D01*
X149721917Y-106687030D02*
X149531441Y-106639411D01*
X149531441Y-106639411D02*
X149388584Y-106639411D01*
X149388584Y-106639411D02*
X149198108Y-106687030D01*
X149198108Y-106687030D02*
X149102870Y-106734649D01*
X149102870Y-106734649D02*
X149007632Y-106829887D01*
X149007632Y-106829887D02*
X148960012Y-106972744D01*
X148960012Y-106972744D02*
X148960012Y-107210839D01*
X148960012Y-106210839D02*
X149960012Y-106210839D01*
X149960012Y-106210839D02*
X149245727Y-105877506D01*
X149245727Y-105877506D02*
X149960012Y-105544173D01*
X149960012Y-105544173D02*
X148960012Y-105544173D01*
X148960012Y-105067982D02*
X149960012Y-105067982D01*
X148960012Y-103258459D02*
X149436203Y-103591792D01*
X148960012Y-103829887D02*
X149960012Y-103829887D01*
X149960012Y-103829887D02*
X149960012Y-103448935D01*
X149960012Y-103448935D02*
X149912393Y-103353697D01*
X149912393Y-103353697D02*
X149864774Y-103306078D01*
X149864774Y-103306078D02*
X149769536Y-103258459D01*
X149769536Y-103258459D02*
X149626679Y-103258459D01*
X149626679Y-103258459D02*
X149531441Y-103306078D01*
X149531441Y-103306078D02*
X149483822Y-103353697D01*
X149483822Y-103353697D02*
X149436203Y-103448935D01*
X149436203Y-103448935D02*
X149436203Y-103829887D01*
X149007632Y-102448935D02*
X148960012Y-102544173D01*
X148960012Y-102544173D02*
X148960012Y-102734649D01*
X148960012Y-102734649D02*
X149007632Y-102829887D01*
X149007632Y-102829887D02*
X149102870Y-102877506D01*
X149102870Y-102877506D02*
X149483822Y-102877506D01*
X149483822Y-102877506D02*
X149579060Y-102829887D01*
X149579060Y-102829887D02*
X149626679Y-102734649D01*
X149626679Y-102734649D02*
X149626679Y-102544173D01*
X149626679Y-102544173D02*
X149579060Y-102448935D01*
X149579060Y-102448935D02*
X149483822Y-102401316D01*
X149483822Y-102401316D02*
X149388584Y-102401316D01*
X149388584Y-102401316D02*
X149293346Y-102877506D01*
X149007632Y-101544173D02*
X148960012Y-101639411D01*
X148960012Y-101639411D02*
X148960012Y-101829887D01*
X148960012Y-101829887D02*
X149007632Y-101925125D01*
X149007632Y-101925125D02*
X149055251Y-101972744D01*
X149055251Y-101972744D02*
X149150489Y-102020363D01*
X149150489Y-102020363D02*
X149436203Y-102020363D01*
X149436203Y-102020363D02*
X149531441Y-101972744D01*
X149531441Y-101972744D02*
X149579060Y-101925125D01*
X149579060Y-101925125D02*
X149626679Y-101829887D01*
X149626679Y-101829887D02*
X149626679Y-101639411D01*
X149626679Y-101639411D02*
X149579060Y-101544173D01*
X149007632Y-100734649D02*
X148960012Y-100829887D01*
X148960012Y-100829887D02*
X148960012Y-101020363D01*
X148960012Y-101020363D02*
X149007632Y-101115601D01*
X149007632Y-101115601D02*
X149102870Y-101163220D01*
X149102870Y-101163220D02*
X149483822Y-101163220D01*
X149483822Y-101163220D02*
X149579060Y-101115601D01*
X149579060Y-101115601D02*
X149626679Y-101020363D01*
X149626679Y-101020363D02*
X149626679Y-100829887D01*
X149626679Y-100829887D02*
X149579060Y-100734649D01*
X149579060Y-100734649D02*
X149483822Y-100687030D01*
X149483822Y-100687030D02*
X149388584Y-100687030D01*
X149388584Y-100687030D02*
X149293346Y-101163220D01*
X148960012Y-100258458D02*
X149626679Y-100258458D01*
X149960012Y-100258458D02*
X149912393Y-100306077D01*
X149912393Y-100306077D02*
X149864774Y-100258458D01*
X149864774Y-100258458D02*
X149912393Y-100210839D01*
X149912393Y-100210839D02*
X149960012Y-100258458D01*
X149960012Y-100258458D02*
X149864774Y-100258458D01*
X149626679Y-99877506D02*
X148960012Y-99639411D01*
X148960012Y-99639411D02*
X149626679Y-99401316D01*
X149007632Y-98639411D02*
X148960012Y-98734649D01*
X148960012Y-98734649D02*
X148960012Y-98925125D01*
X148960012Y-98925125D02*
X149007632Y-99020363D01*
X149007632Y-99020363D02*
X149102870Y-99067982D01*
X149102870Y-99067982D02*
X149483822Y-99067982D01*
X149483822Y-99067982D02*
X149579060Y-99020363D01*
X149579060Y-99020363D02*
X149626679Y-98925125D01*
X149626679Y-98925125D02*
X149626679Y-98734649D01*
X149626679Y-98734649D02*
X149579060Y-98639411D01*
X149579060Y-98639411D02*
X149483822Y-98591792D01*
X149483822Y-98591792D02*
X149388584Y-98591792D01*
X149388584Y-98591792D02*
X149293346Y-99067982D01*
X148960012Y-98163220D02*
X149626679Y-98163220D01*
X149436203Y-98163220D02*
X149531441Y-98115601D01*
X149531441Y-98115601D02*
X149579060Y-98067982D01*
X149579060Y-98067982D02*
X149626679Y-97972744D01*
X149626679Y-97972744D02*
X149626679Y-97877506D01*
X149483822Y-96448934D02*
X149436203Y-96306077D01*
X149436203Y-96306077D02*
X149388584Y-96258458D01*
X149388584Y-96258458D02*
X149293346Y-96210839D01*
X149293346Y-96210839D02*
X149150489Y-96210839D01*
X149150489Y-96210839D02*
X149055251Y-96258458D01*
X149055251Y-96258458D02*
X149007632Y-96306077D01*
X149007632Y-96306077D02*
X148960012Y-96401315D01*
X148960012Y-96401315D02*
X148960012Y-96782267D01*
X148960012Y-96782267D02*
X149960012Y-96782267D01*
X149960012Y-96782267D02*
X149960012Y-96448934D01*
X149960012Y-96448934D02*
X149912393Y-96353696D01*
X149912393Y-96353696D02*
X149864774Y-96306077D01*
X149864774Y-96306077D02*
X149769536Y-96258458D01*
X149769536Y-96258458D02*
X149674298Y-96258458D01*
X149674298Y-96258458D02*
X149579060Y-96306077D01*
X149579060Y-96306077D02*
X149531441Y-96353696D01*
X149531441Y-96353696D02*
X149483822Y-96448934D01*
X149483822Y-96448934D02*
X149483822Y-96782267D01*
X148960012Y-95639410D02*
X149007632Y-95734648D01*
X149007632Y-95734648D02*
X149055251Y-95782267D01*
X149055251Y-95782267D02*
X149150489Y-95829886D01*
X149150489Y-95829886D02*
X149436203Y-95829886D01*
X149436203Y-95829886D02*
X149531441Y-95782267D01*
X149531441Y-95782267D02*
X149579060Y-95734648D01*
X149579060Y-95734648D02*
X149626679Y-95639410D01*
X149626679Y-95639410D02*
X149626679Y-95496553D01*
X149626679Y-95496553D02*
X149579060Y-95401315D01*
X149579060Y-95401315D02*
X149531441Y-95353696D01*
X149531441Y-95353696D02*
X149436203Y-95306077D01*
X149436203Y-95306077D02*
X149150489Y-95306077D01*
X149150489Y-95306077D02*
X149055251Y-95353696D01*
X149055251Y-95353696D02*
X149007632Y-95401315D01*
X149007632Y-95401315D02*
X148960012Y-95496553D01*
X148960012Y-95496553D02*
X148960012Y-95639410D01*
X148960012Y-94448934D02*
X149483822Y-94448934D01*
X149483822Y-94448934D02*
X149579060Y-94496553D01*
X149579060Y-94496553D02*
X149626679Y-94591791D01*
X149626679Y-94591791D02*
X149626679Y-94782267D01*
X149626679Y-94782267D02*
X149579060Y-94877505D01*
X149007632Y-94448934D02*
X148960012Y-94544172D01*
X148960012Y-94544172D02*
X148960012Y-94782267D01*
X148960012Y-94782267D02*
X149007632Y-94877505D01*
X149007632Y-94877505D02*
X149102870Y-94925124D01*
X149102870Y-94925124D02*
X149198108Y-94925124D01*
X149198108Y-94925124D02*
X149293346Y-94877505D01*
X149293346Y-94877505D02*
X149340965Y-94782267D01*
X149340965Y-94782267D02*
X149340965Y-94544172D01*
X149340965Y-94544172D02*
X149388584Y-94448934D01*
X148960012Y-93972743D02*
X149626679Y-93972743D01*
X149436203Y-93972743D02*
X149531441Y-93925124D01*
X149531441Y-93925124D02*
X149579060Y-93877505D01*
X149579060Y-93877505D02*
X149626679Y-93782267D01*
X149626679Y-93782267D02*
X149626679Y-93687029D01*
X148960012Y-92925124D02*
X149960012Y-92925124D01*
X149007632Y-92925124D02*
X148960012Y-93020362D01*
X148960012Y-93020362D02*
X148960012Y-93210838D01*
X148960012Y-93210838D02*
X149007632Y-93306076D01*
X149007632Y-93306076D02*
X149055251Y-93353695D01*
X149055251Y-93353695D02*
X149150489Y-93401314D01*
X149150489Y-93401314D02*
X149436203Y-93401314D01*
X149436203Y-93401314D02*
X149531441Y-93353695D01*
X149531441Y-93353695D02*
X149579060Y-93306076D01*
X149579060Y-93306076D02*
X149626679Y-93210838D01*
X149626679Y-93210838D02*
X149626679Y-93020362D01*
X149626679Y-93020362D02*
X149579060Y-92925124D01*
X147350068Y-124163220D02*
X148350068Y-124163220D01*
X148350068Y-124163220D02*
X148350068Y-123782268D01*
X148350068Y-123782268D02*
X148302449Y-123687030D01*
X148302449Y-123687030D02*
X148254830Y-123639411D01*
X148254830Y-123639411D02*
X148159592Y-123591792D01*
X148159592Y-123591792D02*
X148016735Y-123591792D01*
X148016735Y-123591792D02*
X147921497Y-123639411D01*
X147921497Y-123639411D02*
X147873878Y-123687030D01*
X147873878Y-123687030D02*
X147826259Y-123782268D01*
X147826259Y-123782268D02*
X147826259Y-124163220D01*
X147350068Y-122734649D02*
X147873878Y-122734649D01*
X147873878Y-122734649D02*
X147969116Y-122782268D01*
X147969116Y-122782268D02*
X148016735Y-122877506D01*
X148016735Y-122877506D02*
X148016735Y-123067982D01*
X148016735Y-123067982D02*
X147969116Y-123163220D01*
X147397688Y-122734649D02*
X147350068Y-122829887D01*
X147350068Y-122829887D02*
X147350068Y-123067982D01*
X147350068Y-123067982D02*
X147397688Y-123163220D01*
X147397688Y-123163220D02*
X147492926Y-123210839D01*
X147492926Y-123210839D02*
X147588164Y-123210839D01*
X147588164Y-123210839D02*
X147683402Y-123163220D01*
X147683402Y-123163220D02*
X147731021Y-123067982D01*
X147731021Y-123067982D02*
X147731021Y-122829887D01*
X147731021Y-122829887D02*
X147778640Y-122734649D01*
X147397688Y-122306077D02*
X147350068Y-122210839D01*
X147350068Y-122210839D02*
X147350068Y-122020363D01*
X147350068Y-122020363D02*
X147397688Y-121925125D01*
X147397688Y-121925125D02*
X147492926Y-121877506D01*
X147492926Y-121877506D02*
X147540545Y-121877506D01*
X147540545Y-121877506D02*
X147635783Y-121925125D01*
X147635783Y-121925125D02*
X147683402Y-122020363D01*
X147683402Y-122020363D02*
X147683402Y-122163220D01*
X147683402Y-122163220D02*
X147731021Y-122258458D01*
X147731021Y-122258458D02*
X147826259Y-122306077D01*
X147826259Y-122306077D02*
X147873878Y-122306077D01*
X147873878Y-122306077D02*
X147969116Y-122258458D01*
X147969116Y-122258458D02*
X148016735Y-122163220D01*
X148016735Y-122163220D02*
X148016735Y-122020363D01*
X148016735Y-122020363D02*
X147969116Y-121925125D01*
X147397688Y-121496553D02*
X147350068Y-121401315D01*
X147350068Y-121401315D02*
X147350068Y-121210839D01*
X147350068Y-121210839D02*
X147397688Y-121115601D01*
X147397688Y-121115601D02*
X147492926Y-121067982D01*
X147492926Y-121067982D02*
X147540545Y-121067982D01*
X147540545Y-121067982D02*
X147635783Y-121115601D01*
X147635783Y-121115601D02*
X147683402Y-121210839D01*
X147683402Y-121210839D02*
X147683402Y-121353696D01*
X147683402Y-121353696D02*
X147731021Y-121448934D01*
X147731021Y-121448934D02*
X147826259Y-121496553D01*
X147826259Y-121496553D02*
X147873878Y-121496553D01*
X147873878Y-121496553D02*
X147969116Y-121448934D01*
X147969116Y-121448934D02*
X148016735Y-121353696D01*
X148016735Y-121353696D02*
X148016735Y-121210839D01*
X148016735Y-121210839D02*
X147969116Y-121115601D01*
X147350068Y-120639410D02*
X148016735Y-120639410D01*
X148350068Y-120639410D02*
X148302449Y-120687029D01*
X148302449Y-120687029D02*
X148254830Y-120639410D01*
X148254830Y-120639410D02*
X148302449Y-120591791D01*
X148302449Y-120591791D02*
X148350068Y-120639410D01*
X148350068Y-120639410D02*
X148254830Y-120639410D01*
X148016735Y-120258458D02*
X147350068Y-120020363D01*
X147350068Y-120020363D02*
X148016735Y-119782268D01*
X147397688Y-119020363D02*
X147350068Y-119115601D01*
X147350068Y-119115601D02*
X147350068Y-119306077D01*
X147350068Y-119306077D02*
X147397688Y-119401315D01*
X147397688Y-119401315D02*
X147492926Y-119448934D01*
X147492926Y-119448934D02*
X147873878Y-119448934D01*
X147873878Y-119448934D02*
X147969116Y-119401315D01*
X147969116Y-119401315D02*
X148016735Y-119306077D01*
X148016735Y-119306077D02*
X148016735Y-119115601D01*
X148016735Y-119115601D02*
X147969116Y-119020363D01*
X147969116Y-119020363D02*
X147873878Y-118972744D01*
X147873878Y-118972744D02*
X147778640Y-118972744D01*
X147778640Y-118972744D02*
X147683402Y-119448934D01*
X148350068Y-117925124D02*
X147350068Y-117591791D01*
X147350068Y-117591791D02*
X148350068Y-117258458D01*
X147350068Y-116496553D02*
X147873878Y-116496553D01*
X147873878Y-116496553D02*
X147969116Y-116544172D01*
X147969116Y-116544172D02*
X148016735Y-116639410D01*
X148016735Y-116639410D02*
X148016735Y-116829886D01*
X148016735Y-116829886D02*
X147969116Y-116925124D01*
X147397688Y-116496553D02*
X147350068Y-116591791D01*
X147350068Y-116591791D02*
X147350068Y-116829886D01*
X147350068Y-116829886D02*
X147397688Y-116925124D01*
X147397688Y-116925124D02*
X147492926Y-116972743D01*
X147492926Y-116972743D02*
X147588164Y-116972743D01*
X147588164Y-116972743D02*
X147683402Y-116925124D01*
X147683402Y-116925124D02*
X147731021Y-116829886D01*
X147731021Y-116829886D02*
X147731021Y-116591791D01*
X147731021Y-116591791D02*
X147778640Y-116496553D01*
X147350068Y-116020362D02*
X148016735Y-116020362D01*
X147826259Y-116020362D02*
X147921497Y-115972743D01*
X147921497Y-115972743D02*
X147969116Y-115925124D01*
X147969116Y-115925124D02*
X148016735Y-115829886D01*
X148016735Y-115829886D02*
X148016735Y-115734648D01*
X147350068Y-115401314D02*
X148016735Y-115401314D01*
X148350068Y-115401314D02*
X148302449Y-115448933D01*
X148302449Y-115448933D02*
X148254830Y-115401314D01*
X148254830Y-115401314D02*
X148302449Y-115353695D01*
X148302449Y-115353695D02*
X148350068Y-115401314D01*
X148350068Y-115401314D02*
X148254830Y-115401314D01*
X147350068Y-114496553D02*
X147873878Y-114496553D01*
X147873878Y-114496553D02*
X147969116Y-114544172D01*
X147969116Y-114544172D02*
X148016735Y-114639410D01*
X148016735Y-114639410D02*
X148016735Y-114829886D01*
X148016735Y-114829886D02*
X147969116Y-114925124D01*
X147397688Y-114496553D02*
X147350068Y-114591791D01*
X147350068Y-114591791D02*
X147350068Y-114829886D01*
X147350068Y-114829886D02*
X147397688Y-114925124D01*
X147397688Y-114925124D02*
X147492926Y-114972743D01*
X147492926Y-114972743D02*
X147588164Y-114972743D01*
X147588164Y-114972743D02*
X147683402Y-114925124D01*
X147683402Y-114925124D02*
X147731021Y-114829886D01*
X147731021Y-114829886D02*
X147731021Y-114591791D01*
X147731021Y-114591791D02*
X147778640Y-114496553D01*
X148016735Y-114020362D02*
X147350068Y-114020362D01*
X147921497Y-114020362D02*
X147969116Y-113972743D01*
X147969116Y-113972743D02*
X148016735Y-113877505D01*
X148016735Y-113877505D02*
X148016735Y-113734648D01*
X148016735Y-113734648D02*
X147969116Y-113639410D01*
X147969116Y-113639410D02*
X147873878Y-113591791D01*
X147873878Y-113591791D02*
X147350068Y-113591791D01*
X148016735Y-113258457D02*
X148016735Y-112877505D01*
X148350068Y-113115600D02*
X147492926Y-113115600D01*
X147492926Y-113115600D02*
X147397688Y-113067981D01*
X147397688Y-113067981D02*
X147350068Y-112972743D01*
X147350068Y-112972743D02*
X147350068Y-112877505D01*
X145740124Y-124163220D02*
X146740124Y-124163220D01*
X146740124Y-124163220D02*
X146740124Y-123925125D01*
X146740124Y-123925125D02*
X146692505Y-123782268D01*
X146692505Y-123782268D02*
X146597267Y-123687030D01*
X146597267Y-123687030D02*
X146502029Y-123639411D01*
X146502029Y-123639411D02*
X146311553Y-123591792D01*
X146311553Y-123591792D02*
X146168696Y-123591792D01*
X146168696Y-123591792D02*
X145978220Y-123639411D01*
X145978220Y-123639411D02*
X145882982Y-123687030D01*
X145882982Y-123687030D02*
X145787744Y-123782268D01*
X145787744Y-123782268D02*
X145740124Y-123925125D01*
X145740124Y-123925125D02*
X145740124Y-124163220D01*
X145787744Y-122782268D02*
X145740124Y-122877506D01*
X145740124Y-122877506D02*
X145740124Y-123067982D01*
X145740124Y-123067982D02*
X145787744Y-123163220D01*
X145787744Y-123163220D02*
X145882982Y-123210839D01*
X145882982Y-123210839D02*
X146263934Y-123210839D01*
X146263934Y-123210839D02*
X146359172Y-123163220D01*
X146359172Y-123163220D02*
X146406791Y-123067982D01*
X146406791Y-123067982D02*
X146406791Y-122877506D01*
X146406791Y-122877506D02*
X146359172Y-122782268D01*
X146359172Y-122782268D02*
X146263934Y-122734649D01*
X146263934Y-122734649D02*
X146168696Y-122734649D01*
X146168696Y-122734649D02*
X146073458Y-123210839D01*
X145787744Y-122353696D02*
X145740124Y-122258458D01*
X145740124Y-122258458D02*
X145740124Y-122067982D01*
X145740124Y-122067982D02*
X145787744Y-121972744D01*
X145787744Y-121972744D02*
X145882982Y-121925125D01*
X145882982Y-121925125D02*
X145930601Y-121925125D01*
X145930601Y-121925125D02*
X146025839Y-121972744D01*
X146025839Y-121972744D02*
X146073458Y-122067982D01*
X146073458Y-122067982D02*
X146073458Y-122210839D01*
X146073458Y-122210839D02*
X146121077Y-122306077D01*
X146121077Y-122306077D02*
X146216315Y-122353696D01*
X146216315Y-122353696D02*
X146263934Y-122353696D01*
X146263934Y-122353696D02*
X146359172Y-122306077D01*
X146359172Y-122306077D02*
X146406791Y-122210839D01*
X146406791Y-122210839D02*
X146406791Y-122067982D01*
X146406791Y-122067982D02*
X146359172Y-121972744D01*
X145740124Y-121496553D02*
X146406791Y-121496553D01*
X146740124Y-121496553D02*
X146692505Y-121544172D01*
X146692505Y-121544172D02*
X146644886Y-121496553D01*
X146644886Y-121496553D02*
X146692505Y-121448934D01*
X146692505Y-121448934D02*
X146740124Y-121496553D01*
X146740124Y-121496553D02*
X146644886Y-121496553D01*
X146406791Y-120591792D02*
X145597267Y-120591792D01*
X145597267Y-120591792D02*
X145502029Y-120639411D01*
X145502029Y-120639411D02*
X145454410Y-120687030D01*
X145454410Y-120687030D02*
X145406791Y-120782268D01*
X145406791Y-120782268D02*
X145406791Y-120925125D01*
X145406791Y-120925125D02*
X145454410Y-121020363D01*
X145787744Y-120591792D02*
X145740124Y-120687030D01*
X145740124Y-120687030D02*
X145740124Y-120877506D01*
X145740124Y-120877506D02*
X145787744Y-120972744D01*
X145787744Y-120972744D02*
X145835363Y-121020363D01*
X145835363Y-121020363D02*
X145930601Y-121067982D01*
X145930601Y-121067982D02*
X146216315Y-121067982D01*
X146216315Y-121067982D02*
X146311553Y-121020363D01*
X146311553Y-121020363D02*
X146359172Y-120972744D01*
X146359172Y-120972744D02*
X146406791Y-120877506D01*
X146406791Y-120877506D02*
X146406791Y-120687030D01*
X146406791Y-120687030D02*
X146359172Y-120591792D01*
X146406791Y-120115601D02*
X145740124Y-120115601D01*
X146311553Y-120115601D02*
X146359172Y-120067982D01*
X146359172Y-120067982D02*
X146406791Y-119972744D01*
X146406791Y-119972744D02*
X146406791Y-119829887D01*
X146406791Y-119829887D02*
X146359172Y-119734649D01*
X146359172Y-119734649D02*
X146263934Y-119687030D01*
X146263934Y-119687030D02*
X145740124Y-119687030D01*
X145787744Y-118829887D02*
X145740124Y-118925125D01*
X145740124Y-118925125D02*
X145740124Y-119115601D01*
X145740124Y-119115601D02*
X145787744Y-119210839D01*
X145787744Y-119210839D02*
X145882982Y-119258458D01*
X145882982Y-119258458D02*
X146263934Y-119258458D01*
X146263934Y-119258458D02*
X146359172Y-119210839D01*
X146359172Y-119210839D02*
X146406791Y-119115601D01*
X146406791Y-119115601D02*
X146406791Y-118925125D01*
X146406791Y-118925125D02*
X146359172Y-118829887D01*
X146359172Y-118829887D02*
X146263934Y-118782268D01*
X146263934Y-118782268D02*
X146168696Y-118782268D01*
X146168696Y-118782268D02*
X146073458Y-119258458D01*
X145740124Y-117925125D02*
X146740124Y-117925125D01*
X145787744Y-117925125D02*
X145740124Y-118020363D01*
X145740124Y-118020363D02*
X145740124Y-118210839D01*
X145740124Y-118210839D02*
X145787744Y-118306077D01*
X145787744Y-118306077D02*
X145835363Y-118353696D01*
X145835363Y-118353696D02*
X145930601Y-118401315D01*
X145930601Y-118401315D02*
X146216315Y-118401315D01*
X146216315Y-118401315D02*
X146311553Y-118353696D01*
X146311553Y-118353696D02*
X146359172Y-118306077D01*
X146359172Y-118306077D02*
X146406791Y-118210839D01*
X146406791Y-118210839D02*
X146406791Y-118020363D01*
X146406791Y-118020363D02*
X146359172Y-117925125D01*
X145740124Y-116687029D02*
X146740124Y-116687029D01*
X146359172Y-116687029D02*
X146406791Y-116591791D01*
X146406791Y-116591791D02*
X146406791Y-116401315D01*
X146406791Y-116401315D02*
X146359172Y-116306077D01*
X146359172Y-116306077D02*
X146311553Y-116258458D01*
X146311553Y-116258458D02*
X146216315Y-116210839D01*
X146216315Y-116210839D02*
X145930601Y-116210839D01*
X145930601Y-116210839D02*
X145835363Y-116258458D01*
X145835363Y-116258458D02*
X145787744Y-116306077D01*
X145787744Y-116306077D02*
X145740124Y-116401315D01*
X145740124Y-116401315D02*
X145740124Y-116591791D01*
X145740124Y-116591791D02*
X145787744Y-116687029D01*
X146406791Y-115877505D02*
X145740124Y-115639410D01*
X146406791Y-115401315D02*
X145740124Y-115639410D01*
X145740124Y-115639410D02*
X145502029Y-115734648D01*
X145502029Y-115734648D02*
X145454410Y-115782267D01*
X145454410Y-115782267D02*
X145406791Y-115877505D01*
X146740124Y-114353695D02*
X145740124Y-114115600D01*
X145740124Y-114115600D02*
X146454410Y-113925124D01*
X146454410Y-113925124D02*
X145740124Y-113734648D01*
X145740124Y-113734648D02*
X146740124Y-113496553D01*
X145740124Y-113115600D02*
X146406791Y-113115600D01*
X146740124Y-113115600D02*
X146692505Y-113163219D01*
X146692505Y-113163219D02*
X146644886Y-113115600D01*
X146644886Y-113115600D02*
X146692505Y-113067981D01*
X146692505Y-113067981D02*
X146740124Y-113115600D01*
X146740124Y-113115600D02*
X146644886Y-113115600D01*
X145740124Y-112496553D02*
X145787744Y-112591791D01*
X145787744Y-112591791D02*
X145882982Y-112639410D01*
X145882982Y-112639410D02*
X146740124Y-112639410D01*
X145740124Y-111972743D02*
X145787744Y-112067981D01*
X145787744Y-112067981D02*
X145882982Y-112115600D01*
X145882982Y-112115600D02*
X146740124Y-112115600D01*
X146740124Y-110925123D02*
X145740124Y-110687028D01*
X145740124Y-110687028D02*
X146454410Y-110496552D01*
X146454410Y-110496552D02*
X145740124Y-110306076D01*
X145740124Y-110306076D02*
X146740124Y-110067981D01*
X145740124Y-109687028D02*
X146740124Y-109687028D01*
X145740124Y-109258457D02*
X146263934Y-109258457D01*
X146263934Y-109258457D02*
X146359172Y-109306076D01*
X146359172Y-109306076D02*
X146406791Y-109401314D01*
X146406791Y-109401314D02*
X146406791Y-109544171D01*
X146406791Y-109544171D02*
X146359172Y-109639409D01*
X146359172Y-109639409D02*
X146311553Y-109687028D01*
X145740124Y-108353695D02*
X146263934Y-108353695D01*
X146263934Y-108353695D02*
X146359172Y-108401314D01*
X146359172Y-108401314D02*
X146406791Y-108496552D01*
X146406791Y-108496552D02*
X146406791Y-108687028D01*
X146406791Y-108687028D02*
X146359172Y-108782266D01*
X145787744Y-108353695D02*
X145740124Y-108448933D01*
X145740124Y-108448933D02*
X145740124Y-108687028D01*
X145740124Y-108687028D02*
X145787744Y-108782266D01*
X145787744Y-108782266D02*
X145882982Y-108829885D01*
X145882982Y-108829885D02*
X145978220Y-108829885D01*
X145978220Y-108829885D02*
X146073458Y-108782266D01*
X146073458Y-108782266D02*
X146121077Y-108687028D01*
X146121077Y-108687028D02*
X146121077Y-108448933D01*
X146121077Y-108448933D02*
X146168696Y-108353695D01*
X146406791Y-107877504D02*
X145740124Y-107877504D01*
X146311553Y-107877504D02*
X146359172Y-107829885D01*
X146359172Y-107829885D02*
X146406791Y-107734647D01*
X146406791Y-107734647D02*
X146406791Y-107591790D01*
X146406791Y-107591790D02*
X146359172Y-107496552D01*
X146359172Y-107496552D02*
X146263934Y-107448933D01*
X146263934Y-107448933D02*
X145740124Y-107448933D01*
X146406791Y-106544171D02*
X145597267Y-106544171D01*
X145597267Y-106544171D02*
X145502029Y-106591790D01*
X145502029Y-106591790D02*
X145454410Y-106639409D01*
X145454410Y-106639409D02*
X145406791Y-106734647D01*
X145406791Y-106734647D02*
X145406791Y-106877504D01*
X145406791Y-106877504D02*
X145454410Y-106972742D01*
X145787744Y-106544171D02*
X145740124Y-106639409D01*
X145740124Y-106639409D02*
X145740124Y-106829885D01*
X145740124Y-106829885D02*
X145787744Y-106925123D01*
X145787744Y-106925123D02*
X145835363Y-106972742D01*
X145835363Y-106972742D02*
X145930601Y-107020361D01*
X145930601Y-107020361D02*
X146216315Y-107020361D01*
X146216315Y-107020361D02*
X146311553Y-106972742D01*
X146311553Y-106972742D02*
X146359172Y-106925123D01*
X146359172Y-106925123D02*
X146406791Y-106829885D01*
X146406791Y-106829885D02*
X146406791Y-106639409D01*
X146406791Y-106639409D02*
X146359172Y-106544171D01*
X145034942Y-124210839D02*
X145082561Y-124163220D01*
X145082561Y-124163220D02*
X145130180Y-124067982D01*
X145130180Y-124067982D02*
X145130180Y-123829887D01*
X145130180Y-123829887D02*
X145082561Y-123734649D01*
X145082561Y-123734649D02*
X145034942Y-123687030D01*
X145034942Y-123687030D02*
X144939704Y-123639411D01*
X144939704Y-123639411D02*
X144844466Y-123639411D01*
X144844466Y-123639411D02*
X144701609Y-123687030D01*
X144701609Y-123687030D02*
X144130180Y-124258458D01*
X144130180Y-124258458D02*
X144130180Y-123639411D01*
X145130180Y-123020363D02*
X145130180Y-122925125D01*
X145130180Y-122925125D02*
X145082561Y-122829887D01*
X145082561Y-122829887D02*
X145034942Y-122782268D01*
X145034942Y-122782268D02*
X144939704Y-122734649D01*
X144939704Y-122734649D02*
X144749228Y-122687030D01*
X144749228Y-122687030D02*
X144511133Y-122687030D01*
X144511133Y-122687030D02*
X144320657Y-122734649D01*
X144320657Y-122734649D02*
X144225419Y-122782268D01*
X144225419Y-122782268D02*
X144177800Y-122829887D01*
X144177800Y-122829887D02*
X144130180Y-122925125D01*
X144130180Y-122925125D02*
X144130180Y-123020363D01*
X144130180Y-123020363D02*
X144177800Y-123115601D01*
X144177800Y-123115601D02*
X144225419Y-123163220D01*
X144225419Y-123163220D02*
X144320657Y-123210839D01*
X144320657Y-123210839D02*
X144511133Y-123258458D01*
X144511133Y-123258458D02*
X144749228Y-123258458D01*
X144749228Y-123258458D02*
X144939704Y-123210839D01*
X144939704Y-123210839D02*
X145034942Y-123163220D01*
X145034942Y-123163220D02*
X145082561Y-123115601D01*
X145082561Y-123115601D02*
X145130180Y-123020363D01*
X145034942Y-122306077D02*
X145082561Y-122258458D01*
X145082561Y-122258458D02*
X145130180Y-122163220D01*
X145130180Y-122163220D02*
X145130180Y-121925125D01*
X145130180Y-121925125D02*
X145082561Y-121829887D01*
X145082561Y-121829887D02*
X145034942Y-121782268D01*
X145034942Y-121782268D02*
X144939704Y-121734649D01*
X144939704Y-121734649D02*
X144844466Y-121734649D01*
X144844466Y-121734649D02*
X144701609Y-121782268D01*
X144701609Y-121782268D02*
X144130180Y-122353696D01*
X144130180Y-122353696D02*
X144130180Y-121734649D01*
X144796847Y-120877506D02*
X144130180Y-120877506D01*
X145177800Y-121115601D02*
X144463514Y-121353696D01*
X144463514Y-121353696D02*
X144463514Y-120734649D01*
X145177800Y-119639411D02*
X143892085Y-120496553D01*
X144130180Y-118782268D02*
X144130180Y-119353696D01*
X144130180Y-119067982D02*
X145130180Y-119067982D01*
X145130180Y-119067982D02*
X144987323Y-119163220D01*
X144987323Y-119163220D02*
X144892085Y-119258458D01*
X144892085Y-119258458D02*
X144844466Y-119353696D01*
X144130180Y-117829887D02*
X144130180Y-118401315D01*
X144130180Y-118115601D02*
X145130180Y-118115601D01*
X145130180Y-118115601D02*
X144987323Y-118210839D01*
X144987323Y-118210839D02*
X144892085Y-118306077D01*
X144892085Y-118306077D02*
X144844466Y-118401315D01*
X145177800Y-116687030D02*
X143892085Y-117544172D01*
X144130180Y-115829887D02*
X144130180Y-116401315D01*
X144130180Y-116115601D02*
X145130180Y-116115601D01*
X145130180Y-116115601D02*
X144987323Y-116210839D01*
X144987323Y-116210839D02*
X144892085Y-116306077D01*
X144892085Y-116306077D02*
X144844466Y-116401315D01*
X145130180Y-115210839D02*
X145130180Y-115115601D01*
X145130180Y-115115601D02*
X145082561Y-115020363D01*
X145082561Y-115020363D02*
X145034942Y-114972744D01*
X145034942Y-114972744D02*
X144939704Y-114925125D01*
X144939704Y-114925125D02*
X144749228Y-114877506D01*
X144749228Y-114877506D02*
X144511133Y-114877506D01*
X144511133Y-114877506D02*
X144320657Y-114925125D01*
X144320657Y-114925125D02*
X144225419Y-114972744D01*
X144225419Y-114972744D02*
X144177800Y-115020363D01*
X144177800Y-115020363D02*
X144130180Y-115115601D01*
X144130180Y-115115601D02*
X144130180Y-115210839D01*
X144130180Y-115210839D02*
X144177800Y-115306077D01*
X144177800Y-115306077D02*
X144225419Y-115353696D01*
X144225419Y-115353696D02*
X144320657Y-115401315D01*
X144320657Y-115401315D02*
X144511133Y-115448934D01*
X144511133Y-115448934D02*
X144749228Y-115448934D01*
X144749228Y-115448934D02*
X144939704Y-115401315D01*
X144939704Y-115401315D02*
X145034942Y-115353696D01*
X145034942Y-115353696D02*
X145082561Y-115306077D01*
X145082561Y-115306077D02*
X145130180Y-115210839D01*
M02*
