G04 #@! TF.GenerationSoftware,KiCad,Pcbnew,8.0.4*
G04 #@! TF.CreationDate,2025-01-13T22:16:17-08:00*
G04 #@! TF.ProjectId,CSI_HDMI_Passthrough_receiver_noRetimer,4353495f-4844-44d4-995f-506173737468,rev?*
G04 #@! TF.SameCoordinates,Original*
G04 #@! TF.FileFunction,Copper,L4,Bot*
G04 #@! TF.FilePolarity,Positive*
%FSLAX46Y46*%
G04 Gerber Fmt 4.6, Leading zero omitted, Abs format (unit mm)*
G04 Created by KiCad (PCBNEW 8.0.4) date 2025-01-13 22:16:17*
%MOMM*%
%LPD*%
G01*
G04 APERTURE LIST*
G04 #@! TA.AperFunction,ComponentPad*
%ADD10O,3.300000X1.500000*%
G04 #@! TD*
G04 #@! TA.AperFunction,ComponentPad*
%ADD11O,2.300000X1.500000*%
G04 #@! TD*
G04 #@! TA.AperFunction,ViaPad*
%ADD12C,0.450000*%
G04 #@! TD*
G04 #@! TA.AperFunction,Conductor*
%ADD13C,0.500000*%
G04 #@! TD*
G04 APERTURE END LIST*
D10*
G04 #@! TO.P,J4,SH,SH*
G04 #@! TO.N,GND*
X162275000Y-77250000D03*
X162275000Y-91750000D03*
D11*
X168235000Y-77250000D03*
X168235000Y-91750000D03*
G04 #@! TD*
D10*
G04 #@! TO.P,J2,SH,SH*
G04 #@! TO.N,GND*
X162260000Y-95150000D03*
X162260000Y-109650000D03*
D11*
X168220000Y-95150000D03*
X168220000Y-109650000D03*
G04 #@! TD*
D12*
G04 #@! TO.N,GND*
X155050000Y-116400000D03*
X152350000Y-116400000D03*
X164650000Y-116350000D03*
X161950000Y-116350000D03*
X155050000Y-129850000D03*
X152350000Y-129850000D03*
X153650000Y-117550000D03*
X153850000Y-119350000D03*
X153850000Y-120850000D03*
X153850000Y-122350000D03*
X153800000Y-125350000D03*
X153450000Y-126450000D03*
X154800000Y-93550000D03*
X152350000Y-93550000D03*
X156650000Y-117500000D03*
X163200000Y-80500000D03*
X163200000Y-102900000D03*
X156650000Y-118350000D03*
X166350000Y-117500000D03*
X156650000Y-119350000D03*
X163800000Y-88100000D03*
X159900000Y-99900000D03*
X159900000Y-101400000D03*
X160750000Y-126850000D03*
X163250000Y-117450000D03*
X159900000Y-105900000D03*
X163450000Y-119350000D03*
X163250000Y-126350000D03*
X163200000Y-98400000D03*
X163450000Y-122350000D03*
X163200000Y-99900000D03*
X156650000Y-120850000D03*
X163450000Y-123850000D03*
X159900000Y-82000000D03*
X159800000Y-88000000D03*
X159900000Y-83500000D03*
X163200000Y-101400000D03*
X166350000Y-125350000D03*
X166350000Y-118350000D03*
X156650000Y-125350000D03*
X156650000Y-122350000D03*
X153600000Y-94400000D03*
X163200000Y-82000000D03*
X166350000Y-119350000D03*
X166350000Y-122350000D03*
X159900000Y-80500000D03*
X166350000Y-123850000D03*
X159900000Y-85000000D03*
X163200000Y-83500000D03*
X166350000Y-120850000D03*
X163200000Y-85000000D03*
X159900000Y-98400000D03*
X156650000Y-123850000D03*
X159900000Y-102900000D03*
X163800000Y-106100000D03*
X163400000Y-125350000D03*
G04 #@! TO.N,+3V3*
X153850000Y-128350000D03*
X163400000Y-128350000D03*
X156400000Y-94900000D03*
X165900000Y-128350000D03*
X156200000Y-128350000D03*
G04 #@! TO.N,Net-(J2-+5V)*
X163150000Y-106400000D03*
X163150000Y-88500000D03*
X156400000Y-93600000D03*
G04 #@! TD*
D13*
G04 #@! TO.N,Net-(J2-+5V)*
X162950000Y-106600000D02*
X163150000Y-106400000D01*
X156025000Y-106600000D02*
X162950000Y-106600000D01*
X154100000Y-104675000D02*
X156025000Y-106600000D01*
X156400000Y-93600000D02*
X154100000Y-95900000D01*
X154100000Y-95900000D02*
X154100000Y-104675000D01*
X161500000Y-88500000D02*
X156400000Y-93600000D01*
X163150000Y-88500000D02*
X161500000Y-88500000D01*
G04 #@! TD*
G04 #@! TA.AperFunction,Conductor*
G04 #@! TO.N,GND*
G36*
X167000305Y-75500003D02*
G01*
X167181064Y-75502368D01*
X167185522Y-75502631D01*
X167545348Y-75540451D01*
X167550412Y-75541253D01*
X167903975Y-75616406D01*
X167908923Y-75617731D01*
X168252715Y-75729436D01*
X168257485Y-75731267D01*
X168506326Y-75842057D01*
X168587714Y-75878294D01*
X168592284Y-75880623D01*
X168640682Y-75908565D01*
X168663512Y-75938317D01*
X168658617Y-75975500D01*
X168628865Y-75998330D01*
X168616182Y-76000000D01*
X168485000Y-76000000D01*
X168485000Y-76800000D01*
X167985000Y-76800000D01*
X167985000Y-76000000D01*
X167736624Y-76000000D01*
X167542293Y-76030778D01*
X167542290Y-76030779D01*
X167355165Y-76091580D01*
X167179862Y-76180900D01*
X167020673Y-76296559D01*
X166881559Y-76435673D01*
X166765900Y-76594862D01*
X166676580Y-76770165D01*
X166615778Y-76957291D01*
X166609015Y-76999999D01*
X166609016Y-77000000D01*
X167459722Y-77000000D01*
X167415667Y-77076306D01*
X167385000Y-77190756D01*
X167385000Y-77309244D01*
X167415667Y-77423694D01*
X167459722Y-77500000D01*
X166609015Y-77500000D01*
X166615778Y-77542708D01*
X166676580Y-77729834D01*
X166765900Y-77905137D01*
X166881559Y-78064326D01*
X167020673Y-78203440D01*
X167179862Y-78319099D01*
X167355165Y-78408419D01*
X167542290Y-78469220D01*
X167542293Y-78469221D01*
X167736624Y-78500000D01*
X167985000Y-78500000D01*
X167985000Y-77700000D01*
X168485000Y-77700000D01*
X168485000Y-78500000D01*
X168733376Y-78500000D01*
X168927706Y-78469221D01*
X168927709Y-78469220D01*
X169114834Y-78408419D01*
X169290137Y-78319099D01*
X169449326Y-78203440D01*
X169588440Y-78064326D01*
X169704099Y-77905137D01*
X169793419Y-77729834D01*
X169854221Y-77542708D01*
X169860985Y-77500000D01*
X169010278Y-77500000D01*
X169054333Y-77423694D01*
X169085000Y-77309244D01*
X169085000Y-77190756D01*
X169054333Y-77076306D01*
X169010278Y-77000000D01*
X169870188Y-77000000D01*
X169935853Y-77090379D01*
X169938646Y-77094680D01*
X170119376Y-77407715D01*
X170121705Y-77412285D01*
X170268728Y-77742505D01*
X170270566Y-77747293D01*
X170382267Y-78091073D01*
X170383594Y-78096027D01*
X170458745Y-78449586D01*
X170459548Y-78454652D01*
X170497367Y-78814466D01*
X170497631Y-78818947D01*
X170499996Y-78999694D01*
X170500000Y-79000335D01*
X170500000Y-127999664D01*
X170499996Y-128000305D01*
X170497631Y-128181052D01*
X170497367Y-128185533D01*
X170459548Y-128545347D01*
X170458745Y-128550413D01*
X170383594Y-128903972D01*
X170382267Y-128908926D01*
X170270566Y-129252706D01*
X170268728Y-129257494D01*
X170121705Y-129587714D01*
X170119376Y-129592284D01*
X169938645Y-129905320D01*
X169935852Y-129909622D01*
X169723385Y-130202057D01*
X169720157Y-130206042D01*
X169478290Y-130474663D01*
X169474663Y-130478290D01*
X169206042Y-130720157D01*
X169202057Y-130723385D01*
X168909622Y-130935852D01*
X168905320Y-130938645D01*
X168592284Y-131119376D01*
X168587714Y-131121705D01*
X168257494Y-131268728D01*
X168252706Y-131270566D01*
X167908926Y-131382267D01*
X167903972Y-131383594D01*
X167550413Y-131458745D01*
X167545347Y-131459548D01*
X167185533Y-131497367D01*
X167181052Y-131497631D01*
X167000306Y-131499996D01*
X166999665Y-131500000D01*
X147000335Y-131500000D01*
X146999694Y-131499996D01*
X146818947Y-131497631D01*
X146814466Y-131497367D01*
X146454652Y-131459548D01*
X146449586Y-131458745D01*
X146096027Y-131383594D01*
X146091073Y-131382267D01*
X145747293Y-131270566D01*
X145742505Y-131268728D01*
X145412285Y-131121705D01*
X145407715Y-131119376D01*
X145094679Y-130938645D01*
X145090386Y-130935858D01*
X144797936Y-130723380D01*
X144793957Y-130720157D01*
X144525336Y-130478290D01*
X144521709Y-130474663D01*
X144279842Y-130206042D01*
X144276620Y-130202065D01*
X144064138Y-129909608D01*
X144061354Y-129905320D01*
X144021146Y-129835678D01*
X143880623Y-129592284D01*
X143878294Y-129587714D01*
X143842057Y-129506326D01*
X143731267Y-129257485D01*
X143729436Y-129252715D01*
X143617731Y-128908923D01*
X143616405Y-128903972D01*
X143572736Y-128698527D01*
X143541253Y-128550412D01*
X143540451Y-128545347D01*
X143502632Y-128185533D01*
X143502368Y-128181064D01*
X143500004Y-128000305D01*
X143500000Y-127999664D01*
X143500000Y-127845535D01*
X144249500Y-127845535D01*
X144249500Y-128154465D01*
X144271531Y-128350000D01*
X144284088Y-128461442D01*
X144284088Y-128461447D01*
X144352831Y-128762633D01*
X144454866Y-129054233D01*
X144454869Y-129054239D01*
X144588898Y-129332552D01*
X144588903Y-129332562D01*
X144753263Y-129594141D01*
X144945873Y-129835666D01*
X144945884Y-129835678D01*
X145164321Y-130054115D01*
X145164333Y-130054126D01*
X145405858Y-130246736D01*
X145667437Y-130411096D01*
X145667447Y-130411101D01*
X145945760Y-130545130D01*
X145945766Y-130545133D01*
X145945769Y-130545134D01*
X145945771Y-130545135D01*
X146237364Y-130647168D01*
X146538548Y-130715911D01*
X146801679Y-130745558D01*
X146845534Y-130750500D01*
X146845535Y-130750500D01*
X147154466Y-130750500D01*
X147182372Y-130747355D01*
X147461452Y-130715911D01*
X147762636Y-130647168D01*
X148054229Y-130545135D01*
X148332565Y-130411095D01*
X148594143Y-130246735D01*
X148835674Y-130054120D01*
X149054120Y-129835674D01*
X149246735Y-129594143D01*
X149411095Y-129332565D01*
X149545135Y-129054229D01*
X149647168Y-128762636D01*
X149715911Y-128461452D01*
X149728469Y-128350000D01*
X153419196Y-128350000D01*
X153440281Y-128483126D01*
X153440281Y-128483127D01*
X153440282Y-128483128D01*
X153501467Y-128603213D01*
X153501472Y-128603220D01*
X153596779Y-128698527D01*
X153596786Y-128698532D01*
X153676842Y-128739322D01*
X153716874Y-128759719D01*
X153850000Y-128780804D01*
X153983126Y-128759719D01*
X154066420Y-128717278D01*
X154103213Y-128698532D01*
X154103215Y-128698530D01*
X154103220Y-128698528D01*
X154198528Y-128603220D01*
X154259719Y-128483126D01*
X154280804Y-128350000D01*
X155769196Y-128350000D01*
X155790281Y-128483126D01*
X155790281Y-128483127D01*
X155790282Y-128483128D01*
X155851467Y-128603213D01*
X155851472Y-128603220D01*
X155946779Y-128698527D01*
X155946786Y-128698532D01*
X156026842Y-128739322D01*
X156066874Y-128759719D01*
X156200000Y-128780804D01*
X156333126Y-128759719D01*
X156416420Y-128717278D01*
X156453213Y-128698532D01*
X156453215Y-128698530D01*
X156453220Y-128698528D01*
X156548528Y-128603220D01*
X156609719Y-128483126D01*
X156630804Y-128350000D01*
X162969196Y-128350000D01*
X162990281Y-128483126D01*
X162990281Y-128483127D01*
X162990282Y-128483128D01*
X163051467Y-128603213D01*
X163051472Y-128603220D01*
X163146779Y-128698527D01*
X163146786Y-128698532D01*
X163226842Y-128739322D01*
X163266874Y-128759719D01*
X163400000Y-128780804D01*
X163533126Y-128759719D01*
X163616420Y-128717278D01*
X163653213Y-128698532D01*
X163653215Y-128698530D01*
X163653220Y-128698528D01*
X163748528Y-128603220D01*
X163809719Y-128483126D01*
X163830804Y-128350000D01*
X165469196Y-128350000D01*
X165490281Y-128483126D01*
X165490281Y-128483127D01*
X165490282Y-128483128D01*
X165551467Y-128603213D01*
X165551472Y-128603220D01*
X165646779Y-128698527D01*
X165646786Y-128698532D01*
X165726842Y-128739322D01*
X165766874Y-128759719D01*
X165900000Y-128780804D01*
X166033126Y-128759719D01*
X166116420Y-128717278D01*
X166153213Y-128698532D01*
X166153215Y-128698530D01*
X166153220Y-128698528D01*
X166248528Y-128603220D01*
X166309719Y-128483126D01*
X166330804Y-128350000D01*
X166309719Y-128216874D01*
X166277920Y-128154465D01*
X166248532Y-128096786D01*
X166248527Y-128096779D01*
X166153220Y-128001472D01*
X166153213Y-128001467D01*
X166033128Y-127940282D01*
X166033127Y-127940281D01*
X166033126Y-127940281D01*
X165900000Y-127919196D01*
X165766874Y-127940281D01*
X165766872Y-127940281D01*
X165766871Y-127940282D01*
X165646786Y-128001467D01*
X165646779Y-128001472D01*
X165551472Y-128096779D01*
X165551467Y-128096786D01*
X165490282Y-128216871D01*
X165490281Y-128216872D01*
X165490281Y-128216874D01*
X165469196Y-128350000D01*
X163830804Y-128350000D01*
X163809719Y-128216874D01*
X163777920Y-128154465D01*
X163748532Y-128096786D01*
X163748527Y-128096779D01*
X163653220Y-128001472D01*
X163653213Y-128001467D01*
X163533128Y-127940282D01*
X163533127Y-127940281D01*
X163533126Y-127940281D01*
X163400000Y-127919196D01*
X163266874Y-127940281D01*
X163266872Y-127940281D01*
X163266871Y-127940282D01*
X163146786Y-128001467D01*
X163146779Y-128001472D01*
X163051472Y-128096779D01*
X163051467Y-128096786D01*
X162990282Y-128216871D01*
X162990281Y-128216872D01*
X162990281Y-128216874D01*
X162969196Y-128350000D01*
X156630804Y-128350000D01*
X156609719Y-128216874D01*
X156577920Y-128154465D01*
X156548532Y-128096786D01*
X156548527Y-128096779D01*
X156453220Y-128001472D01*
X156453213Y-128001467D01*
X156333128Y-127940282D01*
X156333127Y-127940281D01*
X156333126Y-127940281D01*
X156200000Y-127919196D01*
X156066874Y-127940281D01*
X156066872Y-127940281D01*
X156066871Y-127940282D01*
X155946786Y-128001467D01*
X155946779Y-128001472D01*
X155851472Y-128096779D01*
X155851467Y-128096786D01*
X155790282Y-128216871D01*
X155790281Y-128216872D01*
X155790281Y-128216874D01*
X155769196Y-128350000D01*
X154280804Y-128350000D01*
X154259719Y-128216874D01*
X154227920Y-128154465D01*
X154198532Y-128096786D01*
X154198527Y-128096779D01*
X154103220Y-128001472D01*
X154103213Y-128001467D01*
X153983128Y-127940282D01*
X153983127Y-127940281D01*
X153983126Y-127940281D01*
X153850000Y-127919196D01*
X153716874Y-127940281D01*
X153716872Y-127940281D01*
X153716871Y-127940282D01*
X153596786Y-128001467D01*
X153596779Y-128001472D01*
X153501472Y-128096779D01*
X153501467Y-128096786D01*
X153440282Y-128216871D01*
X153440281Y-128216872D01*
X153440281Y-128216874D01*
X153419196Y-128350000D01*
X149728469Y-128350000D01*
X149750500Y-128154465D01*
X149750500Y-127845535D01*
X149715911Y-127538548D01*
X149647168Y-127237364D01*
X149545135Y-126945771D01*
X149411095Y-126667435D01*
X149246735Y-126405857D01*
X149054120Y-126164326D01*
X148835674Y-125945880D01*
X148835671Y-125945877D01*
X148835666Y-125945873D01*
X148594141Y-125753263D01*
X148332562Y-125588903D01*
X148332552Y-125588898D01*
X148054239Y-125454869D01*
X148054233Y-125454866D01*
X147762633Y-125352831D01*
X147762634Y-125352831D01*
X147619189Y-125320091D01*
X147461452Y-125284089D01*
X147461446Y-125284088D01*
X147461445Y-125284088D01*
X147154466Y-125249500D01*
X147154465Y-125249500D01*
X146845535Y-125249500D01*
X146845534Y-125249500D01*
X146538557Y-125284088D01*
X146538552Y-125284088D01*
X146237366Y-125352831D01*
X145945766Y-125454866D01*
X145945760Y-125454869D01*
X145667447Y-125588898D01*
X145667437Y-125588903D01*
X145405858Y-125753263D01*
X145164333Y-125945873D01*
X145164321Y-125945884D01*
X144945884Y-126164321D01*
X144945873Y-126164333D01*
X144753263Y-126405858D01*
X144588903Y-126667437D01*
X144588898Y-126667447D01*
X144454869Y-126945760D01*
X144454866Y-126945766D01*
X144352831Y-127237366D01*
X144284088Y-127538552D01*
X144284088Y-127538556D01*
X144249500Y-127845535D01*
X143500000Y-127845535D01*
X143500000Y-109399999D01*
X160134015Y-109399999D01*
X160134016Y-109400000D01*
X160984722Y-109400000D01*
X160940667Y-109476306D01*
X160910000Y-109590756D01*
X160910000Y-109709244D01*
X160940667Y-109823694D01*
X160984722Y-109900000D01*
X160134015Y-109900000D01*
X160140778Y-109942708D01*
X160201580Y-110129834D01*
X160290900Y-110305137D01*
X160406559Y-110464326D01*
X160545673Y-110603440D01*
X160704862Y-110719099D01*
X160880165Y-110808419D01*
X161067290Y-110869220D01*
X161067293Y-110869221D01*
X161261624Y-110900000D01*
X162010000Y-110900000D01*
X162010000Y-110100000D01*
X162510000Y-110100000D01*
X162510000Y-110900000D01*
X163258376Y-110900000D01*
X163452706Y-110869221D01*
X163452709Y-110869220D01*
X163639834Y-110808419D01*
X163815137Y-110719099D01*
X163974326Y-110603440D01*
X164113440Y-110464326D01*
X164229099Y-110305137D01*
X164318419Y-110129834D01*
X164379221Y-109942708D01*
X164385985Y-109900000D01*
X163535278Y-109900000D01*
X163579333Y-109823694D01*
X163610000Y-109709244D01*
X163610000Y-109590756D01*
X163579333Y-109476306D01*
X163535278Y-109400000D01*
X164385984Y-109400000D01*
X164385984Y-109399999D01*
X166594015Y-109399999D01*
X166594016Y-109400000D01*
X167444722Y-109400000D01*
X167400667Y-109476306D01*
X167370000Y-109590756D01*
X167370000Y-109709244D01*
X167400667Y-109823694D01*
X167444722Y-109900000D01*
X166594015Y-109900000D01*
X166600778Y-109942708D01*
X166661580Y-110129834D01*
X166750900Y-110305137D01*
X166866559Y-110464326D01*
X167005673Y-110603440D01*
X167164862Y-110719099D01*
X167340165Y-110808419D01*
X167527290Y-110869220D01*
X167527293Y-110869221D01*
X167721624Y-110900000D01*
X167970000Y-110900000D01*
X167970000Y-110100000D01*
X168470000Y-110100000D01*
X168470000Y-110900000D01*
X168718376Y-110900000D01*
X168912706Y-110869221D01*
X168912709Y-110869220D01*
X169099834Y-110808419D01*
X169275137Y-110719099D01*
X169434326Y-110603440D01*
X169573440Y-110464326D01*
X169689099Y-110305137D01*
X169778419Y-110129834D01*
X169839221Y-109942708D01*
X169845985Y-109900000D01*
X168995278Y-109900000D01*
X169039333Y-109823694D01*
X169070000Y-109709244D01*
X169070000Y-109590756D01*
X169039333Y-109476306D01*
X168995278Y-109400000D01*
X169845984Y-109400000D01*
X169845984Y-109399999D01*
X169839221Y-109357291D01*
X169778419Y-109170165D01*
X169689099Y-108994862D01*
X169573440Y-108835673D01*
X169434326Y-108696559D01*
X169275137Y-108580900D01*
X169099834Y-108491580D01*
X168912709Y-108430779D01*
X168912706Y-108430778D01*
X168718376Y-108400000D01*
X168470000Y-108400000D01*
X168470000Y-109200000D01*
X167970000Y-109200000D01*
X167970000Y-108400000D01*
X167721624Y-108400000D01*
X167527293Y-108430778D01*
X167527290Y-108430779D01*
X167340165Y-108491580D01*
X167164862Y-108580900D01*
X167005673Y-108696559D01*
X166866559Y-108835673D01*
X166750900Y-108994862D01*
X166661580Y-109170165D01*
X166600778Y-109357291D01*
X166594015Y-109399999D01*
X164385984Y-109399999D01*
X164379221Y-109357291D01*
X164318419Y-109170165D01*
X164229099Y-108994862D01*
X164113440Y-108835673D01*
X163974326Y-108696559D01*
X163815137Y-108580900D01*
X163639834Y-108491580D01*
X163452709Y-108430779D01*
X163452706Y-108430778D01*
X163258376Y-108400000D01*
X162510000Y-108400000D01*
X162510000Y-109200000D01*
X162010000Y-109200000D01*
X162010000Y-108400000D01*
X161261624Y-108400000D01*
X161067293Y-108430778D01*
X161067290Y-108430779D01*
X160880165Y-108491580D01*
X160704862Y-108580900D01*
X160545673Y-108696559D01*
X160406559Y-108835673D01*
X160290900Y-108994862D01*
X160201580Y-109170165D01*
X160140778Y-109357291D01*
X160134015Y-109399999D01*
X143500000Y-109399999D01*
X143500000Y-95840688D01*
X153649500Y-95840688D01*
X153649500Y-104734310D01*
X153673713Y-104824672D01*
X153673713Y-104824673D01*
X153680200Y-104848886D01*
X153680201Y-104848888D01*
X153739511Y-104951614D01*
X155748386Y-106960489D01*
X155851113Y-107019799D01*
X155875326Y-107026286D01*
X155920508Y-107038393D01*
X155965689Y-107050500D01*
X155965691Y-107050500D01*
X163009311Y-107050500D01*
X163039430Y-107042428D01*
X163099673Y-107026286D01*
X163123887Y-107019799D01*
X163226614Y-106960489D01*
X163510490Y-106676614D01*
X163569799Y-106573887D01*
X163600498Y-106459312D01*
X163600499Y-106459312D01*
X163600499Y-106340688D01*
X163600498Y-106340687D01*
X163569800Y-106226116D01*
X163569799Y-106226115D01*
X163569799Y-106226113D01*
X163517281Y-106135148D01*
X163510494Y-106123392D01*
X163510491Y-106123389D01*
X163510490Y-106123386D01*
X163426614Y-106039510D01*
X163426611Y-106039508D01*
X163426607Y-106039505D01*
X163355319Y-105998348D01*
X163323887Y-105980201D01*
X163323885Y-105980200D01*
X163323883Y-105980199D01*
X163209312Y-105949501D01*
X163209309Y-105949501D01*
X163090691Y-105949501D01*
X163090688Y-105949501D01*
X162976116Y-105980199D01*
X162976111Y-105980202D01*
X162873392Y-106039505D01*
X162873383Y-106039512D01*
X162777748Y-106135148D01*
X162743100Y-106149500D01*
X156231899Y-106149500D01*
X156197251Y-106135148D01*
X154564852Y-104502749D01*
X154550500Y-104468101D01*
X154550500Y-96106899D01*
X154564852Y-96072251D01*
X155210797Y-95426306D01*
X155906239Y-94730863D01*
X155940886Y-94716512D01*
X155975534Y-94730864D01*
X155989886Y-94765512D01*
X155989283Y-94773173D01*
X155969196Y-94900000D01*
X155990281Y-95033126D01*
X155990281Y-95033127D01*
X155990282Y-95033128D01*
X156051467Y-95153213D01*
X156051472Y-95153220D01*
X156146779Y-95248527D01*
X156146786Y-95248532D01*
X156226842Y-95289322D01*
X156266874Y-95309719D01*
X156400000Y-95330804D01*
X156533126Y-95309719D01*
X156616420Y-95267278D01*
X156653213Y-95248532D01*
X156653215Y-95248530D01*
X156653220Y-95248528D01*
X156748528Y-95153220D01*
X156809719Y-95033126D01*
X156830804Y-94900000D01*
X156830804Y-94899999D01*
X160134015Y-94899999D01*
X160134016Y-94900000D01*
X160984722Y-94900000D01*
X160940667Y-94976306D01*
X160910000Y-95090756D01*
X160910000Y-95209244D01*
X160940667Y-95323694D01*
X160984722Y-95400000D01*
X160134015Y-95400000D01*
X160140778Y-95442708D01*
X160201580Y-95629834D01*
X160290900Y-95805137D01*
X160406559Y-95964326D01*
X160545673Y-96103440D01*
X160704862Y-96219099D01*
X160880165Y-96308419D01*
X161067290Y-96369220D01*
X161067293Y-96369221D01*
X161261624Y-96400000D01*
X162010000Y-96400000D01*
X162010000Y-95600000D01*
X162510000Y-95600000D01*
X162510000Y-96400000D01*
X163258376Y-96400000D01*
X163452706Y-96369221D01*
X163452709Y-96369220D01*
X163639834Y-96308419D01*
X163815137Y-96219099D01*
X163974326Y-96103440D01*
X164113440Y-95964326D01*
X164229099Y-95805137D01*
X164318419Y-95629834D01*
X164379221Y-95442708D01*
X164385985Y-95400000D01*
X163535278Y-95400000D01*
X163579333Y-95323694D01*
X163610000Y-95209244D01*
X163610000Y-95090756D01*
X163579333Y-94976306D01*
X163535278Y-94900000D01*
X164385984Y-94900000D01*
X164385984Y-94899999D01*
X166594015Y-94899999D01*
X166594016Y-94900000D01*
X167444722Y-94900000D01*
X167400667Y-94976306D01*
X167370000Y-95090756D01*
X167370000Y-95209244D01*
X167400667Y-95323694D01*
X167444722Y-95400000D01*
X166594015Y-95400000D01*
X166600778Y-95442708D01*
X166661580Y-95629834D01*
X166750900Y-95805137D01*
X166866559Y-95964326D01*
X167005673Y-96103440D01*
X167164862Y-96219099D01*
X167340165Y-96308419D01*
X167527290Y-96369220D01*
X167527293Y-96369221D01*
X167721624Y-96400000D01*
X167970000Y-96400000D01*
X167970000Y-95600000D01*
X168470000Y-95600000D01*
X168470000Y-96400000D01*
X168718376Y-96400000D01*
X168912706Y-96369221D01*
X168912709Y-96369220D01*
X169099834Y-96308419D01*
X169275137Y-96219099D01*
X169434326Y-96103440D01*
X169573440Y-95964326D01*
X169689099Y-95805137D01*
X169778419Y-95629834D01*
X169839221Y-95442708D01*
X169845985Y-95400000D01*
X168995278Y-95400000D01*
X169039333Y-95323694D01*
X169070000Y-95209244D01*
X169070000Y-95090756D01*
X169039333Y-94976306D01*
X168995278Y-94900000D01*
X169845984Y-94900000D01*
X169845984Y-94899999D01*
X169839221Y-94857291D01*
X169778419Y-94670165D01*
X169689099Y-94494862D01*
X169573440Y-94335673D01*
X169434326Y-94196559D01*
X169275137Y-94080900D01*
X169099834Y-93991580D01*
X168912709Y-93930779D01*
X168912706Y-93930778D01*
X168718376Y-93900000D01*
X168470000Y-93900000D01*
X168470000Y-94700000D01*
X167970000Y-94700000D01*
X167970000Y-93900000D01*
X167721624Y-93900000D01*
X167527293Y-93930778D01*
X167527290Y-93930779D01*
X167340165Y-93991580D01*
X167164862Y-94080900D01*
X167005673Y-94196559D01*
X166866559Y-94335673D01*
X166750900Y-94494862D01*
X166661580Y-94670165D01*
X166600778Y-94857291D01*
X166594015Y-94899999D01*
X164385984Y-94899999D01*
X164379221Y-94857291D01*
X164318419Y-94670165D01*
X164229099Y-94494862D01*
X164113440Y-94335673D01*
X163974326Y-94196559D01*
X163815137Y-94080900D01*
X163639834Y-93991580D01*
X163452709Y-93930779D01*
X163452706Y-93930778D01*
X163258376Y-93900000D01*
X162510000Y-93900000D01*
X162510000Y-94700000D01*
X162010000Y-94700000D01*
X162010000Y-93900000D01*
X161261624Y-93900000D01*
X161067293Y-93930778D01*
X161067290Y-93930779D01*
X160880165Y-93991580D01*
X160704862Y-94080900D01*
X160545673Y-94196559D01*
X160406559Y-94335673D01*
X160290900Y-94494862D01*
X160201580Y-94670165D01*
X160140778Y-94857291D01*
X160134015Y-94899999D01*
X156830804Y-94899999D01*
X156809719Y-94766874D01*
X156775645Y-94700000D01*
X156748532Y-94646786D01*
X156748527Y-94646779D01*
X156653220Y-94551472D01*
X156653213Y-94551467D01*
X156533128Y-94490282D01*
X156533127Y-94490281D01*
X156533126Y-94490281D01*
X156400000Y-94469196D01*
X156399999Y-94469196D01*
X156355499Y-94476244D01*
X156273176Y-94489282D01*
X156236711Y-94480528D01*
X156217115Y-94448551D01*
X156225870Y-94412085D01*
X156230858Y-94406244D01*
X156760489Y-93876614D01*
X159137104Y-91499999D01*
X160149015Y-91499999D01*
X160149016Y-91500000D01*
X160999722Y-91500000D01*
X160955667Y-91576306D01*
X160925000Y-91690756D01*
X160925000Y-91809244D01*
X160955667Y-91923694D01*
X160999722Y-92000000D01*
X160149015Y-92000000D01*
X160155778Y-92042708D01*
X160216580Y-92229834D01*
X160305900Y-92405137D01*
X160421559Y-92564326D01*
X160560673Y-92703440D01*
X160719862Y-92819099D01*
X160895165Y-92908419D01*
X161082290Y-92969220D01*
X161082293Y-92969221D01*
X161276624Y-93000000D01*
X162025000Y-93000000D01*
X162025000Y-92200000D01*
X162525000Y-92200000D01*
X162525000Y-93000000D01*
X163273376Y-93000000D01*
X163467706Y-92969221D01*
X163467709Y-92969220D01*
X163654834Y-92908419D01*
X163830137Y-92819099D01*
X163989326Y-92703440D01*
X164128440Y-92564326D01*
X164244099Y-92405137D01*
X164333419Y-92229834D01*
X164394221Y-92042708D01*
X164400985Y-92000000D01*
X163550278Y-92000000D01*
X163594333Y-91923694D01*
X163625000Y-91809244D01*
X163625000Y-91690756D01*
X163594333Y-91576306D01*
X163550278Y-91500000D01*
X164400984Y-91500000D01*
X164400984Y-91499999D01*
X166609015Y-91499999D01*
X166609016Y-91500000D01*
X167459722Y-91500000D01*
X167415667Y-91576306D01*
X167385000Y-91690756D01*
X167385000Y-91809244D01*
X167415667Y-91923694D01*
X167459722Y-92000000D01*
X166609015Y-92000000D01*
X166615778Y-92042708D01*
X166676580Y-92229834D01*
X166765900Y-92405137D01*
X166881559Y-92564326D01*
X167020673Y-92703440D01*
X167179862Y-92819099D01*
X167355165Y-92908419D01*
X167542290Y-92969220D01*
X167542293Y-92969221D01*
X167736624Y-93000000D01*
X167985000Y-93000000D01*
X167985000Y-92200000D01*
X168485000Y-92200000D01*
X168485000Y-93000000D01*
X168733376Y-93000000D01*
X168927706Y-92969221D01*
X168927709Y-92969220D01*
X169114834Y-92908419D01*
X169290137Y-92819099D01*
X169449326Y-92703440D01*
X169588440Y-92564326D01*
X169704099Y-92405137D01*
X169793419Y-92229834D01*
X169854221Y-92042708D01*
X169860985Y-92000000D01*
X169010278Y-92000000D01*
X169054333Y-91923694D01*
X169085000Y-91809244D01*
X169085000Y-91690756D01*
X169054333Y-91576306D01*
X169010278Y-91500000D01*
X169860984Y-91500000D01*
X169860984Y-91499999D01*
X169854221Y-91457291D01*
X169793419Y-91270165D01*
X169704099Y-91094862D01*
X169588440Y-90935673D01*
X169449326Y-90796559D01*
X169290137Y-90680900D01*
X169114834Y-90591580D01*
X168927709Y-90530779D01*
X168927706Y-90530778D01*
X168733376Y-90500000D01*
X168485000Y-90500000D01*
X168485000Y-91300000D01*
X167985000Y-91300000D01*
X167985000Y-90500000D01*
X167736624Y-90500000D01*
X167542293Y-90530778D01*
X167542290Y-90530779D01*
X167355165Y-90591580D01*
X167179862Y-90680900D01*
X167020673Y-90796559D01*
X166881559Y-90935673D01*
X166765900Y-91094862D01*
X166676580Y-91270165D01*
X166615778Y-91457291D01*
X166609015Y-91499999D01*
X164400984Y-91499999D01*
X164394221Y-91457291D01*
X164333419Y-91270165D01*
X164244099Y-91094862D01*
X164128440Y-90935673D01*
X163989326Y-90796559D01*
X163830137Y-90680900D01*
X163654834Y-90591580D01*
X163467709Y-90530779D01*
X163467706Y-90530778D01*
X163273376Y-90500000D01*
X162525000Y-90500000D01*
X162525000Y-91300000D01*
X162025000Y-91300000D01*
X162025000Y-90500000D01*
X161276624Y-90500000D01*
X161082293Y-90530778D01*
X161082290Y-90530779D01*
X160895165Y-90591580D01*
X160719862Y-90680900D01*
X160560673Y-90796559D01*
X160421559Y-90935673D01*
X160305900Y-91094862D01*
X160216580Y-91270165D01*
X160155778Y-91457291D01*
X160149015Y-91499999D01*
X159137104Y-91499999D01*
X161672251Y-88964852D01*
X161706899Y-88950500D01*
X163209311Y-88950500D01*
X163266597Y-88935149D01*
X163323886Y-88919799D01*
X163426613Y-88860489D01*
X163510489Y-88776613D01*
X163569799Y-88673886D01*
X163585149Y-88616597D01*
X163600500Y-88559311D01*
X163600500Y-88440688D01*
X163569799Y-88326115D01*
X163569798Y-88326112D01*
X163510488Y-88223386D01*
X163426613Y-88139511D01*
X163323887Y-88080201D01*
X163323884Y-88080200D01*
X163209312Y-88049500D01*
X163209309Y-88049500D01*
X161440691Y-88049500D01*
X161440688Y-88049500D01*
X161350326Y-88073713D01*
X161326115Y-88080199D01*
X161326110Y-88080201D01*
X161223385Y-88139511D01*
X161223385Y-88139512D01*
X153739512Y-95623385D01*
X153739511Y-95623385D01*
X153680201Y-95726111D01*
X153678532Y-95732343D01*
X153678531Y-95732342D01*
X153678531Y-95732346D01*
X153649500Y-95840688D01*
X143500000Y-95840688D01*
X143500000Y-79000335D01*
X143500004Y-78999694D01*
X143502020Y-78845534D01*
X144249500Y-78845534D01*
X144249500Y-79154465D01*
X144284088Y-79461442D01*
X144284088Y-79461447D01*
X144352831Y-79762633D01*
X144454866Y-80054233D01*
X144454869Y-80054239D01*
X144588898Y-80332552D01*
X144588903Y-80332562D01*
X144753263Y-80594141D01*
X144945873Y-80835666D01*
X144945884Y-80835678D01*
X145164321Y-81054115D01*
X145164333Y-81054126D01*
X145405858Y-81246736D01*
X145667437Y-81411096D01*
X145667447Y-81411101D01*
X145945760Y-81545130D01*
X145945766Y-81545133D01*
X145945769Y-81545134D01*
X145945771Y-81545135D01*
X146237364Y-81647168D01*
X146538548Y-81715911D01*
X146801679Y-81745558D01*
X146845534Y-81750500D01*
X146845535Y-81750500D01*
X147154466Y-81750500D01*
X147182372Y-81747355D01*
X147461452Y-81715911D01*
X147762636Y-81647168D01*
X148054229Y-81545135D01*
X148332565Y-81411095D01*
X148594143Y-81246735D01*
X148835674Y-81054120D01*
X149054120Y-80835674D01*
X149246735Y-80594143D01*
X149411095Y-80332565D01*
X149545135Y-80054229D01*
X149647168Y-79762636D01*
X149715911Y-79461452D01*
X149750500Y-79154465D01*
X149750500Y-78845535D01*
X149715911Y-78538548D01*
X149647168Y-78237364D01*
X149545135Y-77945771D01*
X149449545Y-77747278D01*
X149411101Y-77667447D01*
X149411096Y-77667437D01*
X149246736Y-77405858D01*
X149054126Y-77164333D01*
X149054115Y-77164321D01*
X148889793Y-76999999D01*
X160149015Y-76999999D01*
X160149016Y-77000000D01*
X160999722Y-77000000D01*
X160955667Y-77076306D01*
X160925000Y-77190756D01*
X160925000Y-77309244D01*
X160955667Y-77423694D01*
X160999722Y-77500000D01*
X160149015Y-77500000D01*
X160155778Y-77542708D01*
X160216580Y-77729834D01*
X160305900Y-77905137D01*
X160421559Y-78064326D01*
X160560673Y-78203440D01*
X160719862Y-78319099D01*
X160895165Y-78408419D01*
X161082290Y-78469220D01*
X161082293Y-78469221D01*
X161276624Y-78500000D01*
X162025000Y-78500000D01*
X162025000Y-77700000D01*
X162525000Y-77700000D01*
X162525000Y-78500000D01*
X163273376Y-78500000D01*
X163467706Y-78469221D01*
X163467709Y-78469220D01*
X163654834Y-78408419D01*
X163830137Y-78319099D01*
X163989326Y-78203440D01*
X164128440Y-78064326D01*
X164244099Y-77905137D01*
X164333419Y-77729834D01*
X164394221Y-77542708D01*
X164400985Y-77500000D01*
X163550278Y-77500000D01*
X163594333Y-77423694D01*
X163625000Y-77309244D01*
X163625000Y-77190756D01*
X163594333Y-77076306D01*
X163550278Y-77000000D01*
X164400984Y-77000000D01*
X164400984Y-76999999D01*
X164394221Y-76957291D01*
X164333419Y-76770165D01*
X164244099Y-76594862D01*
X164128440Y-76435673D01*
X163989326Y-76296559D01*
X163830137Y-76180900D01*
X163654834Y-76091580D01*
X163467709Y-76030779D01*
X163467706Y-76030778D01*
X163273376Y-76000000D01*
X162525000Y-76000000D01*
X162525000Y-76800000D01*
X162025000Y-76800000D01*
X162025000Y-76000000D01*
X161276624Y-76000000D01*
X161082293Y-76030778D01*
X161082290Y-76030779D01*
X160895165Y-76091580D01*
X160719862Y-76180900D01*
X160560673Y-76296559D01*
X160421559Y-76435673D01*
X160305900Y-76594862D01*
X160216580Y-76770165D01*
X160155778Y-76957291D01*
X160149015Y-76999999D01*
X148889793Y-76999999D01*
X148835678Y-76945884D01*
X148835666Y-76945873D01*
X148594141Y-76753263D01*
X148332562Y-76588903D01*
X148332552Y-76588898D01*
X148054239Y-76454869D01*
X148054233Y-76454866D01*
X147762633Y-76352831D01*
X147762634Y-76352831D01*
X147619189Y-76320091D01*
X147461452Y-76284089D01*
X147461446Y-76284088D01*
X147461445Y-76284088D01*
X147154466Y-76249500D01*
X147154465Y-76249500D01*
X146845535Y-76249500D01*
X146845534Y-76249500D01*
X146538557Y-76284088D01*
X146538552Y-76284088D01*
X146237366Y-76352831D01*
X145945766Y-76454866D01*
X145945760Y-76454869D01*
X145667447Y-76588898D01*
X145667437Y-76588903D01*
X145405858Y-76753263D01*
X145164333Y-76945873D01*
X145164321Y-76945884D01*
X144945884Y-77164321D01*
X144945873Y-77164333D01*
X144753263Y-77405858D01*
X144588903Y-77667437D01*
X144588898Y-77667447D01*
X144454869Y-77945760D01*
X144454866Y-77945766D01*
X144352831Y-78237366D01*
X144284088Y-78538552D01*
X144284088Y-78538557D01*
X144249500Y-78845534D01*
X143502020Y-78845534D01*
X143502368Y-78818934D01*
X143502631Y-78814478D01*
X143540451Y-78454648D01*
X143541254Y-78449586D01*
X143616407Y-78096019D01*
X143617732Y-78091073D01*
X143626423Y-78064326D01*
X143729438Y-77747278D01*
X143731265Y-77742520D01*
X143878296Y-77412280D01*
X143880623Y-77407715D01*
X143881695Y-77405858D01*
X144061362Y-77094665D01*
X144064132Y-77090399D01*
X144276627Y-76797924D01*
X144279835Y-76793965D01*
X144521719Y-76525325D01*
X144525325Y-76521719D01*
X144793965Y-76279835D01*
X144797924Y-76276627D01*
X145090399Y-76064132D01*
X145094665Y-76061362D01*
X145407719Y-75880620D01*
X145412280Y-75878296D01*
X145742520Y-75731265D01*
X145747278Y-75729438D01*
X146091081Y-75617729D01*
X146096019Y-75616407D01*
X146449590Y-75541253D01*
X146454648Y-75540451D01*
X146814478Y-75502631D01*
X146818934Y-75502368D01*
X146999694Y-75500003D01*
X147000335Y-75500000D01*
X166999665Y-75500000D01*
X167000305Y-75500003D01*
G37*
G04 #@! TD.AperFunction*
G04 #@! TD*
M02*
