G04 #@! TF.GenerationSoftware,KiCad,Pcbnew,8.0.4*
G04 #@! TF.CreationDate,2025-01-13T22:16:17-08:00*
G04 #@! TF.ProjectId,CSI_HDMI_Passthrough_receiver_noRetimer,4353495f-4844-44d4-995f-506173737468,rev?*
G04 #@! TF.SameCoordinates,Original*
G04 #@! TF.FileFunction,Paste,Top*
G04 #@! TF.FilePolarity,Positive*
%FSLAX46Y46*%
G04 Gerber Fmt 4.6, Leading zero omitted, Abs format (unit mm)*
G04 Created by KiCad (PCBNEW 8.0.4) date 2025-01-13 22:16:17*
%MOMM*%
%LPD*%
G01*
G04 APERTURE LIST*
%ADD10R,2.600000X0.300000*%
%ADD11R,1.800000X0.300000*%
G04 APERTURE END LIST*
D10*
G04 #@! TO.C,J4*
X161515000Y-80000000D03*
X161515000Y-80500000D03*
X161515000Y-81000000D03*
X161515000Y-81500000D03*
X161515000Y-82000000D03*
X161515000Y-82500000D03*
X161515000Y-83000000D03*
X161515000Y-83500000D03*
X161515000Y-84000000D03*
X161515000Y-84500000D03*
X161515000Y-85000000D03*
X161515000Y-85500000D03*
X161515000Y-86000000D03*
X161515000Y-86500000D03*
X161515000Y-87000000D03*
X161515000Y-87500000D03*
X161515000Y-88000000D03*
X161515000Y-88500000D03*
X161515000Y-89000000D03*
G04 #@! TD*
D11*
G04 #@! TO.C,J1*
X152350000Y-117850000D03*
X155050000Y-118350000D03*
X152350000Y-118850000D03*
X155050000Y-119350000D03*
X152350000Y-119850000D03*
X155050000Y-120350000D03*
X152350000Y-120850000D03*
X155050000Y-121350000D03*
X152350000Y-121850000D03*
X155050000Y-122350000D03*
X152350000Y-122850000D03*
X155050000Y-123350000D03*
X152350000Y-123850000D03*
X155050000Y-124350000D03*
X152350000Y-124850000D03*
X155050000Y-125350000D03*
X152350000Y-125850000D03*
X155050000Y-126350000D03*
X152350000Y-126850000D03*
X155050000Y-127350000D03*
X152350000Y-127850000D03*
X155050000Y-128350000D03*
X152350000Y-129350000D03*
X155050000Y-129350000D03*
X152350000Y-116850000D03*
X155050000Y-116850000D03*
G04 #@! TD*
D10*
G04 #@! TO.C,J2*
X161500000Y-97900000D03*
X161500000Y-98400000D03*
X161500000Y-98900000D03*
X161500000Y-99400000D03*
X161500000Y-99900000D03*
X161500000Y-100400000D03*
X161500000Y-100900000D03*
X161500000Y-101400000D03*
X161500000Y-101900000D03*
X161500000Y-102400000D03*
X161500000Y-102900000D03*
X161500000Y-103400000D03*
X161500000Y-103900000D03*
X161500000Y-104400000D03*
X161500000Y-104900000D03*
X161500000Y-105400000D03*
X161500000Y-105900000D03*
X161500000Y-106400000D03*
X161500000Y-106900000D03*
G04 #@! TD*
D11*
G04 #@! TO.C,J3*
X161950000Y-117850000D03*
X164650000Y-118350000D03*
X161950000Y-118850000D03*
X164650000Y-119350000D03*
X161950000Y-119850000D03*
X164650000Y-120350000D03*
X161950000Y-120850000D03*
X164650000Y-121350000D03*
X161950000Y-121850000D03*
X164650000Y-122350000D03*
X161950000Y-122850000D03*
X164650000Y-123350000D03*
X161950000Y-123850000D03*
X164650000Y-124350000D03*
X161950000Y-124850000D03*
X164650000Y-125350000D03*
X161950000Y-125850000D03*
X164650000Y-126350000D03*
X161950000Y-126850000D03*
X164650000Y-127350000D03*
X161950000Y-127850000D03*
X164650000Y-128350000D03*
X161950000Y-129350000D03*
X164650000Y-129350000D03*
X161950000Y-116850000D03*
X164650000Y-116850000D03*
G04 #@! TD*
G04 #@! TO.C,J5*
G36*
G01*
X149450001Y-95050000D02*
X151949999Y-95050000D01*
G75*
G02*
X152200000Y-95300001I0J-250001D01*
G01*
X152200000Y-96899999D01*
G75*
G02*
X151949999Y-97150000I-250001J0D01*
G01*
X149450001Y-97150000D01*
G75*
G02*
X149200000Y-96899999I0J250001D01*
G01*
X149200000Y-95300001D01*
G75*
G02*
X149450001Y-95050000I250001J0D01*
G01*
G37*
G36*
G01*
X149450001Y-88700000D02*
X151949999Y-88700000D01*
G75*
G02*
X152200000Y-88950001I0J-250001D01*
G01*
X152200000Y-90549999D01*
G75*
G02*
X151949999Y-90800000I-250001J0D01*
G01*
X149450001Y-90800000D01*
G75*
G02*
X149200000Y-90549999I0J250001D01*
G01*
X149200000Y-88950001D01*
G75*
G02*
X149450001Y-88700000I250001J0D01*
G01*
G37*
G36*
G01*
X153000000Y-93150000D02*
X154200000Y-93150000D01*
G75*
G02*
X154400000Y-93350000I0J-200000D01*
G01*
X154400000Y-93750000D01*
G75*
G02*
X154200000Y-93950000I-200000J0D01*
G01*
X153000000Y-93950000D01*
G75*
G02*
X152800000Y-93750000I0J200000D01*
G01*
X152800000Y-93350000D01*
G75*
G02*
X153000000Y-93150000I200000J0D01*
G01*
G37*
G36*
G01*
X153000000Y-91900000D02*
X154200000Y-91900000D01*
G75*
G02*
X154400000Y-92100000I0J-200000D01*
G01*
X154400000Y-92500000D01*
G75*
G02*
X154200000Y-92700000I-200000J0D01*
G01*
X153000000Y-92700000D01*
G75*
G02*
X152800000Y-92500000I0J200000D01*
G01*
X152800000Y-92100000D01*
G75*
G02*
X153000000Y-91900000I200000J0D01*
G01*
G37*
G04 #@! TD*
M02*
