M48
; DRILL file {KiCad 8.0.4} date 2025-01-13T22:16:18-0800
; FORMAT={-:-/ absolute / inch / decimal}
; #@! TF.CreationDate,2025-01-13T22:16:18-08:00
; #@! TF.GenerationSoftware,Kicad,Pcbnew,8.0.4
; #@! TF.FileFunction,Plated,1,4,PTH
FMAT,2
INCH
; #@! TA.AperFunction,Plated,PTH,ViaDrill
T1C0.0079
; #@! TA.AperFunction,Plated,PTH,ViaDrill
T2C0.0118
; #@! TA.AperFunction,Plated,PTH,ComponentDrill
T3C0.0354
%
G90
G05
T1
X6.1575Y-3.685
X6.1575Y-3.7362
T2
X5.998Y-3.6831
X5.998Y-4.5827
X5.998Y-5.1122
X6.0413Y-4.9783
X6.0472Y-3.7165
X6.0492Y-4.628
X6.0551Y-4.935
X6.0571Y-4.6988
X6.0571Y-4.7579
X6.0571Y-4.8169
X6.0571Y-5.0531
X6.0945Y-3.6831
X6.1043Y-4.5827
X6.1043Y-5.1122
X6.1496Y-5.0531
X6.1673Y-4.626
X6.1673Y-4.6594
X6.1673Y-4.6988
X6.1673Y-4.7579
X6.1673Y-4.8169
X6.1673Y-4.876
X6.1673Y-4.935
X6.2913Y-3.4646
X6.2953Y-3.1693
X6.2953Y-3.2283
X6.2953Y-3.2874
X6.2953Y-3.3465
X6.2953Y-3.874
X6.2953Y-3.9331
X6.2953Y-3.9921
X6.2953Y-4.0512
X6.2953Y-4.1693
X6.3287Y-4.9941
X6.376Y-4.5807
X6.4232Y-3.4843
X6.4232Y-4.189
X6.4252Y-3.1693
X6.4252Y-3.2283
X6.4252Y-3.2874
X6.4252Y-3.3465
X6.4252Y-3.874
X6.4252Y-3.9331
X6.4252Y-3.9921
X6.4252Y-4.0512
X6.4272Y-4.624
X6.4272Y-4.9744
X6.4331Y-4.935
X6.4331Y-5.0531
X6.435Y-4.6988
X6.435Y-4.8169
X6.435Y-4.876
X6.4488Y-3.4685
X6.4488Y-4.1772
X6.4823Y-4.5807
X6.5315Y-5.0531
X6.5492Y-4.626
X6.5492Y-4.6594
X6.5492Y-4.6988
X6.5492Y-4.7579
X6.5492Y-4.8169
X6.5492Y-4.876
X6.5492Y-4.935
T3
G00X6.3528Y-3.7461
M15
G01X6.4236Y-3.7461
M16
G05
G00X6.3528Y-4.3169
M15
G01X6.4236Y-4.3169
M16
G05
G00X6.3533Y-3.0413
M15
G01X6.4242Y-3.0413
M16
G05
G00X6.3533Y-3.6122
M15
G01X6.4242Y-3.6122
M16
G05
G00X6.6071Y-3.7461
M15
G01X6.6386Y-3.7461
M16
G05
G00X6.6071Y-4.3169
M15
G01X6.6386Y-4.3169
M16
G05
G00X6.6077Y-3.0413
M15
G01X6.6392Y-3.0413
M16
G05
G00X6.6077Y-3.6122
M15
G01X6.6392Y-3.6122
M16
G05
M30
