G04 #@! TF.GenerationSoftware,KiCad,Pcbnew,8.0.4*
G04 #@! TF.CreationDate,2025-01-15T23:08:54-08:00*
G04 #@! TF.ProjectId,MIPItoHDMI_Buffered,4d495049-746f-4484-944d-495f42756666,rev?*
G04 #@! TF.SameCoordinates,Original*
G04 #@! TF.FileFunction,Copper,L2,Bot*
G04 #@! TF.FilePolarity,Positive*
%FSLAX46Y46*%
G04 Gerber Fmt 4.6, Leading zero omitted, Abs format (unit mm)*
G04 Created by KiCad (PCBNEW 8.0.4) date 2025-01-15 23:08:54*
%MOMM*%
%LPD*%
G01*
G04 APERTURE LIST*
G04 #@! TA.AperFunction,ComponentPad*
%ADD10O,3.300000X1.500000*%
G04 #@! TD*
G04 #@! TA.AperFunction,ComponentPad*
%ADD11O,2.300000X1.500000*%
G04 #@! TD*
G04 #@! TA.AperFunction,ViaPad*
%ADD12C,0.450000*%
G04 #@! TD*
G04 #@! TA.AperFunction,Conductor*
%ADD13C,0.600000*%
G04 #@! TD*
G04 #@! TA.AperFunction,Conductor*
%ADD14C,0.250000*%
G04 #@! TD*
G04 APERTURE END LIST*
D10*
G04 #@! TO.P,J2,SH,SH*
G04 #@! TO.N,GND*
X9625000Y-26750000D03*
X9625000Y-12250000D03*
D11*
X3665000Y-26750000D03*
X3665000Y-12250000D03*
G04 #@! TD*
D12*
G04 #@! TO.N,GND*
X22200000Y-12350000D03*
X18900000Y-12350000D03*
G04 #@! TO.N,VDD*
X10750000Y-6425000D03*
G04 #@! TO.N,GND*
X21400000Y-8200000D03*
X19250000Y-8200000D03*
X29600000Y-31700000D03*
X30800000Y-30850000D03*
G04 #@! TO.N,VDD*
X29250000Y-32950000D03*
X22900000Y-9800000D03*
X8300000Y-15100000D03*
X15650000Y-5550000D03*
X15650000Y-4800000D03*
X16350000Y-5550000D03*
X16350000Y-4800000D03*
G04 #@! TO.N,GND*
X30700000Y-4400000D03*
X8250000Y-32500000D03*
X16200000Y-7800000D03*
X18350000Y-18750000D03*
X20300000Y-4450000D03*
X20300000Y-6300000D03*
X11900000Y-16000000D03*
X8615000Y-20500000D03*
X10400000Y-4200000D03*
X11250000Y-4200000D03*
X8200000Y-15900000D03*
X19750000Y-2000000D03*
X18350000Y-21750000D03*
X8615000Y-23500000D03*
X18350000Y-15750000D03*
X18500000Y-2750000D03*
X21800000Y-32400000D03*
X21100000Y-30500000D03*
X31900000Y-5200000D03*
X18350000Y-20250000D03*
X12100000Y-31000000D03*
X18350000Y-23250000D03*
X17850000Y-2100000D03*
X18850000Y-2000000D03*
X16300000Y-2800000D03*
X22000000Y-26700000D03*
X20300000Y-8200000D03*
X16400000Y-26600000D03*
X19000000Y-26700000D03*
X17300000Y-33600000D03*
X13800000Y-26750000D03*
X16100000Y-23100000D03*
X18500000Y-3950000D03*
X17950000Y-32450000D03*
X22800000Y-8450000D03*
X16200000Y-6800000D03*
X16950000Y-2100000D03*
X8615000Y-19000000D03*
X29600000Y-5200000D03*
X18350000Y-17250000D03*
X18350000Y-14250000D03*
X16300000Y-3900000D03*
X8615000Y-22000000D03*
X7600000Y-33600000D03*
G04 #@! TO.N,SCL_3V3*
X16400000Y-27250000D03*
X15200000Y-27250000D03*
X11250000Y-29500000D03*
X11250000Y-30900000D03*
G04 #@! TD*
D13*
G04 #@! TO.N,VDD*
X12000000Y-5200000D02*
X16000000Y-5200000D01*
X6600000Y-13400000D02*
X6600000Y-10600000D01*
X6600000Y-10600000D02*
X12000000Y-5200000D01*
X8300000Y-15100000D02*
X6600000Y-13400000D01*
X27550000Y-31250000D02*
X29250000Y-32950000D01*
X27550000Y-11700000D02*
X27550000Y-31250000D01*
X22900000Y-9800000D02*
X25650000Y-9800000D01*
X17600000Y-8700000D02*
X18700000Y-9800000D01*
X18700000Y-9800000D02*
X22900000Y-9800000D01*
X17600000Y-6800000D02*
X17600000Y-8700000D01*
X25650000Y-9800000D02*
X27550000Y-11700000D01*
X16350000Y-5550000D02*
X17600000Y-6800000D01*
D14*
G04 #@! TO.N,SCL_3V3*
X16400000Y-27250000D02*
X15200000Y-27250000D01*
X11250000Y-29500000D02*
X11250000Y-30900000D01*
G04 #@! TD*
G04 #@! TA.AperFunction,Conductor*
G04 #@! TO.N,GND*
G36*
X35819974Y-14352D02*
G01*
X35834326Y-49000D01*
X35819974Y-83648D01*
X35801510Y-95249D01*
X35738673Y-117237D01*
X35541587Y-186200D01*
X35541581Y-186203D01*
X35288557Y-308053D01*
X35288553Y-308055D01*
X35050755Y-457474D01*
X34831182Y-632577D01*
X34831170Y-632588D01*
X34632588Y-831170D01*
X34632577Y-831182D01*
X34457474Y-1050755D01*
X34308055Y-1288553D01*
X34308053Y-1288557D01*
X34186203Y-1541581D01*
X34186200Y-1541587D01*
X34093439Y-1806684D01*
X34030944Y-2080495D01*
X34030944Y-2080499D01*
X33999500Y-2359574D01*
X33999500Y-2640425D01*
X34030944Y-2919500D01*
X34030944Y-2919504D01*
X34093439Y-3193315D01*
X34186200Y-3458412D01*
X34186203Y-3458418D01*
X34308053Y-3711442D01*
X34308055Y-3711446D01*
X34457474Y-3949244D01*
X34632577Y-4168817D01*
X34632588Y-4168829D01*
X34831170Y-4367411D01*
X34831182Y-4367422D01*
X34896169Y-4419247D01*
X35033550Y-4528805D01*
X35050755Y-4542525D01*
X35288553Y-4691944D01*
X35288557Y-4691946D01*
X35541581Y-4813796D01*
X35541587Y-4813799D01*
X35541590Y-4813800D01*
X35541592Y-4813801D01*
X35806682Y-4906560D01*
X36080491Y-4969055D01*
X36319705Y-4996007D01*
X36359574Y-5000500D01*
X36359575Y-5000500D01*
X36640426Y-5000500D01*
X36668333Y-4997355D01*
X36919509Y-4969055D01*
X37193318Y-4906560D01*
X37458408Y-4813801D01*
X37711445Y-4691945D01*
X37949248Y-4542523D01*
X38168825Y-4367416D01*
X38367416Y-4168825D01*
X38542523Y-3949248D01*
X38691945Y-3711445D01*
X38813801Y-3458408D01*
X38904750Y-3198489D01*
X38929740Y-3170527D01*
X38967184Y-3168424D01*
X38995147Y-3193414D01*
X39000000Y-3214674D01*
X39000000Y-10399412D01*
X38999985Y-10400612D01*
X38997696Y-10494035D01*
X38996769Y-10502394D01*
X38960198Y-10686250D01*
X38957410Y-10695443D01*
X38885901Y-10868079D01*
X38881373Y-10876550D01*
X38777561Y-11031916D01*
X38771467Y-11039341D01*
X38639341Y-11171467D01*
X38631916Y-11177561D01*
X38476550Y-11281373D01*
X38468079Y-11285901D01*
X38295443Y-11357410D01*
X38286250Y-11360198D01*
X38102394Y-11396769D01*
X38094035Y-11397696D01*
X38000612Y-11399985D01*
X37999412Y-11400000D01*
X33499988Y-11400000D01*
X33401759Y-11402406D01*
X33401751Y-11402406D01*
X33401746Y-11402407D01*
X33292044Y-11424228D01*
X33209015Y-11440743D01*
X33209009Y-11440745D01*
X33027466Y-11515943D01*
X32864072Y-11625118D01*
X32725118Y-11764072D01*
X32615943Y-11927466D01*
X32540745Y-12109009D01*
X32540743Y-12109015D01*
X32524228Y-12192044D01*
X32502407Y-12301746D01*
X32502407Y-12301750D01*
X32502406Y-12301759D01*
X32500000Y-12399987D01*
X32500000Y-33000012D01*
X32502406Y-33098240D01*
X32502406Y-33098247D01*
X32502407Y-33098254D01*
X32540744Y-33290987D01*
X32615945Y-33472537D01*
X32725119Y-33635928D01*
X32864072Y-33774881D01*
X33027463Y-33884055D01*
X33209013Y-33959256D01*
X33401746Y-33997593D01*
X33452838Y-33998844D01*
X33499988Y-34000000D01*
X33500000Y-34000000D01*
X35785326Y-34000000D01*
X35819974Y-34014352D01*
X35834326Y-34049000D01*
X35819974Y-34083648D01*
X35801510Y-34095249D01*
X35738673Y-34117237D01*
X35541587Y-34186200D01*
X35541581Y-34186203D01*
X35288557Y-34308053D01*
X35288553Y-34308055D01*
X35050755Y-34457474D01*
X34831182Y-34632577D01*
X34831170Y-34632588D01*
X34632588Y-34831170D01*
X34632577Y-34831182D01*
X34457474Y-35050755D01*
X34308055Y-35288553D01*
X34308053Y-35288557D01*
X34186203Y-35541581D01*
X34186200Y-35541587D01*
X34093439Y-35806684D01*
X34030944Y-36080495D01*
X34030944Y-36080499D01*
X33999500Y-36359574D01*
X33999500Y-36640425D01*
X34030944Y-36919500D01*
X34030944Y-36919504D01*
X34093439Y-37193315D01*
X34186200Y-37458412D01*
X34186203Y-37458418D01*
X34308053Y-37711442D01*
X34308055Y-37711446D01*
X34457474Y-37949244D01*
X34632577Y-38168817D01*
X34632588Y-38168829D01*
X34831170Y-38367411D01*
X34831182Y-38367422D01*
X35050755Y-38542525D01*
X35288553Y-38691944D01*
X35288557Y-38691946D01*
X35541581Y-38813796D01*
X35541587Y-38813799D01*
X35541590Y-38813800D01*
X35541592Y-38813801D01*
X35801510Y-38904750D01*
X35829473Y-38929740D01*
X35831576Y-38967184D01*
X35806586Y-38995147D01*
X35785326Y-39000000D01*
X3214674Y-39000000D01*
X3180026Y-38985648D01*
X3165674Y-38951000D01*
X3180026Y-38916352D01*
X3198489Y-38904750D01*
X3458408Y-38813801D01*
X3711445Y-38691945D01*
X3949248Y-38542523D01*
X4168825Y-38367416D01*
X4367416Y-38168825D01*
X4542523Y-37949248D01*
X4691945Y-37711445D01*
X4813801Y-37458408D01*
X4906560Y-37193318D01*
X4969055Y-36919509D01*
X5000500Y-36640425D01*
X5000500Y-36359575D01*
X4969055Y-36080491D01*
X4906560Y-35806682D01*
X4813801Y-35541592D01*
X4691945Y-35288555D01*
X4542523Y-35050752D01*
X4367416Y-34831175D01*
X4168825Y-34632584D01*
X4168822Y-34632581D01*
X4168817Y-34632577D01*
X3949244Y-34457474D01*
X3711446Y-34308055D01*
X3711442Y-34308053D01*
X3458418Y-34186203D01*
X3458412Y-34186200D01*
X3193315Y-34093439D01*
X3193316Y-34093439D01*
X3062909Y-34063675D01*
X2919509Y-34030945D01*
X2919503Y-34030944D01*
X2919502Y-34030944D01*
X2640426Y-33999500D01*
X2640425Y-33999500D01*
X2359575Y-33999500D01*
X2359574Y-33999500D01*
X2080499Y-34030944D01*
X2080495Y-34030944D01*
X1806684Y-34093439D01*
X1541587Y-34186200D01*
X1541581Y-34186203D01*
X1288557Y-34308053D01*
X1288553Y-34308055D01*
X1050755Y-34457474D01*
X831182Y-34632577D01*
X831170Y-34632588D01*
X632588Y-34831170D01*
X632577Y-34831182D01*
X457474Y-35050755D01*
X308055Y-35288553D01*
X308053Y-35288557D01*
X186203Y-35541581D01*
X186200Y-35541587D01*
X95250Y-35801509D01*
X70260Y-35829472D01*
X32816Y-35831575D01*
X4853Y-35806585D01*
X0Y-35785325D01*
X0Y-29500000D01*
X10819196Y-29500000D01*
X10840281Y-29633126D01*
X10840281Y-29633127D01*
X10840282Y-29633128D01*
X10901467Y-29753213D01*
X10901472Y-29753220D01*
X10910148Y-29761896D01*
X10924500Y-29796544D01*
X10924500Y-30603456D01*
X10910148Y-30638104D01*
X10901472Y-30646779D01*
X10901467Y-30646786D01*
X10840282Y-30766871D01*
X10840281Y-30766872D01*
X10840281Y-30766874D01*
X10819196Y-30900000D01*
X10840281Y-31033126D01*
X10840281Y-31033127D01*
X10840282Y-31033128D01*
X10901467Y-31153213D01*
X10901472Y-31153220D01*
X10996779Y-31248527D01*
X10996786Y-31248532D01*
X11076842Y-31289322D01*
X11116874Y-31309719D01*
X11250000Y-31330804D01*
X11383126Y-31309719D01*
X11466420Y-31267278D01*
X11503213Y-31248532D01*
X11503215Y-31248530D01*
X11503220Y-31248528D01*
X11598528Y-31153220D01*
X11659719Y-31033126D01*
X11680804Y-30900000D01*
X11659719Y-30766874D01*
X11639322Y-30726842D01*
X11598532Y-30646786D01*
X11598527Y-30646779D01*
X11589852Y-30638104D01*
X11575500Y-30603456D01*
X11575500Y-29796544D01*
X11589852Y-29761896D01*
X11598528Y-29753220D01*
X11659719Y-29633126D01*
X11680804Y-29500000D01*
X11659719Y-29366874D01*
X11639322Y-29326842D01*
X11598532Y-29246786D01*
X11598527Y-29246779D01*
X11503220Y-29151472D01*
X11503213Y-29151467D01*
X11383128Y-29090282D01*
X11383127Y-29090281D01*
X11383126Y-29090281D01*
X11250000Y-29069196D01*
X11116874Y-29090281D01*
X11116872Y-29090281D01*
X11116871Y-29090282D01*
X10996786Y-29151467D01*
X10996779Y-29151472D01*
X10901472Y-29246779D01*
X10901467Y-29246786D01*
X10840282Y-29366871D01*
X10840281Y-29366872D01*
X10840281Y-29366874D01*
X10819196Y-29500000D01*
X0Y-29500000D01*
X0Y-27250000D01*
X14769196Y-27250000D01*
X14790281Y-27383126D01*
X14790281Y-27383127D01*
X14790282Y-27383128D01*
X14851467Y-27503213D01*
X14851472Y-27503220D01*
X14946779Y-27598527D01*
X14946786Y-27598532D01*
X15026842Y-27639322D01*
X15066874Y-27659719D01*
X15200000Y-27680804D01*
X15333126Y-27659719D01*
X15416420Y-27617278D01*
X15453213Y-27598532D01*
X15453215Y-27598530D01*
X15453220Y-27598528D01*
X15461896Y-27589852D01*
X15496544Y-27575500D01*
X16103456Y-27575500D01*
X16138104Y-27589852D01*
X16146779Y-27598527D01*
X16146786Y-27598532D01*
X16226842Y-27639322D01*
X16266874Y-27659719D01*
X16400000Y-27680804D01*
X16533126Y-27659719D01*
X16616420Y-27617278D01*
X16653213Y-27598532D01*
X16653215Y-27598530D01*
X16653220Y-27598528D01*
X16748528Y-27503220D01*
X16809719Y-27383126D01*
X16830804Y-27250000D01*
X16809719Y-27116874D01*
X16789322Y-27076842D01*
X16748532Y-26996786D01*
X16748527Y-26996779D01*
X16653220Y-26901472D01*
X16653213Y-26901467D01*
X16533128Y-26840282D01*
X16533127Y-26840281D01*
X16533126Y-26840281D01*
X16400000Y-26819196D01*
X16266874Y-26840281D01*
X16266872Y-26840281D01*
X16266871Y-26840282D01*
X16146786Y-26901467D01*
X16146779Y-26901472D01*
X16138104Y-26910148D01*
X16103456Y-26924500D01*
X15496544Y-26924500D01*
X15461896Y-26910148D01*
X15453220Y-26901472D01*
X15453213Y-26901467D01*
X15333128Y-26840282D01*
X15333127Y-26840281D01*
X15333126Y-26840281D01*
X15200000Y-26819196D01*
X15066874Y-26840281D01*
X15066872Y-26840281D01*
X15066871Y-26840282D01*
X14946786Y-26901467D01*
X14946779Y-26901472D01*
X14851472Y-26996779D01*
X14851467Y-26996786D01*
X14790282Y-27116871D01*
X14790281Y-27116872D01*
X14790281Y-27116874D01*
X14769196Y-27250000D01*
X0Y-27250000D01*
X0Y-10534104D01*
X6099500Y-10534104D01*
X6099500Y-13465895D01*
X6133607Y-13593184D01*
X6133608Y-13593188D01*
X6199500Y-13707314D01*
X7992686Y-15500500D01*
X8034457Y-15524617D01*
X8106811Y-15566391D01*
X8106813Y-15566391D01*
X8106814Y-15566392D01*
X8207207Y-15593292D01*
X8234104Y-15600499D01*
X8234105Y-15600500D01*
X8234108Y-15600500D01*
X8365895Y-15600500D01*
X8365895Y-15600499D01*
X8493186Y-15566392D01*
X8607314Y-15500500D01*
X8700500Y-15407314D01*
X8766392Y-15293186D01*
X8800499Y-15165895D01*
X8800500Y-15165895D01*
X8800500Y-15034105D01*
X8800499Y-15034104D01*
X8766392Y-14906815D01*
X8766391Y-14906811D01*
X8700499Y-14792685D01*
X7114852Y-13207038D01*
X7100500Y-13172390D01*
X7100500Y-10827609D01*
X7114852Y-10792961D01*
X12192961Y-5714852D01*
X12227609Y-5700500D01*
X15095500Y-5700500D01*
X15130148Y-5714852D01*
X15144500Y-5749500D01*
X15144500Y-5775997D01*
X15149195Y-5819671D01*
X15149198Y-5819693D01*
X15160404Y-5871201D01*
X15162888Y-5881368D01*
X15162890Y-5881373D01*
X15205901Y-5962087D01*
X15237373Y-5998407D01*
X15251655Y-6014889D01*
X15259805Y-6023207D01*
X15269243Y-6032841D01*
X15269245Y-6032842D01*
X15269246Y-6032843D01*
X15349063Y-6077490D01*
X15416102Y-6097175D01*
X15474000Y-6105500D01*
X16177390Y-6105500D01*
X16212038Y-6119852D01*
X17085148Y-6992962D01*
X17099500Y-7027610D01*
X17099500Y-8765895D01*
X17133607Y-8893184D01*
X17133608Y-8893188D01*
X17199500Y-9007314D01*
X18299500Y-10107314D01*
X18392686Y-10200500D01*
X18434457Y-10224617D01*
X18506811Y-10266391D01*
X18506813Y-10266391D01*
X18506814Y-10266392D01*
X18607207Y-10293292D01*
X18634104Y-10300499D01*
X18634105Y-10300500D01*
X18634108Y-10300500D01*
X22834108Y-10300500D01*
X25422390Y-10300500D01*
X25457038Y-10314852D01*
X27035148Y-11892962D01*
X27049500Y-11927610D01*
X27049500Y-31315895D01*
X27083607Y-31443184D01*
X27083608Y-31443188D01*
X27149500Y-31557314D01*
X28942686Y-33350500D01*
X28984457Y-33374617D01*
X29056811Y-33416391D01*
X29056813Y-33416391D01*
X29056814Y-33416392D01*
X29157207Y-33443292D01*
X29184104Y-33450499D01*
X29184105Y-33450500D01*
X29184108Y-33450500D01*
X29315895Y-33450500D01*
X29315895Y-33450499D01*
X29443186Y-33416392D01*
X29557314Y-33350500D01*
X29650500Y-33257314D01*
X29716392Y-33143186D01*
X29750499Y-33015895D01*
X29750500Y-33015895D01*
X29750500Y-32884105D01*
X29750499Y-32884104D01*
X29716392Y-32756815D01*
X29716391Y-32756811D01*
X29650499Y-32642685D01*
X28064852Y-31057038D01*
X28050500Y-31022390D01*
X28050500Y-11634105D01*
X28050499Y-11634104D01*
X28016392Y-11506815D01*
X28016391Y-11506811D01*
X27956112Y-11402406D01*
X27950500Y-11392686D01*
X27857314Y-11299500D01*
X25957314Y-9399500D01*
X25843188Y-9333608D01*
X25843184Y-9333607D01*
X25715895Y-9299500D01*
X25715892Y-9299500D01*
X22965892Y-9299500D01*
X18927610Y-9299500D01*
X18892962Y-9285148D01*
X18114852Y-8507038D01*
X18100500Y-8472390D01*
X18100500Y-6734105D01*
X18100499Y-6734104D01*
X18066392Y-6606815D01*
X18066391Y-6606811D01*
X18000499Y-6492685D01*
X16869852Y-5362038D01*
X16855500Y-5327390D01*
X16855500Y-4624002D01*
X16855500Y-4624000D01*
X16850803Y-4580316D01*
X16839597Y-4528805D01*
X16837110Y-4518627D01*
X16794100Y-4437915D01*
X16794098Y-4437913D01*
X16794098Y-4437912D01*
X16748348Y-4385115D01*
X16748345Y-4385111D01*
X16740010Y-4376604D01*
X16730756Y-4367158D01*
X16730752Y-4367156D01*
X16650940Y-4322511D01*
X16650932Y-4322508D01*
X16583897Y-4302824D01*
X16526002Y-4294500D01*
X16526000Y-4294500D01*
X15474000Y-4294500D01*
X15460355Y-4295967D01*
X15430328Y-4299195D01*
X15430306Y-4299198D01*
X15378798Y-4310404D01*
X15368631Y-4312888D01*
X15368626Y-4312890D01*
X15287912Y-4355901D01*
X15235115Y-4401651D01*
X15217158Y-4419243D01*
X15217156Y-4419247D01*
X15172511Y-4499059D01*
X15172508Y-4499067D01*
X15152824Y-4566102D01*
X15144500Y-4623997D01*
X15144500Y-4650500D01*
X15130148Y-4685148D01*
X15095500Y-4699500D01*
X11934104Y-4699500D01*
X11806815Y-4733607D01*
X11806811Y-4733608D01*
X11692685Y-4799500D01*
X11692685Y-4799501D01*
X11599498Y-4892688D01*
X6285794Y-10206391D01*
X6199500Y-10292685D01*
X6133608Y-10406811D01*
X6133607Y-10406815D01*
X6099500Y-10534104D01*
X0Y-10534104D01*
X0Y-3214674D01*
X14352Y-3180026D01*
X49000Y-3165674D01*
X83648Y-3180026D01*
X95250Y-3198490D01*
X186200Y-3458412D01*
X186203Y-3458418D01*
X308053Y-3711442D01*
X308055Y-3711446D01*
X457474Y-3949244D01*
X632577Y-4168817D01*
X632588Y-4168829D01*
X831170Y-4367411D01*
X831182Y-4367422D01*
X896169Y-4419247D01*
X1033550Y-4528805D01*
X1050755Y-4542525D01*
X1288553Y-4691944D01*
X1288557Y-4691946D01*
X1541581Y-4813796D01*
X1541587Y-4813799D01*
X1541590Y-4813800D01*
X1541592Y-4813801D01*
X1806682Y-4906560D01*
X2080491Y-4969055D01*
X2319705Y-4996007D01*
X2359574Y-5000500D01*
X2359575Y-5000500D01*
X2640426Y-5000500D01*
X2668333Y-4997355D01*
X2919509Y-4969055D01*
X3193318Y-4906560D01*
X3458408Y-4813801D01*
X3711445Y-4691945D01*
X3949248Y-4542523D01*
X4168825Y-4367416D01*
X4367416Y-4168825D01*
X4542523Y-3949248D01*
X4691945Y-3711445D01*
X4813801Y-3458408D01*
X4906560Y-3193318D01*
X4969055Y-2919509D01*
X5000500Y-2640425D01*
X5000500Y-2359575D01*
X4969055Y-2080491D01*
X4906560Y-1806682D01*
X4813801Y-1541592D01*
X4691945Y-1288555D01*
X4542523Y-1050752D01*
X4367416Y-831175D01*
X4168825Y-632584D01*
X4168822Y-632581D01*
X4168817Y-632577D01*
X3949244Y-457474D01*
X3711446Y-308055D01*
X3711442Y-308053D01*
X3458418Y-186203D01*
X3458412Y-186200D01*
X3295753Y-129283D01*
X3198489Y-95249D01*
X3170527Y-70260D01*
X3168424Y-32816D01*
X3193414Y-4853D01*
X3214674Y0D01*
X35785326Y0D01*
X35819974Y-14352D01*
G37*
G04 #@! TD.AperFunction*
G04 #@! TD*
G04 #@! TA.AperFunction,Conductor*
G04 #@! TO.N,VDD*
G36*
X16593039Y-4519685D02*
G01*
X16638794Y-4572489D01*
X16650000Y-4624000D01*
X16650000Y-5776000D01*
X16630315Y-5843039D01*
X16577511Y-5888794D01*
X16526000Y-5900000D01*
X15474000Y-5900000D01*
X15406961Y-5880315D01*
X15361206Y-5827511D01*
X15350000Y-5776000D01*
X15350000Y-4624000D01*
X15369685Y-4556961D01*
X15422489Y-4511206D01*
X15474000Y-4500000D01*
X16526000Y-4500000D01*
X16593039Y-4519685D01*
G37*
G04 #@! TD.AperFunction*
G04 #@! TD*
M02*
