M48
; DRILL file {KiCad 8.0.4} date 2025-01-15T23:08:56-0800
; FORMAT={-:-/ absolute / inch / decimal}
; #@! TF.CreationDate,2025-01-15T23:08:56-08:00
; #@! TF.GenerationSoftware,Kicad,Pcbnew,8.0.4
; #@! TF.FileFunction,Plated,1,2,PTH
FMAT,2
INCH
; #@! TA.AperFunction,Plated,PTH,ViaDrill
T1C0.0079
; #@! TA.AperFunction,Plated,PTH,ViaDrill
T2C0.0118
; #@! TA.AperFunction,Plated,PTH,ComponentDrill
T3C0.0354
%
G90
G05
T1
X0.3268Y-0.5945
X0.6161Y-0.189
X0.6161Y-0.2185
X0.6437Y-0.189
X0.6437Y-0.2185
X0.9016Y-0.3858
X1.1516Y-1.2972
T2
X0.2992Y-1.3228
X0.3228Y-0.626
X0.3248Y-1.2795
X0.3392Y-0.748
X0.3392Y-0.8071
X0.3392Y-0.8661
X0.3392Y-0.9252
X0.4094Y-0.1654
X0.4232Y-0.253
X0.4429Y-0.1654
X0.4429Y-1.1614
X0.4429Y-1.2165
X0.4685Y-0.6299
X0.4764Y-1.2205
X0.5433Y-1.0531
X0.5984Y-1.0728
X0.6339Y-0.9094
X0.6378Y-0.2677
X0.6378Y-0.3071
X0.6417Y-0.1102
X0.6417Y-0.1535
X0.6457Y-1.0472
X0.6457Y-1.0728
X0.6673Y-0.0827
X0.6811Y-1.3228
X0.7028Y-0.0827
X0.7067Y-1.2776
X0.7224Y-0.561
X0.7224Y-0.6201
X0.7224Y-0.6791
X0.7224Y-0.7382
X0.7224Y-0.7972
X0.7224Y-0.8563
X0.7224Y-0.9154
X0.7283Y-0.1083
X0.7283Y-0.1555
X0.7421Y-0.0787
X0.7441Y-0.4862
X0.748Y-1.0512
X0.7579Y-0.3228
X0.7776Y-0.0787
X0.7992Y-0.1752
X0.7992Y-0.248
X0.7992Y-0.3228
X0.8307Y-1.2008
X0.8425Y-0.3228
X0.8583Y-1.2756
X0.8661Y-1.0512
X0.874Y-0.4862
X0.8976Y-0.3327
X1.1654Y-0.2047
X1.1654Y-1.248
X1.2087Y-0.1732
X1.2126Y-1.2146
X1.2559Y-0.2047
T3
G00X0.16Y-0.4823
M15
G01X0.1285Y-0.4823
M16
G05
G00X0.16Y-1.0531
M15
G01X0.1285Y-1.0531
M16
G05
G00X0.4144Y-0.4823
M15
G01X0.3435Y-0.4823
M16
G05
G00X0.4144Y-1.0531
M15
G01X0.3435Y-1.0531
M16
G05
M30
