G04 #@! TF.GenerationSoftware,KiCad,Pcbnew,8.0.4*
G04 #@! TF.CreationDate,2025-01-15T23:08:54-08:00*
G04 #@! TF.ProjectId,MIPItoHDMI_Buffered,4d495049-746f-4484-944d-495f42756666,rev?*
G04 #@! TF.SameCoordinates,Original*
G04 #@! TF.FileFunction,Legend,Top*
G04 #@! TF.FilePolarity,Positive*
%FSLAX46Y46*%
G04 Gerber Fmt 4.6, Leading zero omitted, Abs format (unit mm)*
G04 Created by KiCad (PCBNEW 8.0.4) date 2025-01-15 23:08:54*
%MOMM*%
%LPD*%
G01*
G04 APERTURE LIST*
%ADD10C,0.150000*%
%ADD11C,0.300000*%
%ADD12C,0.200000*%
%ADD13C,0.120000*%
%ADD14C,0.000000*%
G04 APERTURE END LIST*
D10*
X12161133Y-4769048D02*
X12161133Y-5530953D01*
X12161133Y-6069048D02*
X12161133Y-6830953D01*
X11780180Y-6450000D02*
X12542085Y-6450000D01*
D11*
X13000828Y-7192856D02*
X14500828Y-6692856D01*
X14500828Y-6692856D02*
X13000828Y-6192856D01*
X14500828Y-5692857D02*
X13000828Y-5692857D01*
X14500828Y-4978571D02*
X13000828Y-4978571D01*
X13000828Y-4978571D02*
X14500828Y-4121428D01*
X14500828Y-4121428D02*
X13000828Y-4121428D01*
D10*
X19700000Y-9750000D02*
X20700000Y-9750000D01*
X29300000Y-29800000D02*
X29300000Y-30800000D01*
X20700000Y-9750000D02*
X20400000Y-10050000D01*
X20400000Y-9450000D02*
X20700000Y-9750000D01*
X31411133Y-7219048D02*
X31411133Y-7980953D01*
X31030180Y-7600000D02*
X31792085Y-7600000D01*
X31961133Y-32619048D02*
X31961133Y-33380953D01*
X31580180Y-33000000D02*
X32342085Y-33000000D01*
D11*
X32450828Y-7657142D02*
X32450828Y-6728570D01*
X32450828Y-6728570D02*
X33022257Y-7228570D01*
X33022257Y-7228570D02*
X33022257Y-7014285D01*
X33022257Y-7014285D02*
X33093685Y-6871428D01*
X33093685Y-6871428D02*
X33165114Y-6799999D01*
X33165114Y-6799999D02*
X33307971Y-6728570D01*
X33307971Y-6728570D02*
X33665114Y-6728570D01*
X33665114Y-6728570D02*
X33807971Y-6799999D01*
X33807971Y-6799999D02*
X33879400Y-6871428D01*
X33879400Y-6871428D02*
X33950828Y-7014285D01*
X33950828Y-7014285D02*
X33950828Y-7442856D01*
X33950828Y-7442856D02*
X33879400Y-7585713D01*
X33879400Y-7585713D02*
X33807971Y-7657142D01*
X32450828Y-6299999D02*
X33950828Y-5799999D01*
X33950828Y-5799999D02*
X32450828Y-5299999D01*
X32450828Y-4942857D02*
X32450828Y-4014285D01*
X32450828Y-4014285D02*
X33022257Y-4514285D01*
X33022257Y-4514285D02*
X33022257Y-4300000D01*
X33022257Y-4300000D02*
X33093685Y-4157143D01*
X33093685Y-4157143D02*
X33165114Y-4085714D01*
X33165114Y-4085714D02*
X33307971Y-4014285D01*
X33307971Y-4014285D02*
X33665114Y-4014285D01*
X33665114Y-4014285D02*
X33807971Y-4085714D01*
X33807971Y-4085714D02*
X33879400Y-4157143D01*
X33879400Y-4157143D02*
X33950828Y-4300000D01*
X33950828Y-4300000D02*
X33950828Y-4728571D01*
X33950828Y-4728571D02*
X33879400Y-4871428D01*
X33879400Y-4871428D02*
X33807971Y-4942857D01*
D12*
X12849999Y-32248885D02*
X12707142Y-32177457D01*
X12707142Y-32177457D02*
X12564285Y-32034600D01*
X12564285Y-32034600D02*
X12349999Y-31820314D01*
X12349999Y-31820314D02*
X12207142Y-31748885D01*
X12207142Y-31748885D02*
X12064285Y-31748885D01*
X12135714Y-32106028D02*
X11992857Y-32034600D01*
X11992857Y-32034600D02*
X11849999Y-31891742D01*
X11849999Y-31891742D02*
X11778571Y-31606028D01*
X11778571Y-31606028D02*
X11778571Y-31106028D01*
X11778571Y-31106028D02*
X11849999Y-30820314D01*
X11849999Y-30820314D02*
X11992857Y-30677457D01*
X11992857Y-30677457D02*
X12135714Y-30606028D01*
X12135714Y-30606028D02*
X12421428Y-30606028D01*
X12421428Y-30606028D02*
X12564285Y-30677457D01*
X12564285Y-30677457D02*
X12707142Y-30820314D01*
X12707142Y-30820314D02*
X12778571Y-31106028D01*
X12778571Y-31106028D02*
X12778571Y-31606028D01*
X12778571Y-31606028D02*
X12707142Y-31891742D01*
X12707142Y-31891742D02*
X12564285Y-32034600D01*
X12564285Y-32034600D02*
X12421428Y-32106028D01*
X12421428Y-32106028D02*
X12135714Y-32106028D01*
X13278571Y-30606028D02*
X13635714Y-32106028D01*
X13635714Y-32106028D02*
X13921428Y-31034600D01*
X13921428Y-31034600D02*
X14207143Y-32106028D01*
X14207143Y-32106028D02*
X14564286Y-30606028D01*
X15135714Y-32106028D02*
X15135714Y-30606028D01*
X15850000Y-32106028D02*
X15850000Y-30606028D01*
X17421429Y-31963171D02*
X17350001Y-32034600D01*
X17350001Y-32034600D02*
X17135715Y-32106028D01*
X17135715Y-32106028D02*
X16992858Y-32106028D01*
X16992858Y-32106028D02*
X16778572Y-32034600D01*
X16778572Y-32034600D02*
X16635715Y-31891742D01*
X16635715Y-31891742D02*
X16564286Y-31748885D01*
X16564286Y-31748885D02*
X16492858Y-31463171D01*
X16492858Y-31463171D02*
X16492858Y-31248885D01*
X16492858Y-31248885D02*
X16564286Y-30963171D01*
X16564286Y-30963171D02*
X16635715Y-30820314D01*
X16635715Y-30820314D02*
X16778572Y-30677457D01*
X16778572Y-30677457D02*
X16992858Y-30606028D01*
X16992858Y-30606028D02*
X17135715Y-30606028D01*
X17135715Y-30606028D02*
X17350001Y-30677457D01*
X17350001Y-30677457D02*
X17421429Y-30748885D01*
D11*
X23650828Y-33792856D02*
X25150828Y-33292856D01*
X25150828Y-33292856D02*
X23650828Y-32792856D01*
X25150828Y-32292857D02*
X23650828Y-32292857D01*
X25150828Y-31578571D02*
X23650828Y-31578571D01*
X23650828Y-31578571D02*
X25150828Y-30721428D01*
X25150828Y-30721428D02*
X23650828Y-30721428D01*
D12*
X14569048Y-9507275D02*
X14569048Y-8507275D01*
X14569048Y-8507275D02*
X14807143Y-8507275D01*
X14807143Y-8507275D02*
X14950000Y-8554894D01*
X14950000Y-8554894D02*
X15045238Y-8650132D01*
X15045238Y-8650132D02*
X15092857Y-8745370D01*
X15092857Y-8745370D02*
X15140476Y-8935846D01*
X15140476Y-8935846D02*
X15140476Y-9078703D01*
X15140476Y-9078703D02*
X15092857Y-9269179D01*
X15092857Y-9269179D02*
X15045238Y-9364417D01*
X15045238Y-9364417D02*
X14950000Y-9459656D01*
X14950000Y-9459656D02*
X14807143Y-9507275D01*
X14807143Y-9507275D02*
X14569048Y-9507275D01*
X16140476Y-9412036D02*
X16092857Y-9459656D01*
X16092857Y-9459656D02*
X15950000Y-9507275D01*
X15950000Y-9507275D02*
X15854762Y-9507275D01*
X15854762Y-9507275D02*
X15711905Y-9459656D01*
X15711905Y-9459656D02*
X15616667Y-9364417D01*
X15616667Y-9364417D02*
X15569048Y-9269179D01*
X15569048Y-9269179D02*
X15521429Y-9078703D01*
X15521429Y-9078703D02*
X15521429Y-8935846D01*
X15521429Y-8935846D02*
X15569048Y-8745370D01*
X15569048Y-8745370D02*
X15616667Y-8650132D01*
X15616667Y-8650132D02*
X15711905Y-8554894D01*
X15711905Y-8554894D02*
X15854762Y-8507275D01*
X15854762Y-8507275D02*
X15950000Y-8507275D01*
X15950000Y-8507275D02*
X16092857Y-8554894D01*
X16092857Y-8554894D02*
X16140476Y-8602513D01*
X16569048Y-9126322D02*
X17330953Y-9126322D01*
X17807143Y-9507275D02*
X17807143Y-8507275D01*
X17807143Y-8507275D02*
X18045238Y-8507275D01*
X18045238Y-8507275D02*
X18188095Y-8554894D01*
X18188095Y-8554894D02*
X18283333Y-8650132D01*
X18283333Y-8650132D02*
X18330952Y-8745370D01*
X18330952Y-8745370D02*
X18378571Y-8935846D01*
X18378571Y-8935846D02*
X18378571Y-9078703D01*
X18378571Y-9078703D02*
X18330952Y-9269179D01*
X18330952Y-9269179D02*
X18283333Y-9364417D01*
X18283333Y-9364417D02*
X18188095Y-9459656D01*
X18188095Y-9459656D02*
X18045238Y-9507275D01*
X18045238Y-9507275D02*
X17807143Y-9507275D01*
X19378571Y-9412036D02*
X19330952Y-9459656D01*
X19330952Y-9459656D02*
X19188095Y-9507275D01*
X19188095Y-9507275D02*
X19092857Y-9507275D01*
X19092857Y-9507275D02*
X18950000Y-9459656D01*
X18950000Y-9459656D02*
X18854762Y-9364417D01*
X18854762Y-9364417D02*
X18807143Y-9269179D01*
X18807143Y-9269179D02*
X18759524Y-9078703D01*
X18759524Y-9078703D02*
X18759524Y-8935846D01*
X18759524Y-8935846D02*
X18807143Y-8745370D01*
X18807143Y-8745370D02*
X18854762Y-8650132D01*
X18854762Y-8650132D02*
X18950000Y-8554894D01*
X18950000Y-8554894D02*
X19092857Y-8507275D01*
X19092857Y-8507275D02*
X19188095Y-8507275D01*
X19188095Y-8507275D02*
X19330952Y-8554894D01*
X19330952Y-8554894D02*
X19378571Y-8602513D01*
X14926190Y-10593409D02*
X15069047Y-10641028D01*
X15069047Y-10641028D02*
X15116666Y-10688647D01*
X15116666Y-10688647D02*
X15164285Y-10783885D01*
X15164285Y-10783885D02*
X15164285Y-10926742D01*
X15164285Y-10926742D02*
X15116666Y-11021980D01*
X15116666Y-11021980D02*
X15069047Y-11069600D01*
X15069047Y-11069600D02*
X14973809Y-11117219D01*
X14973809Y-11117219D02*
X14592857Y-11117219D01*
X14592857Y-11117219D02*
X14592857Y-10117219D01*
X14592857Y-10117219D02*
X14926190Y-10117219D01*
X14926190Y-10117219D02*
X15021428Y-10164838D01*
X15021428Y-10164838D02*
X15069047Y-10212457D01*
X15069047Y-10212457D02*
X15116666Y-10307695D01*
X15116666Y-10307695D02*
X15116666Y-10402933D01*
X15116666Y-10402933D02*
X15069047Y-10498171D01*
X15069047Y-10498171D02*
X15021428Y-10545790D01*
X15021428Y-10545790D02*
X14926190Y-10593409D01*
X14926190Y-10593409D02*
X14592857Y-10593409D01*
X15497619Y-10450552D02*
X15735714Y-11117219D01*
X15973809Y-10450552D02*
X15735714Y-11117219D01*
X15735714Y-11117219D02*
X15640476Y-11355314D01*
X15640476Y-11355314D02*
X15592857Y-11402933D01*
X15592857Y-11402933D02*
X15497619Y-11450552D01*
X16354762Y-10450552D02*
X16354762Y-11450552D01*
X16354762Y-10498171D02*
X16450000Y-10450552D01*
X16450000Y-10450552D02*
X16640476Y-10450552D01*
X16640476Y-10450552D02*
X16735714Y-10498171D01*
X16735714Y-10498171D02*
X16783333Y-10545790D01*
X16783333Y-10545790D02*
X16830952Y-10641028D01*
X16830952Y-10641028D02*
X16830952Y-10926742D01*
X16830952Y-10926742D02*
X16783333Y-11021980D01*
X16783333Y-11021980D02*
X16735714Y-11069600D01*
X16735714Y-11069600D02*
X16640476Y-11117219D01*
X16640476Y-11117219D02*
X16450000Y-11117219D01*
X16450000Y-11117219D02*
X16354762Y-11069600D01*
X17688095Y-11117219D02*
X17688095Y-10593409D01*
X17688095Y-10593409D02*
X17640476Y-10498171D01*
X17640476Y-10498171D02*
X17545238Y-10450552D01*
X17545238Y-10450552D02*
X17354762Y-10450552D01*
X17354762Y-10450552D02*
X17259524Y-10498171D01*
X17688095Y-11069600D02*
X17592857Y-11117219D01*
X17592857Y-11117219D02*
X17354762Y-11117219D01*
X17354762Y-11117219D02*
X17259524Y-11069600D01*
X17259524Y-11069600D02*
X17211905Y-10974361D01*
X17211905Y-10974361D02*
X17211905Y-10879123D01*
X17211905Y-10879123D02*
X17259524Y-10783885D01*
X17259524Y-10783885D02*
X17354762Y-10736266D01*
X17354762Y-10736266D02*
X17592857Y-10736266D01*
X17592857Y-10736266D02*
X17688095Y-10688647D01*
X18116667Y-11069600D02*
X18211905Y-11117219D01*
X18211905Y-11117219D02*
X18402381Y-11117219D01*
X18402381Y-11117219D02*
X18497619Y-11069600D01*
X18497619Y-11069600D02*
X18545238Y-10974361D01*
X18545238Y-10974361D02*
X18545238Y-10926742D01*
X18545238Y-10926742D02*
X18497619Y-10831504D01*
X18497619Y-10831504D02*
X18402381Y-10783885D01*
X18402381Y-10783885D02*
X18259524Y-10783885D01*
X18259524Y-10783885D02*
X18164286Y-10736266D01*
X18164286Y-10736266D02*
X18116667Y-10641028D01*
X18116667Y-10641028D02*
X18116667Y-10593409D01*
X18116667Y-10593409D02*
X18164286Y-10498171D01*
X18164286Y-10498171D02*
X18259524Y-10450552D01*
X18259524Y-10450552D02*
X18402381Y-10450552D01*
X18402381Y-10450552D02*
X18497619Y-10498171D01*
X18926191Y-11069600D02*
X19021429Y-11117219D01*
X19021429Y-11117219D02*
X19211905Y-11117219D01*
X19211905Y-11117219D02*
X19307143Y-11069600D01*
X19307143Y-11069600D02*
X19354762Y-10974361D01*
X19354762Y-10974361D02*
X19354762Y-10926742D01*
X19354762Y-10926742D02*
X19307143Y-10831504D01*
X19307143Y-10831504D02*
X19211905Y-10783885D01*
X19211905Y-10783885D02*
X19069048Y-10783885D01*
X19069048Y-10783885D02*
X18973810Y-10736266D01*
X18973810Y-10736266D02*
X18926191Y-10641028D01*
X18926191Y-10641028D02*
X18926191Y-10593409D01*
X18926191Y-10593409D02*
X18973810Y-10498171D01*
X18973810Y-10498171D02*
X19069048Y-10450552D01*
X19069048Y-10450552D02*
X19211905Y-10450552D01*
X19211905Y-10450552D02*
X19307143Y-10498171D01*
D10*
X31411133Y-3419048D02*
X31411133Y-4180953D01*
X31961133Y-31319048D02*
X31961133Y-32080953D01*
X9766033Y-9533333D02*
X10266033Y-9533333D01*
X10266033Y-9533333D02*
X10366033Y-9566666D01*
X10366033Y-9566666D02*
X10432700Y-9633333D01*
X10432700Y-9633333D02*
X10466033Y-9733333D01*
X10466033Y-9733333D02*
X10466033Y-9800000D01*
X9766033Y-9266667D02*
X9766033Y-8800000D01*
X9766033Y-8800000D02*
X10466033Y-9100000D01*
X21016033Y-10383333D02*
X21516033Y-10383333D01*
X21516033Y-10383333D02*
X21616033Y-10416666D01*
X21616033Y-10416666D02*
X21682700Y-10483333D01*
X21682700Y-10483333D02*
X21716033Y-10583333D01*
X21716033Y-10583333D02*
X21716033Y-10650000D01*
X21716033Y-10050000D02*
X21016033Y-10050000D01*
X21016033Y-10050000D02*
X21016033Y-9783333D01*
X21016033Y-9783333D02*
X21049366Y-9716667D01*
X21049366Y-9716667D02*
X21082700Y-9683333D01*
X21082700Y-9683333D02*
X21149366Y-9650000D01*
X21149366Y-9650000D02*
X21249366Y-9650000D01*
X21249366Y-9650000D02*
X21316033Y-9683333D01*
X21316033Y-9683333D02*
X21349366Y-9716667D01*
X21349366Y-9716667D02*
X21382700Y-9783333D01*
X21382700Y-9783333D02*
X21382700Y-10050000D01*
X21716033Y-8983333D02*
X21716033Y-9383333D01*
X21716033Y-9183333D02*
X21016033Y-9183333D01*
X21016033Y-9183333D02*
X21116033Y-9250000D01*
X21116033Y-9250000D02*
X21182700Y-9316667D01*
X21182700Y-9316667D02*
X21216033Y-9383333D01*
X29766033Y-9533333D02*
X30266033Y-9533333D01*
X30266033Y-9533333D02*
X30366033Y-9566666D01*
X30366033Y-9566666D02*
X30432700Y-9633333D01*
X30432700Y-9633333D02*
X30466033Y-9733333D01*
X30466033Y-9733333D02*
X30466033Y-9800000D01*
X29766033Y-8900000D02*
X29766033Y-9033333D01*
X29766033Y-9033333D02*
X29799366Y-9100000D01*
X29799366Y-9100000D02*
X29832700Y-9133333D01*
X29832700Y-9133333D02*
X29932700Y-9200000D01*
X29932700Y-9200000D02*
X30066033Y-9233333D01*
X30066033Y-9233333D02*
X30332700Y-9233333D01*
X30332700Y-9233333D02*
X30399366Y-9200000D01*
X30399366Y-9200000D02*
X30432700Y-9166667D01*
X30432700Y-9166667D02*
X30466033Y-9100000D01*
X30466033Y-9100000D02*
X30466033Y-8966667D01*
X30466033Y-8966667D02*
X30432700Y-8900000D01*
X30432700Y-8900000D02*
X30399366Y-8866667D01*
X30399366Y-8866667D02*
X30332700Y-8833333D01*
X30332700Y-8833333D02*
X30166033Y-8833333D01*
X30166033Y-8833333D02*
X30099366Y-8866667D01*
X30099366Y-8866667D02*
X30066033Y-8900000D01*
X30066033Y-8900000D02*
X30032700Y-8966667D01*
X30032700Y-8966667D02*
X30032700Y-9100000D01*
X30032700Y-9100000D02*
X30066033Y-9166667D01*
X30066033Y-9166667D02*
X30099366Y-9200000D01*
X30099366Y-9200000D02*
X30166033Y-9233333D01*
X19266666Y-31236033D02*
X19266666Y-31736033D01*
X19266666Y-31736033D02*
X19233333Y-31836033D01*
X19233333Y-31836033D02*
X19166666Y-31902700D01*
X19166666Y-31902700D02*
X19066666Y-31936033D01*
X19066666Y-31936033D02*
X19000000Y-31936033D01*
X19899999Y-31469366D02*
X19899999Y-31936033D01*
X19733333Y-31202700D02*
X19566666Y-31702700D01*
X19566666Y-31702700D02*
X19999999Y-31702700D01*
X9516666Y-31236033D02*
X9516666Y-31736033D01*
X9516666Y-31736033D02*
X9483333Y-31836033D01*
X9483333Y-31836033D02*
X9416666Y-31902700D01*
X9416666Y-31902700D02*
X9316666Y-31936033D01*
X9316666Y-31936033D02*
X9250000Y-31936033D01*
X9783333Y-31236033D02*
X10216666Y-31236033D01*
X10216666Y-31236033D02*
X9983333Y-31502700D01*
X9983333Y-31502700D02*
X10083333Y-31502700D01*
X10083333Y-31502700D02*
X10149999Y-31536033D01*
X10149999Y-31536033D02*
X10183333Y-31569366D01*
X10183333Y-31569366D02*
X10216666Y-31636033D01*
X10216666Y-31636033D02*
X10216666Y-31802700D01*
X10216666Y-31802700D02*
X10183333Y-31869366D01*
X10183333Y-31869366D02*
X10149999Y-31902700D01*
X10149999Y-31902700D02*
X10083333Y-31936033D01*
X10083333Y-31936033D02*
X9883333Y-31936033D01*
X9883333Y-31936033D02*
X9816666Y-31902700D01*
X9816666Y-31902700D02*
X9783333Y-31869366D01*
X23116033Y-5716666D02*
X22782700Y-5949999D01*
X23116033Y-6116666D02*
X22416033Y-6116666D01*
X22416033Y-6116666D02*
X22416033Y-5849999D01*
X22416033Y-5849999D02*
X22449366Y-5783333D01*
X22449366Y-5783333D02*
X22482700Y-5749999D01*
X22482700Y-5749999D02*
X22549366Y-5716666D01*
X22549366Y-5716666D02*
X22649366Y-5716666D01*
X22649366Y-5716666D02*
X22716033Y-5749999D01*
X22716033Y-5749999D02*
X22749366Y-5783333D01*
X22749366Y-5783333D02*
X22782700Y-5849999D01*
X22782700Y-5849999D02*
X22782700Y-6116666D01*
X22482700Y-5449999D02*
X22449366Y-5416666D01*
X22449366Y-5416666D02*
X22416033Y-5349999D01*
X22416033Y-5349999D02*
X22416033Y-5183333D01*
X22416033Y-5183333D02*
X22449366Y-5116666D01*
X22449366Y-5116666D02*
X22482700Y-5083333D01*
X22482700Y-5083333D02*
X22549366Y-5049999D01*
X22549366Y-5049999D02*
X22616033Y-5049999D01*
X22616033Y-5049999D02*
X22716033Y-5083333D01*
X22716033Y-5083333D02*
X23116033Y-5483333D01*
X23116033Y-5483333D02*
X23116033Y-5049999D01*
X22216666Y-3866033D02*
X22216666Y-4432700D01*
X22216666Y-4432700D02*
X22250000Y-4499366D01*
X22250000Y-4499366D02*
X22283333Y-4532700D01*
X22283333Y-4532700D02*
X22350000Y-4566033D01*
X22350000Y-4566033D02*
X22483333Y-4566033D01*
X22483333Y-4566033D02*
X22550000Y-4532700D01*
X22550000Y-4532700D02*
X22583333Y-4499366D01*
X22583333Y-4499366D02*
X22616666Y-4432700D01*
X22616666Y-4432700D02*
X22616666Y-3866033D01*
X22916666Y-3932700D02*
X22949999Y-3899366D01*
X22949999Y-3899366D02*
X23016666Y-3866033D01*
X23016666Y-3866033D02*
X23183333Y-3866033D01*
X23183333Y-3866033D02*
X23249999Y-3899366D01*
X23249999Y-3899366D02*
X23283333Y-3932700D01*
X23283333Y-3932700D02*
X23316666Y-3999366D01*
X23316666Y-3999366D02*
X23316666Y-4066033D01*
X23316666Y-4066033D02*
X23283333Y-4166033D01*
X23283333Y-4166033D02*
X22883333Y-4566033D01*
X22883333Y-4566033D02*
X23316666Y-4566033D01*
X19000000Y-4116033D02*
X19000000Y-4282700D01*
X18833334Y-4216033D02*
X19000000Y-4282700D01*
X19000000Y-4282700D02*
X19166667Y-4216033D01*
X18900000Y-4416033D02*
X19000000Y-4282700D01*
X19000000Y-4282700D02*
X19100000Y-4416033D01*
X19000000Y-4116033D02*
X19000000Y-4282700D01*
X18833334Y-4216033D02*
X19000000Y-4282700D01*
X19000000Y-4282700D02*
X19166667Y-4216033D01*
X18900000Y-4416033D02*
X19000000Y-4282700D01*
X19000000Y-4282700D02*
X19100000Y-4416033D01*
X16716033Y-13333333D02*
X17216033Y-13333333D01*
X17216033Y-13333333D02*
X17316033Y-13366666D01*
X17316033Y-13366666D02*
X17382700Y-13433333D01*
X17382700Y-13433333D02*
X17416033Y-13533333D01*
X17416033Y-13533333D02*
X17416033Y-13600000D01*
X17416033Y-12633333D02*
X17416033Y-13033333D01*
X17416033Y-12833333D02*
X16716033Y-12833333D01*
X16716033Y-12833333D02*
X16816033Y-12900000D01*
X16816033Y-12900000D02*
X16882700Y-12966667D01*
X16882700Y-12966667D02*
X16916033Y-13033333D01*
X15583333Y-7116033D02*
X15350000Y-6782700D01*
X15183333Y-7116033D02*
X15183333Y-6416033D01*
X15183333Y-6416033D02*
X15450000Y-6416033D01*
X15450000Y-6416033D02*
X15516667Y-6449366D01*
X15516667Y-6449366D02*
X15550000Y-6482700D01*
X15550000Y-6482700D02*
X15583333Y-6549366D01*
X15583333Y-6549366D02*
X15583333Y-6649366D01*
X15583333Y-6649366D02*
X15550000Y-6716033D01*
X15550000Y-6716033D02*
X15516667Y-6749366D01*
X15516667Y-6749366D02*
X15450000Y-6782700D01*
X15450000Y-6782700D02*
X15183333Y-6782700D01*
X16250000Y-7116033D02*
X15850000Y-7116033D01*
X16050000Y-7116033D02*
X16050000Y-6416033D01*
X16050000Y-6416033D02*
X15983333Y-6516033D01*
X15983333Y-6516033D02*
X15916667Y-6582700D01*
X15916667Y-6582700D02*
X15850000Y-6616033D01*
X29766033Y-36058333D02*
X30266033Y-36058333D01*
X30266033Y-36058333D02*
X30366033Y-36091666D01*
X30366033Y-36091666D02*
X30432700Y-36158333D01*
X30432700Y-36158333D02*
X30466033Y-36258333D01*
X30466033Y-36258333D02*
X30466033Y-36325000D01*
X29766033Y-35391667D02*
X29766033Y-35725000D01*
X29766033Y-35725000D02*
X30099366Y-35758333D01*
X30099366Y-35758333D02*
X30066033Y-35725000D01*
X30066033Y-35725000D02*
X30032700Y-35658333D01*
X30032700Y-35658333D02*
X30032700Y-35491667D01*
X30032700Y-35491667D02*
X30066033Y-35425000D01*
X30066033Y-35425000D02*
X30099366Y-35391667D01*
X30099366Y-35391667D02*
X30166033Y-35358333D01*
X30166033Y-35358333D02*
X30332700Y-35358333D01*
X30332700Y-35358333D02*
X30399366Y-35391667D01*
X30399366Y-35391667D02*
X30432700Y-35425000D01*
X30432700Y-35425000D02*
X30466033Y-35491667D01*
X30466033Y-35491667D02*
X30466033Y-35658333D01*
X30466033Y-35658333D02*
X30432700Y-35725000D01*
X30432700Y-35725000D02*
X30399366Y-35758333D01*
X20283333Y-2049366D02*
X20250000Y-2082700D01*
X20250000Y-2082700D02*
X20150000Y-2116033D01*
X20150000Y-2116033D02*
X20083333Y-2116033D01*
X20083333Y-2116033D02*
X19983333Y-2082700D01*
X19983333Y-2082700D02*
X19916667Y-2016033D01*
X19916667Y-2016033D02*
X19883333Y-1949366D01*
X19883333Y-1949366D02*
X19850000Y-1816033D01*
X19850000Y-1816033D02*
X19850000Y-1716033D01*
X19850000Y-1716033D02*
X19883333Y-1582700D01*
X19883333Y-1582700D02*
X19916667Y-1516033D01*
X19916667Y-1516033D02*
X19983333Y-1449366D01*
X19983333Y-1449366D02*
X20083333Y-1416033D01*
X20083333Y-1416033D02*
X20150000Y-1416033D01*
X20150000Y-1416033D02*
X20250000Y-1449366D01*
X20250000Y-1449366D02*
X20283333Y-1482700D01*
X20550000Y-1482700D02*
X20583333Y-1449366D01*
X20583333Y-1449366D02*
X20650000Y-1416033D01*
X20650000Y-1416033D02*
X20816667Y-1416033D01*
X20816667Y-1416033D02*
X20883333Y-1449366D01*
X20883333Y-1449366D02*
X20916667Y-1482700D01*
X20916667Y-1482700D02*
X20950000Y-1549366D01*
X20950000Y-1549366D02*
X20950000Y-1616033D01*
X20950000Y-1616033D02*
X20916667Y-1716033D01*
X20916667Y-1716033D02*
X20516667Y-2116033D01*
X20516667Y-2116033D02*
X20950000Y-2116033D01*
X15583333Y-8049366D02*
X15550000Y-8082700D01*
X15550000Y-8082700D02*
X15450000Y-8116033D01*
X15450000Y-8116033D02*
X15383333Y-8116033D01*
X15383333Y-8116033D02*
X15283333Y-8082700D01*
X15283333Y-8082700D02*
X15216667Y-8016033D01*
X15216667Y-8016033D02*
X15183333Y-7949366D01*
X15183333Y-7949366D02*
X15150000Y-7816033D01*
X15150000Y-7816033D02*
X15150000Y-7716033D01*
X15150000Y-7716033D02*
X15183333Y-7582700D01*
X15183333Y-7582700D02*
X15216667Y-7516033D01*
X15216667Y-7516033D02*
X15283333Y-7449366D01*
X15283333Y-7449366D02*
X15383333Y-7416033D01*
X15383333Y-7416033D02*
X15450000Y-7416033D01*
X15450000Y-7416033D02*
X15550000Y-7449366D01*
X15550000Y-7449366D02*
X15583333Y-7482700D01*
X15816667Y-7416033D02*
X16250000Y-7416033D01*
X16250000Y-7416033D02*
X16016667Y-7682700D01*
X16016667Y-7682700D02*
X16116667Y-7682700D01*
X16116667Y-7682700D02*
X16183333Y-7716033D01*
X16183333Y-7716033D02*
X16216667Y-7749366D01*
X16216667Y-7749366D02*
X16250000Y-7816033D01*
X16250000Y-7816033D02*
X16250000Y-7982700D01*
X16250000Y-7982700D02*
X16216667Y-8049366D01*
X16216667Y-8049366D02*
X16183333Y-8082700D01*
X16183333Y-8082700D02*
X16116667Y-8116033D01*
X16116667Y-8116033D02*
X15916667Y-8116033D01*
X15916667Y-8116033D02*
X15850000Y-8082700D01*
X15850000Y-8082700D02*
X15816667Y-8049366D01*
X17649366Y-1766666D02*
X17682700Y-1799999D01*
X17682700Y-1799999D02*
X17716033Y-1899999D01*
X17716033Y-1899999D02*
X17716033Y-1966666D01*
X17716033Y-1966666D02*
X17682700Y-2066666D01*
X17682700Y-2066666D02*
X17616033Y-2133333D01*
X17616033Y-2133333D02*
X17549366Y-2166666D01*
X17549366Y-2166666D02*
X17416033Y-2199999D01*
X17416033Y-2199999D02*
X17316033Y-2199999D01*
X17316033Y-2199999D02*
X17182700Y-2166666D01*
X17182700Y-2166666D02*
X17116033Y-2133333D01*
X17116033Y-2133333D02*
X17049366Y-2066666D01*
X17049366Y-2066666D02*
X17016033Y-1966666D01*
X17016033Y-1966666D02*
X17016033Y-1899999D01*
X17016033Y-1899999D02*
X17049366Y-1799999D01*
X17049366Y-1799999D02*
X17082700Y-1766666D01*
X17716033Y-1099999D02*
X17716033Y-1499999D01*
X17716033Y-1299999D02*
X17016033Y-1299999D01*
X17016033Y-1299999D02*
X17116033Y-1366666D01*
X17116033Y-1366666D02*
X17182700Y-1433333D01*
X17182700Y-1433333D02*
X17216033Y-1499999D01*
X11816033Y-25933333D02*
X12316033Y-25933333D01*
X12316033Y-25933333D02*
X12416033Y-25966666D01*
X12416033Y-25966666D02*
X12482700Y-26033333D01*
X12482700Y-26033333D02*
X12516033Y-26133333D01*
X12516033Y-26133333D02*
X12516033Y-26200000D01*
X11882700Y-25633333D02*
X11849366Y-25600000D01*
X11849366Y-25600000D02*
X11816033Y-25533333D01*
X11816033Y-25533333D02*
X11816033Y-25366667D01*
X11816033Y-25366667D02*
X11849366Y-25300000D01*
X11849366Y-25300000D02*
X11882700Y-25266667D01*
X11882700Y-25266667D02*
X11949366Y-25233333D01*
X11949366Y-25233333D02*
X12016033Y-25233333D01*
X12016033Y-25233333D02*
X12116033Y-25266667D01*
X12116033Y-25266667D02*
X12516033Y-25666667D01*
X12516033Y-25666667D02*
X12516033Y-25233333D01*
D13*
G04 #@! TO.C,J7*
X10710000Y-3565000D02*
X10710000Y-4515000D01*
X9760000Y-3565000D02*
X10710000Y-3565000D01*
X6790000Y-3935000D02*
X6790000Y-7665000D01*
X10710000Y-4515000D02*
X11400000Y-4515000D01*
X10710000Y-8035000D02*
X10710000Y-7085000D01*
X9760000Y-8035000D02*
X10710000Y-8035000D01*
G04 #@! TO.C,JP1*
X22150000Y-10100000D02*
X22150000Y-9500000D01*
X22850000Y-8800000D02*
X24250000Y-8800000D01*
X24250000Y-10800000D02*
X22850000Y-10800000D01*
X24950000Y-9500000D02*
X24950000Y-10100000D01*
X22150000Y-9500000D02*
G75*
G02*
X22850000Y-8800000I699999J1D01*
G01*
X22850000Y-10800000D02*
G75*
G02*
X22150000Y-10100000I-1J699999D01*
G01*
X24250000Y-8800000D02*
G75*
G02*
X24950000Y-9500000I0J-700000D01*
G01*
X24950000Y-10100000D02*
G75*
G02*
X24250000Y-10800000I-700000J0D01*
G01*
G04 #@! TO.C,J6*
X26790000Y-3935000D02*
X26790000Y-7665000D01*
X29760000Y-3565000D02*
X30710000Y-3565000D01*
X29760000Y-8035000D02*
X30710000Y-8035000D01*
X30710000Y-3565000D02*
X30710000Y-4515000D01*
X30710000Y-4515000D02*
X31400000Y-4515000D01*
X30710000Y-8035000D02*
X30710000Y-7085000D01*
G04 #@! TO.C,J4*
X16390000Y-33815000D02*
X17440000Y-33815000D01*
X16390000Y-36315000D02*
X16390000Y-33815000D01*
X17440000Y-33815000D02*
X17440000Y-32825000D01*
X17560000Y-38285000D02*
X21440000Y-38285000D01*
X22610000Y-33815000D02*
X21560000Y-33815000D01*
X22610000Y-36315000D02*
X22610000Y-33815000D01*
G04 #@! TO.C,J3*
X6640000Y-33815000D02*
X7690000Y-33815000D01*
X6640000Y-36315000D02*
X6640000Y-33815000D01*
X7690000Y-33815000D02*
X7690000Y-32825000D01*
X7810000Y-38285000D02*
X11690000Y-38285000D01*
X12860000Y-33815000D02*
X11810000Y-33815000D01*
X12860000Y-36315000D02*
X12860000Y-33815000D01*
G04 #@! TO.C,R2*
X22420000Y-7453641D02*
X22420000Y-7146359D01*
X23180000Y-7453641D02*
X23180000Y-7146359D01*
D14*
G04 #@! TO.C,U2*
G36*
X22128800Y-5990374D02*
G01*
X21874800Y-5990374D01*
X21874800Y-5609374D01*
X22128800Y-5609374D01*
X22128800Y-5990374D01*
G37*
D13*
G04 #@! TO.C,J1*
X17800000Y-12350000D02*
X19140000Y-12350000D01*
X17800000Y-13840000D02*
X17800000Y-12350000D01*
X17800000Y-25160000D02*
X16600000Y-25160000D01*
X17800000Y-25160000D02*
X17800000Y-26650000D01*
X17800000Y-26650000D02*
X19140000Y-26650000D01*
X21860000Y-26650000D02*
X23600000Y-26650000D01*
X23600000Y-12350000D02*
X21860000Y-12350000D01*
X23600000Y-26650000D02*
X23600000Y-12350000D01*
G04 #@! TO.C,R1*
X17146359Y-6420000D02*
X17453641Y-6420000D01*
X17146359Y-7180000D02*
X17453641Y-7180000D01*
G04 #@! TO.C,J5*
X30710000Y-34560000D02*
X30710000Y-33610000D01*
X30710000Y-31040000D02*
X31400000Y-31040000D01*
X30710000Y-30090000D02*
X30710000Y-31040000D01*
X29760000Y-34560000D02*
X30710000Y-34560000D01*
X29760000Y-30090000D02*
X30710000Y-30090000D01*
X26790000Y-30460000D02*
X26790000Y-34190000D01*
G04 #@! TO.C,C2*
X20661252Y-2565000D02*
X20138748Y-2565000D01*
X20661252Y-4035000D02*
X20138748Y-4035000D01*
G04 #@! TO.C,C3*
X17407836Y-7440000D02*
X17192164Y-7440000D01*
X17407836Y-8160000D02*
X17192164Y-8160000D01*
G04 #@! TO.C,C1*
X16665000Y-3788748D02*
X16665000Y-4311252D01*
X18135000Y-3788748D02*
X18135000Y-4311252D01*
G04 #@! TO.C,J2*
X2285000Y-11890000D02*
X185000Y-11890000D01*
X2285000Y-27110000D02*
X185000Y-27110000D01*
X7785000Y-11890000D02*
X4985000Y-11890000D01*
X7785000Y-27110000D02*
X4985000Y-27110000D01*
X11335000Y-12800000D02*
X11335000Y-14600000D01*
X11335000Y-24400000D02*
X11335000Y-26200000D01*
X12085000Y-24400000D02*
X11335000Y-24400000D01*
G04 #@! TD*
M02*
