G04 #@! TF.GenerationSoftware,KiCad,Pcbnew,8.0.4*
G04 #@! TF.CreationDate,2025-01-15T23:08:54-08:00*
G04 #@! TF.ProjectId,MIPItoHDMI_Buffered,4d495049-746f-4484-944d-495f42756666,rev?*
G04 #@! TF.SameCoordinates,Original*
G04 #@! TF.FileFunction,Copper,L1,Top*
G04 #@! TF.FilePolarity,Positive*
%FSLAX46Y46*%
G04 Gerber Fmt 4.6, Leading zero omitted, Abs format (unit mm)*
G04 Created by KiCad (PCBNEW 8.0.4) date 2025-01-15 23:08:54*
%MOMM*%
%LPD*%
G01*
G04 APERTURE LIST*
G04 #@! TA.AperFunction,SMDPad,CuDef*
%ADD10R,0.533400X0.558800*%
G04 #@! TD*
G04 #@! TA.AperFunction,SMDPad,CuDef*
%ADD11R,0.533400X0.279400*%
G04 #@! TD*
G04 #@! TA.AperFunction,SMDPad,CuDef*
%ADD12R,0.939800X2.844800*%
G04 #@! TD*
G04 #@! TA.AperFunction,SMDPad,CuDef*
%ADD13R,1.300000X0.300000*%
G04 #@! TD*
G04 #@! TA.AperFunction,SMDPad,CuDef*
%ADD14R,2.200000X1.800000*%
G04 #@! TD*
G04 #@! TA.AperFunction,SMDPad,CuDef*
%ADD15R,2.600000X0.300000*%
G04 #@! TD*
G04 #@! TA.AperFunction,ComponentPad*
%ADD16O,3.300000X1.500000*%
G04 #@! TD*
G04 #@! TA.AperFunction,ComponentPad*
%ADD17O,2.300000X1.500000*%
G04 #@! TD*
G04 #@! TA.AperFunction,ViaPad*
%ADD18C,0.450000*%
G04 #@! TD*
G04 #@! TA.AperFunction,Conductor*
%ADD19C,0.800000*%
G04 #@! TD*
G04 #@! TA.AperFunction,Conductor*
%ADD20C,0.250000*%
G04 #@! TD*
G04 #@! TA.AperFunction,Conductor*
%ADD21C,0.600000*%
G04 #@! TD*
G04 #@! TA.AperFunction,Conductor*
%ADD22C,0.300000*%
G04 #@! TD*
G04 #@! TA.AperFunction,Conductor*
%ADD23C,0.200000*%
G04 #@! TD*
G04 APERTURE END LIST*
G04 #@! TO.P,J7,1,Pin_1*
G04 #@! TO.N,GND*
G04 #@! TA.AperFunction,SMDPad,CuDef*
G36*
G01*
X10300000Y-4775000D02*
X11200000Y-4775000D01*
G75*
G02*
X11400000Y-4975000I0J-200000D01*
G01*
X11400000Y-5375000D01*
G75*
G02*
X11200000Y-5575000I-200000J0D01*
G01*
X10300000Y-5575000D01*
G75*
G02*
X10100000Y-5375000I0J200000D01*
G01*
X10100000Y-4975000D01*
G75*
G02*
X10300000Y-4775000I200000J0D01*
G01*
G37*
G04 #@! TD.AperFunction*
G04 #@! TO.P,J7,2,Pin_2*
G04 #@! TO.N,VDD*
G04 #@! TA.AperFunction,SMDPad,CuDef*
G36*
G01*
X10300000Y-6025000D02*
X11200000Y-6025000D01*
G75*
G02*
X11400000Y-6225000I0J-200000D01*
G01*
X11400000Y-6625000D01*
G75*
G02*
X11200000Y-6825000I-200000J0D01*
G01*
X10300000Y-6825000D01*
G75*
G02*
X10100000Y-6625000I0J200000D01*
G01*
X10100000Y-6225000D01*
G75*
G02*
X10300000Y-6025000I200000J0D01*
G01*
G37*
G04 #@! TD.AperFunction*
G04 #@! TO.P,J7,MP,Shield*
G04 #@! TO.N,GND*
G04 #@! TA.AperFunction,SMDPad,CuDef*
G36*
G01*
X6750001Y-1575000D02*
X9249999Y-1575000D01*
G75*
G02*
X9500000Y-1825001I0J-250001D01*
G01*
X9500000Y-3424999D01*
G75*
G02*
X9249999Y-3675000I-250001J0D01*
G01*
X6750001Y-3675000D01*
G75*
G02*
X6500000Y-3424999I0J250001D01*
G01*
X6500000Y-1825001D01*
G75*
G02*
X6750001Y-1575000I250001J0D01*
G01*
G37*
G04 #@! TD.AperFunction*
G04 #@! TA.AperFunction,SMDPad,CuDef*
G36*
G01*
X6750001Y-7925000D02*
X9249999Y-7925000D01*
G75*
G02*
X9500000Y-8175001I0J-250001D01*
G01*
X9500000Y-9774999D01*
G75*
G02*
X9249999Y-10025000I-250001J0D01*
G01*
X6750001Y-10025000D01*
G75*
G02*
X6500000Y-9774999I0J250001D01*
G01*
X6500000Y-8175001D01*
G75*
G02*
X6750001Y-7925000I250001J0D01*
G01*
G37*
G04 #@! TD.AperFunction*
G04 #@! TD*
G04 #@! TA.AperFunction,SMDPad,CuDef*
G04 #@! TO.P,JP1,1,A*
G04 #@! TO.N,VDD*
G36*
X23400000Y-10550000D02*
G01*
X22900000Y-10550000D01*
X22900000Y-10544911D01*
X22828843Y-10544911D01*
X22692292Y-10504816D01*
X22572570Y-10427875D01*
X22479373Y-10320320D01*
X22420254Y-10190866D01*
X22400000Y-10050000D01*
X22400000Y-9550000D01*
X22420254Y-9409134D01*
X22479373Y-9279680D01*
X22572570Y-9172125D01*
X22692292Y-9095184D01*
X22828843Y-9055089D01*
X22900000Y-9055089D01*
X22900000Y-9050000D01*
X23400000Y-9050000D01*
X23400000Y-10550000D01*
G37*
G04 #@! TD.AperFunction*
G04 #@! TA.AperFunction,SMDPad,CuDef*
G04 #@! TO.P,JP1,2,B*
G04 #@! TO.N,+3V3*
G36*
X24200000Y-9055089D02*
G01*
X24271157Y-9055089D01*
X24407708Y-9095184D01*
X24527430Y-9172125D01*
X24620627Y-9279680D01*
X24679746Y-9409134D01*
X24700000Y-9550000D01*
X24700000Y-10050000D01*
X24679746Y-10190866D01*
X24620627Y-10320320D01*
X24527430Y-10427875D01*
X24407708Y-10504816D01*
X24271157Y-10544911D01*
X24200000Y-10544911D01*
X24200000Y-10550000D01*
X23700000Y-10550000D01*
X23700000Y-9050000D01*
X24200000Y-9050000D01*
X24200000Y-9055089D01*
G37*
G04 #@! TD.AperFunction*
G04 #@! TD*
G04 #@! TO.P,J6,1,Pin_1*
G04 #@! TO.N,GND*
G04 #@! TA.AperFunction,SMDPad,CuDef*
G36*
G01*
X30300000Y-4775000D02*
X31200000Y-4775000D01*
G75*
G02*
X31400000Y-4975000I0J-200000D01*
G01*
X31400000Y-5375000D01*
G75*
G02*
X31200000Y-5575000I-200000J0D01*
G01*
X30300000Y-5575000D01*
G75*
G02*
X30100000Y-5375000I0J200000D01*
G01*
X30100000Y-4975000D01*
G75*
G02*
X30300000Y-4775000I200000J0D01*
G01*
G37*
G04 #@! TD.AperFunction*
G04 #@! TO.P,J6,2,Pin_2*
G04 #@! TO.N,+3V3*
G04 #@! TA.AperFunction,SMDPad,CuDef*
G36*
G01*
X30300000Y-6025000D02*
X31200000Y-6025000D01*
G75*
G02*
X31400000Y-6225000I0J-200000D01*
G01*
X31400000Y-6625000D01*
G75*
G02*
X31200000Y-6825000I-200000J0D01*
G01*
X30300000Y-6825000D01*
G75*
G02*
X30100000Y-6625000I0J200000D01*
G01*
X30100000Y-6225000D01*
G75*
G02*
X30300000Y-6025000I200000J0D01*
G01*
G37*
G04 #@! TD.AperFunction*
G04 #@! TO.P,J6,MP,Shield*
G04 #@! TO.N,GND*
G04 #@! TA.AperFunction,SMDPad,CuDef*
G36*
G01*
X26750001Y-1575000D02*
X29249999Y-1575000D01*
G75*
G02*
X29500000Y-1825001I0J-250001D01*
G01*
X29500000Y-3424999D01*
G75*
G02*
X29249999Y-3675000I-250001J0D01*
G01*
X26750001Y-3675000D01*
G75*
G02*
X26500000Y-3424999I0J250001D01*
G01*
X26500000Y-1825001D01*
G75*
G02*
X26750001Y-1575000I250001J0D01*
G01*
G37*
G04 #@! TD.AperFunction*
G04 #@! TA.AperFunction,SMDPad,CuDef*
G36*
G01*
X26750001Y-7925000D02*
X29249999Y-7925000D01*
G75*
G02*
X29500000Y-8175001I0J-250001D01*
G01*
X29500000Y-9774999D01*
G75*
G02*
X29249999Y-10025000I-250001J0D01*
G01*
X26750001Y-10025000D01*
G75*
G02*
X26500000Y-9774999I0J250001D01*
G01*
X26500000Y-8175001D01*
G75*
G02*
X26750001Y-7925000I250001J0D01*
G01*
G37*
G04 #@! TD.AperFunction*
G04 #@! TD*
G04 #@! TO.P,J4,1,Pin_1*
G04 #@! TO.N,GND*
G04 #@! TA.AperFunction,SMDPad,CuDef*
G36*
G01*
X17700000Y-34225000D02*
X17700000Y-32975000D01*
G75*
G02*
X17850000Y-32825000I150000J0D01*
G01*
X18150000Y-32825000D01*
G75*
G02*
X18300000Y-32975000I0J-150000D01*
G01*
X18300000Y-34225000D01*
G75*
G02*
X18150000Y-34375000I-150000J0D01*
G01*
X17850000Y-34375000D01*
G75*
G02*
X17700000Y-34225000I0J150000D01*
G01*
G37*
G04 #@! TD.AperFunction*
G04 #@! TO.P,J4,2,Pin_2*
G04 #@! TO.N,+3V3*
G04 #@! TA.AperFunction,SMDPad,CuDef*
G36*
G01*
X18700000Y-34225000D02*
X18700000Y-32975000D01*
G75*
G02*
X18850000Y-32825000I150000J0D01*
G01*
X19150000Y-32825000D01*
G75*
G02*
X19300000Y-32975000I0J-150000D01*
G01*
X19300000Y-34225000D01*
G75*
G02*
X19150000Y-34375000I-150000J0D01*
G01*
X18850000Y-34375000D01*
G75*
G02*
X18700000Y-34225000I0J150000D01*
G01*
G37*
G04 #@! TD.AperFunction*
G04 #@! TO.P,J4,3,Pin_3*
G04 #@! TO.N,SDA_3V3*
G04 #@! TA.AperFunction,SMDPad,CuDef*
G36*
G01*
X19700000Y-34225000D02*
X19700000Y-32975000D01*
G75*
G02*
X19850000Y-32825000I150000J0D01*
G01*
X20150000Y-32825000D01*
G75*
G02*
X20300000Y-32975000I0J-150000D01*
G01*
X20300000Y-34225000D01*
G75*
G02*
X20150000Y-34375000I-150000J0D01*
G01*
X19850000Y-34375000D01*
G75*
G02*
X19700000Y-34225000I0J150000D01*
G01*
G37*
G04 #@! TD.AperFunction*
G04 #@! TO.P,J4,4,Pin_4*
G04 #@! TO.N,SCL_3V3*
G04 #@! TA.AperFunction,SMDPad,CuDef*
G36*
G01*
X20700000Y-34225000D02*
X20700000Y-32975000D01*
G75*
G02*
X20850000Y-32825000I150000J0D01*
G01*
X21150000Y-32825000D01*
G75*
G02*
X21300000Y-32975000I0J-150000D01*
G01*
X21300000Y-34225000D01*
G75*
G02*
X21150000Y-34375000I-150000J0D01*
G01*
X20850000Y-34375000D01*
G75*
G02*
X20700000Y-34225000I0J150000D01*
G01*
G37*
G04 #@! TD.AperFunction*
G04 #@! TO.P,J4,MP,Shield*
G04 #@! TO.N,GND*
G04 #@! TA.AperFunction,SMDPad,CuDef*
G36*
G01*
X16100000Y-38125000D02*
X16100000Y-36825000D01*
G75*
G02*
X16350000Y-36575000I250000J0D01*
G01*
X17050000Y-36575000D01*
G75*
G02*
X17300000Y-36825000I0J-250000D01*
G01*
X17300000Y-38125000D01*
G75*
G02*
X17050000Y-38375000I-250000J0D01*
G01*
X16350000Y-38375000D01*
G75*
G02*
X16100000Y-38125000I0J250000D01*
G01*
G37*
G04 #@! TD.AperFunction*
G04 #@! TA.AperFunction,SMDPad,CuDef*
G36*
G01*
X21700000Y-38125000D02*
X21700000Y-36825000D01*
G75*
G02*
X21950000Y-36575000I250000J0D01*
G01*
X22650000Y-36575000D01*
G75*
G02*
X22900000Y-36825000I0J-250000D01*
G01*
X22900000Y-38125000D01*
G75*
G02*
X22650000Y-38375000I-250000J0D01*
G01*
X21950000Y-38375000D01*
G75*
G02*
X21700000Y-38125000I0J250000D01*
G01*
G37*
G04 #@! TD.AperFunction*
G04 #@! TD*
G04 #@! TO.P,J3,1,Pin_1*
G04 #@! TO.N,GND*
G04 #@! TA.AperFunction,SMDPad,CuDef*
G36*
G01*
X7950000Y-34225000D02*
X7950000Y-32975000D01*
G75*
G02*
X8100000Y-32825000I150000J0D01*
G01*
X8400000Y-32825000D01*
G75*
G02*
X8550000Y-32975000I0J-150000D01*
G01*
X8550000Y-34225000D01*
G75*
G02*
X8400000Y-34375000I-150000J0D01*
G01*
X8100000Y-34375000D01*
G75*
G02*
X7950000Y-34225000I0J150000D01*
G01*
G37*
G04 #@! TD.AperFunction*
G04 #@! TO.P,J3,2,Pin_2*
G04 #@! TO.N,+3V3*
G04 #@! TA.AperFunction,SMDPad,CuDef*
G36*
G01*
X8950000Y-34225000D02*
X8950000Y-32975000D01*
G75*
G02*
X9100000Y-32825000I150000J0D01*
G01*
X9400000Y-32825000D01*
G75*
G02*
X9550000Y-32975000I0J-150000D01*
G01*
X9550000Y-34225000D01*
G75*
G02*
X9400000Y-34375000I-150000J0D01*
G01*
X9100000Y-34375000D01*
G75*
G02*
X8950000Y-34225000I0J150000D01*
G01*
G37*
G04 #@! TD.AperFunction*
G04 #@! TO.P,J3,3,Pin_3*
G04 #@! TO.N,SDA_3V3*
G04 #@! TA.AperFunction,SMDPad,CuDef*
G36*
G01*
X9950000Y-34225000D02*
X9950000Y-32975000D01*
G75*
G02*
X10100000Y-32825000I150000J0D01*
G01*
X10400000Y-32825000D01*
G75*
G02*
X10550000Y-32975000I0J-150000D01*
G01*
X10550000Y-34225000D01*
G75*
G02*
X10400000Y-34375000I-150000J0D01*
G01*
X10100000Y-34375000D01*
G75*
G02*
X9950000Y-34225000I0J150000D01*
G01*
G37*
G04 #@! TD.AperFunction*
G04 #@! TO.P,J3,4,Pin_4*
G04 #@! TO.N,SCL_3V3*
G04 #@! TA.AperFunction,SMDPad,CuDef*
G36*
G01*
X10950000Y-34225000D02*
X10950000Y-32975000D01*
G75*
G02*
X11100000Y-32825000I150000J0D01*
G01*
X11400000Y-32825000D01*
G75*
G02*
X11550000Y-32975000I0J-150000D01*
G01*
X11550000Y-34225000D01*
G75*
G02*
X11400000Y-34375000I-150000J0D01*
G01*
X11100000Y-34375000D01*
G75*
G02*
X10950000Y-34225000I0J150000D01*
G01*
G37*
G04 #@! TD.AperFunction*
G04 #@! TO.P,J3,MP,Shield*
G04 #@! TO.N,GND*
G04 #@! TA.AperFunction,SMDPad,CuDef*
G36*
G01*
X6350000Y-38125000D02*
X6350000Y-36825000D01*
G75*
G02*
X6600000Y-36575000I250000J0D01*
G01*
X7300000Y-36575000D01*
G75*
G02*
X7550000Y-36825000I0J-250000D01*
G01*
X7550000Y-38125000D01*
G75*
G02*
X7300000Y-38375000I-250000J0D01*
G01*
X6600000Y-38375000D01*
G75*
G02*
X6350000Y-38125000I0J250000D01*
G01*
G37*
G04 #@! TD.AperFunction*
G04 #@! TA.AperFunction,SMDPad,CuDef*
G36*
G01*
X11950000Y-38125000D02*
X11950000Y-36825000D01*
G75*
G02*
X12200000Y-36575000I250000J0D01*
G01*
X12900000Y-36575000D01*
G75*
G02*
X13150000Y-36825000I0J-250000D01*
G01*
X13150000Y-38125000D01*
G75*
G02*
X12900000Y-38375000I-250000J0D01*
G01*
X12200000Y-38375000D01*
G75*
G02*
X11950000Y-38125000I0J250000D01*
G01*
G37*
G04 #@! TD.AperFunction*
G04 #@! TD*
G04 #@! TO.P,R2,1*
G04 #@! TO.N,GND*
G04 #@! TA.AperFunction,SMDPad,CuDef*
G36*
G01*
X22985000Y-8080000D02*
X22615000Y-8080000D01*
G75*
G02*
X22480000Y-7945000I0J135000D01*
G01*
X22480000Y-7675000D01*
G75*
G02*
X22615000Y-7540000I135000J0D01*
G01*
X22985000Y-7540000D01*
G75*
G02*
X23120000Y-7675000I0J-135000D01*
G01*
X23120000Y-7945000D01*
G75*
G02*
X22985000Y-8080000I-135000J0D01*
G01*
G37*
G04 #@! TD.AperFunction*
G04 #@! TO.P,R2,2*
G04 #@! TO.N,Net-(U2-FB{slash}VSET)*
G04 #@! TA.AperFunction,SMDPad,CuDef*
G36*
G01*
X22985000Y-7060000D02*
X22615000Y-7060000D01*
G75*
G02*
X22480000Y-6925000I0J135000D01*
G01*
X22480000Y-6655000D01*
G75*
G02*
X22615000Y-6520000I135000J0D01*
G01*
X22985000Y-6520000D01*
G75*
G02*
X23120000Y-6655000I0J-135000D01*
G01*
X23120000Y-6925000D01*
G75*
G02*
X22985000Y-7060000I-135000J0D01*
G01*
G37*
G04 #@! TD.AperFunction*
G04 #@! TD*
D10*
G04 #@! TO.P,U2,1,VIN*
G04 #@! TO.N,VDD*
X19245900Y-5162499D03*
D11*
G04 #@! TO.P,U2,2,VIN*
X19245900Y-5799874D03*
G04 #@! TO.P,U2,3,EN*
X19245900Y-6300000D03*
G04 #@! TO.P,U2,4,MODE/S-CONF*
G04 #@! TO.N,Net-(U2-MODE{slash}S-CONF)*
X19245900Y-6800126D03*
D10*
G04 #@! TO.P,U2,5,SS/TR*
G04 #@! TO.N,Net-(U2-SS{slash}TR)*
X19245900Y-7437501D03*
G04 #@! TO.P,U2,6,PG*
G04 #@! TO.N,unconnected-(U2-PG-Pad6)*
X21354100Y-7437501D03*
D11*
G04 #@! TO.P,U2,7,FB/VSET*
G04 #@! TO.N,Net-(U2-FB{slash}VSET)*
X21354100Y-6800126D03*
G04 #@! TO.P,U2,8,SW/NC*
G04 #@! TO.N,unconnected-(U2-SW{slash}NC-Pad8)*
X21354100Y-6300000D03*
G04 #@! TO.P,U2,9,VOUT*
G04 #@! TO.N,+3V3*
X21354100Y-5799874D03*
D10*
G04 #@! TO.P,U2,10,VOUT*
X21354100Y-5162499D03*
D12*
G04 #@! TO.P,U2,11,GND*
G04 #@! TO.N,GND*
X20300000Y-6300000D03*
G04 #@! TD*
D13*
G04 #@! TO.P,J1,1,Pin_1*
G04 #@! TO.N,+3V3*
X17250000Y-24750000D03*
G04 #@! TO.P,J1,2,Pin_2*
G04 #@! TO.N,SDA_3V3*
X17250000Y-24250000D03*
G04 #@! TO.P,J1,3,Pin_3*
G04 #@! TO.N,SCL_3V3*
X17250000Y-23750000D03*
G04 #@! TO.P,J1,4,Pin_4*
G04 #@! TO.N,GND*
X17250000Y-23250000D03*
G04 #@! TO.P,J1,5,Pin_5*
G04 #@! TO.N,unconnected-(J1-Pin_5-Pad5)*
X17250000Y-22750000D03*
G04 #@! TO.P,J1,6,Pin_6*
G04 #@! TO.N,CAM_EN*
X17250000Y-22250000D03*
G04 #@! TO.P,J1,7,Pin_7*
G04 #@! TO.N,GND*
X17250000Y-21750000D03*
G04 #@! TO.P,J1,8,Pin_8*
G04 #@! TO.N,CAM_D3_P*
X17250000Y-21250000D03*
G04 #@! TO.P,J1,9,Pin_9*
G04 #@! TO.N,CAM_D3_N*
X17250000Y-20750000D03*
G04 #@! TO.P,J1,10,Pin_10*
G04 #@! TO.N,GND*
X17250000Y-20250000D03*
G04 #@! TO.P,J1,11,Pin_11*
G04 #@! TO.N,CAM_D2_P*
X17250000Y-19750000D03*
G04 #@! TO.P,J1,12,Pin_12*
G04 #@! TO.N,CAM_D2_N*
X17250000Y-19250000D03*
G04 #@! TO.P,J1,13,Pin_13*
G04 #@! TO.N,GND*
X17250000Y-18750000D03*
G04 #@! TO.P,J1,14,Pin_14*
G04 #@! TO.N,CAM_CLK_P*
X17250000Y-18250000D03*
G04 #@! TO.P,J1,15,Pin_15*
G04 #@! TO.N,CAM_CLK_N*
X17250000Y-17750000D03*
G04 #@! TO.P,J1,16,Pin_16*
G04 #@! TO.N,GND*
X17250000Y-17250000D03*
G04 #@! TO.P,J1,17,Pin_17*
G04 #@! TO.N,CAM_D1_P*
X17250000Y-16750000D03*
G04 #@! TO.P,J1,18,Pin_18*
G04 #@! TO.N,CAM_D1_N*
X17250000Y-16250000D03*
G04 #@! TO.P,J1,19,Pin_19*
G04 #@! TO.N,GND*
X17250000Y-15750000D03*
G04 #@! TO.P,J1,20,Pin_20*
G04 #@! TO.N,CAM_D0_P*
X17250000Y-15250000D03*
G04 #@! TO.P,J1,21,Pin_21*
G04 #@! TO.N,CAM_D0_N*
X17250000Y-14750000D03*
G04 #@! TO.P,J1,22,Pin_22*
G04 #@! TO.N,GND*
X17250000Y-14250000D03*
D14*
G04 #@! TO.P,J1,MP,Shield*
X20500000Y-26650000D03*
X20500000Y-12350000D03*
G04 #@! TD*
G04 #@! TO.P,R1,1*
G04 #@! TO.N,GND*
G04 #@! TA.AperFunction,SMDPad,CuDef*
G36*
G01*
X16520000Y-6985000D02*
X16520000Y-6615000D01*
G75*
G02*
X16655000Y-6480000I135000J0D01*
G01*
X16925000Y-6480000D01*
G75*
G02*
X17060000Y-6615000I0J-135000D01*
G01*
X17060000Y-6985000D01*
G75*
G02*
X16925000Y-7120000I-135000J0D01*
G01*
X16655000Y-7120000D01*
G75*
G02*
X16520000Y-6985000I0J135000D01*
G01*
G37*
G04 #@! TD.AperFunction*
G04 #@! TO.P,R1,2*
G04 #@! TO.N,Net-(U2-MODE{slash}S-CONF)*
G04 #@! TA.AperFunction,SMDPad,CuDef*
G36*
G01*
X17540000Y-6985000D02*
X17540000Y-6615000D01*
G75*
G02*
X17675000Y-6480000I135000J0D01*
G01*
X17945000Y-6480000D01*
G75*
G02*
X18080000Y-6615000I0J-135000D01*
G01*
X18080000Y-6985000D01*
G75*
G02*
X17945000Y-7120000I-135000J0D01*
G01*
X17675000Y-7120000D01*
G75*
G02*
X17540000Y-6985000I0J135000D01*
G01*
G37*
G04 #@! TD.AperFunction*
G04 #@! TD*
G04 #@! TO.P,J5,MP,Shield*
G04 #@! TO.N,GND*
G04 #@! TA.AperFunction,SMDPad,CuDef*
G36*
G01*
X26750001Y-34450000D02*
X29249999Y-34450000D01*
G75*
G02*
X29500000Y-34700001I0J-250001D01*
G01*
X29500000Y-36299999D01*
G75*
G02*
X29249999Y-36550000I-250001J0D01*
G01*
X26750001Y-36550000D01*
G75*
G02*
X26500000Y-36299999I0J250001D01*
G01*
X26500000Y-34700001D01*
G75*
G02*
X26750001Y-34450000I250001J0D01*
G01*
G37*
G04 #@! TD.AperFunction*
G04 #@! TA.AperFunction,SMDPad,CuDef*
G36*
G01*
X26750001Y-28100000D02*
X29249999Y-28100000D01*
G75*
G02*
X29500000Y-28350001I0J-250001D01*
G01*
X29500000Y-29949999D01*
G75*
G02*
X29249999Y-30200000I-250001J0D01*
G01*
X26750001Y-30200000D01*
G75*
G02*
X26500000Y-29949999I0J250001D01*
G01*
X26500000Y-28350001D01*
G75*
G02*
X26750001Y-28100000I250001J0D01*
G01*
G37*
G04 #@! TD.AperFunction*
G04 #@! TO.P,J5,2,Pin_2*
G04 #@! TO.N,VDD*
G04 #@! TA.AperFunction,SMDPad,CuDef*
G36*
G01*
X30300000Y-32550000D02*
X31200000Y-32550000D01*
G75*
G02*
X31400000Y-32750000I0J-200000D01*
G01*
X31400000Y-33150000D01*
G75*
G02*
X31200000Y-33350000I-200000J0D01*
G01*
X30300000Y-33350000D01*
G75*
G02*
X30100000Y-33150000I0J200000D01*
G01*
X30100000Y-32750000D01*
G75*
G02*
X30300000Y-32550000I200000J0D01*
G01*
G37*
G04 #@! TD.AperFunction*
G04 #@! TO.P,J5,1,Pin_1*
G04 #@! TO.N,GND*
G04 #@! TA.AperFunction,SMDPad,CuDef*
G36*
G01*
X30300000Y-31300000D02*
X31200000Y-31300000D01*
G75*
G02*
X31400000Y-31500000I0J-200000D01*
G01*
X31400000Y-31900000D01*
G75*
G02*
X31200000Y-32100000I-200000J0D01*
G01*
X30300000Y-32100000D01*
G75*
G02*
X30100000Y-31900000I0J200000D01*
G01*
X30100000Y-31500000D01*
G75*
G02*
X30300000Y-31300000I200000J0D01*
G01*
G37*
G04 #@! TD.AperFunction*
G04 #@! TD*
G04 #@! TO.P,C2,1*
G04 #@! TO.N,+3V3*
G04 #@! TA.AperFunction,SMDPad,CuDef*
G36*
G01*
X21850000Y-2825000D02*
X21850000Y-3775000D01*
G75*
G02*
X21600000Y-4025000I-250000J0D01*
G01*
X21100000Y-4025000D01*
G75*
G02*
X20850000Y-3775000I0J250000D01*
G01*
X20850000Y-2825000D01*
G75*
G02*
X21100000Y-2575000I250000J0D01*
G01*
X21600000Y-2575000D01*
G75*
G02*
X21850000Y-2825000I0J-250000D01*
G01*
G37*
G04 #@! TD.AperFunction*
G04 #@! TO.P,C2,2*
G04 #@! TO.N,GND*
G04 #@! TA.AperFunction,SMDPad,CuDef*
G36*
G01*
X19950000Y-2825000D02*
X19950000Y-3775000D01*
G75*
G02*
X19700000Y-4025000I-250000J0D01*
G01*
X19200000Y-4025000D01*
G75*
G02*
X18950000Y-3775000I0J250000D01*
G01*
X18950000Y-2825000D01*
G75*
G02*
X19200000Y-2575000I250000J0D01*
G01*
X19700000Y-2575000D01*
G75*
G02*
X19950000Y-2825000I0J-250000D01*
G01*
G37*
G04 #@! TD.AperFunction*
G04 #@! TD*
G04 #@! TO.P,C3,1*
G04 #@! TO.N,Net-(U2-SS{slash}TR)*
G04 #@! TA.AperFunction,SMDPad,CuDef*
G36*
G01*
X18060000Y-7630000D02*
X18060000Y-7970000D01*
G75*
G02*
X17920000Y-8110000I-140000J0D01*
G01*
X17640000Y-8110000D01*
G75*
G02*
X17500000Y-7970000I0J140000D01*
G01*
X17500000Y-7630000D01*
G75*
G02*
X17640000Y-7490000I140000J0D01*
G01*
X17920000Y-7490000D01*
G75*
G02*
X18060000Y-7630000I0J-140000D01*
G01*
G37*
G04 #@! TD.AperFunction*
G04 #@! TO.P,C3,2*
G04 #@! TO.N,GND*
G04 #@! TA.AperFunction,SMDPad,CuDef*
G36*
G01*
X17100000Y-7630000D02*
X17100000Y-7970000D01*
G75*
G02*
X16960000Y-8110000I-140000J0D01*
G01*
X16680000Y-8110000D01*
G75*
G02*
X16540000Y-7970000I0J140000D01*
G01*
X16540000Y-7630000D01*
G75*
G02*
X16680000Y-7490000I140000J0D01*
G01*
X16960000Y-7490000D01*
G75*
G02*
X17100000Y-7630000I0J-140000D01*
G01*
G37*
G04 #@! TD.AperFunction*
G04 #@! TD*
G04 #@! TO.P,C1,1*
G04 #@! TO.N,GND*
G04 #@! TA.AperFunction,SMDPad,CuDef*
G36*
G01*
X16925000Y-2600000D02*
X17875000Y-2600000D01*
G75*
G02*
X18125000Y-2850000I0J-250000D01*
G01*
X18125000Y-3350000D01*
G75*
G02*
X17875000Y-3600000I-250000J0D01*
G01*
X16925000Y-3600000D01*
G75*
G02*
X16675000Y-3350000I0J250000D01*
G01*
X16675000Y-2850000D01*
G75*
G02*
X16925000Y-2600000I250000J0D01*
G01*
G37*
G04 #@! TD.AperFunction*
G04 #@! TO.P,C1,2*
G04 #@! TO.N,VDD*
G04 #@! TA.AperFunction,SMDPad,CuDef*
G36*
G01*
X16925000Y-4500000D02*
X17875000Y-4500000D01*
G75*
G02*
X18125000Y-4750000I0J-250000D01*
G01*
X18125000Y-5250000D01*
G75*
G02*
X17875000Y-5500000I-250000J0D01*
G01*
X16925000Y-5500000D01*
G75*
G02*
X16675000Y-5250000I0J250000D01*
G01*
X16675000Y-4750000D01*
G75*
G02*
X16925000Y-4500000I250000J0D01*
G01*
G37*
G04 #@! TD.AperFunction*
G04 #@! TD*
D15*
G04 #@! TO.P,J2,1,D2+*
G04 #@! TO.N,CAM_D3_P*
X10385000Y-24000000D03*
G04 #@! TO.P,J2,2,D2S*
G04 #@! TO.N,GND*
X10385000Y-23500000D03*
G04 #@! TO.P,J2,3,D2-*
G04 #@! TO.N,CAM_D3_N*
X10385000Y-23000000D03*
G04 #@! TO.P,J2,4,D1+*
G04 #@! TO.N,CAM_D2_P*
X10385000Y-22500000D03*
G04 #@! TO.P,J2,5,D1S*
G04 #@! TO.N,GND*
X10385000Y-22000000D03*
G04 #@! TO.P,J2,6,D1-*
G04 #@! TO.N,CAM_D2_N*
X10385000Y-21500000D03*
G04 #@! TO.P,J2,7,D0+*
G04 #@! TO.N,CAM_CLK_P*
X10385000Y-21000000D03*
G04 #@! TO.P,J2,8,D0S*
G04 #@! TO.N,GND*
X10385000Y-20500000D03*
G04 #@! TO.P,J2,9,D0-*
G04 #@! TO.N,CAM_CLK_N*
X10385000Y-20000000D03*
G04 #@! TO.P,J2,10,CK+*
G04 #@! TO.N,CAM_D1_P*
X10385000Y-19500000D03*
G04 #@! TO.P,J2,11,CKS*
G04 #@! TO.N,GND*
X10385000Y-19000000D03*
G04 #@! TO.P,J2,12,CK-*
G04 #@! TO.N,CAM_D1_N*
X10385000Y-18500000D03*
G04 #@! TO.P,J2,13,CEC*
G04 #@! TO.N,CAM_EN*
X10385000Y-18000000D03*
G04 #@! TO.P,J2,14,UTILITY/HEAC+*
G04 #@! TO.N,CAM_D0_P*
X10385000Y-17500000D03*
G04 #@! TO.P,J2,15,SCL*
G04 #@! TO.N,SCL_3V3*
X10385000Y-17000000D03*
G04 #@! TO.P,J2,16,SDA*
G04 #@! TO.N,SDA_3V3*
X10385000Y-16500000D03*
G04 #@! TO.P,J2,17,GND*
G04 #@! TO.N,GND*
X10385000Y-16000000D03*
G04 #@! TO.P,J2,18,+5V*
G04 #@! TO.N,VDD*
X10385000Y-15500000D03*
G04 #@! TO.P,J2,19,HPD/HEAC-*
G04 #@! TO.N,CAM_D0_N*
X10385000Y-15000000D03*
D16*
G04 #@! TO.P,J2,SH,SH*
G04 #@! TO.N,GND*
X9625000Y-26750000D03*
X9625000Y-12250000D03*
D17*
X3665000Y-26750000D03*
X3665000Y-12250000D03*
G04 #@! TD*
D18*
G04 #@! TO.N,GND*
X22200000Y-12350000D03*
X18900000Y-12350000D03*
G04 #@! TO.N,VDD*
X10750000Y-6425000D03*
G04 #@! TO.N,GND*
X21400000Y-8200000D03*
X19250000Y-8200000D03*
X29600000Y-31700000D03*
X30800000Y-30850000D03*
G04 #@! TO.N,VDD*
X29250000Y-32950000D03*
X22900000Y-9800000D03*
X8300000Y-15100000D03*
X15650000Y-5550000D03*
X15650000Y-4800000D03*
X16350000Y-5550000D03*
X16350000Y-4800000D03*
G04 #@! TO.N,GND*
X30700000Y-4400000D03*
X8250000Y-32500000D03*
X16200000Y-7800000D03*
X18350000Y-18750000D03*
X20300000Y-4450000D03*
X20300000Y-6300000D03*
X11900000Y-16000000D03*
X8615000Y-20500000D03*
X10400000Y-4200000D03*
X11250000Y-4200000D03*
X8200000Y-15900000D03*
X19750000Y-2000000D03*
X18350000Y-21750000D03*
X8615000Y-23500000D03*
X18350000Y-15750000D03*
X18500000Y-2750000D03*
X21800000Y-32400000D03*
X21100000Y-30500000D03*
X31900000Y-5200000D03*
X18350000Y-20250000D03*
X12100000Y-31000000D03*
X18350000Y-23250000D03*
X17850000Y-2100000D03*
X18850000Y-2000000D03*
X16300000Y-2800000D03*
X22000000Y-26700000D03*
X20300000Y-8200000D03*
X16400000Y-26600000D03*
X19000000Y-26700000D03*
X17300000Y-33600000D03*
X13800000Y-26750000D03*
X16100000Y-23100000D03*
X18500000Y-3950000D03*
X17950000Y-32450000D03*
X22800000Y-8450000D03*
X16200000Y-6800000D03*
X16950000Y-2100000D03*
X8615000Y-19000000D03*
X29600000Y-5200000D03*
X18350000Y-17250000D03*
X18350000Y-14250000D03*
X16300000Y-3900000D03*
X8615000Y-22000000D03*
X7600000Y-33600000D03*
G04 #@! TO.N,SCL_3V3*
X16400000Y-27250000D03*
X15200000Y-27250000D03*
X11250000Y-29500000D03*
X11250000Y-30900000D03*
G04 #@! TD*
D19*
G04 #@! TO.N,+3V3*
X24100000Y-7950000D02*
X24100000Y-9700000D01*
X24100000Y-9700000D02*
X24200000Y-9800000D01*
X25050000Y-7000000D02*
X24100000Y-7950000D01*
X24100000Y-9900000D02*
X24100000Y-23150000D01*
X24200000Y-9800000D02*
X24100000Y-9900000D01*
X25325000Y-6425000D02*
X26050000Y-6425000D01*
X26050000Y-6425000D02*
X25625000Y-6425000D01*
X30775000Y-6425000D02*
X26050000Y-6425000D01*
X24625000Y-5725000D02*
X24150000Y-5250000D01*
X24625000Y-5725000D02*
X25325000Y-6425000D01*
X25050000Y-6150000D02*
X24625000Y-5725000D01*
X25050000Y-7000000D02*
X25050000Y-6150000D01*
X25625000Y-6425000D02*
X25050000Y-7000000D01*
D20*
G04 #@! TO.N,SCL_3V3*
X21000000Y-31850000D02*
X16400000Y-27250000D01*
X21000000Y-33600000D02*
X21000000Y-31850000D01*
D21*
G04 #@! TO.N,VDD*
X29250000Y-32950000D02*
X30750000Y-32950000D01*
D19*
G04 #@! TO.N,+3V3*
X24100000Y-27800000D02*
X24100000Y-33600000D01*
X24100000Y-23150000D02*
X24100000Y-24300000D01*
X24100000Y-23150000D02*
X24100000Y-27800000D01*
X24100000Y-25200000D02*
X24100000Y-27800000D01*
X24100000Y-24300000D02*
X23650000Y-24750000D01*
X23650000Y-24750000D02*
X24100000Y-25200000D01*
X18400000Y-24750000D02*
X23650000Y-24750000D01*
X24100000Y-33600000D02*
X22300000Y-35400000D01*
X22300000Y-35400000D02*
X19000000Y-35400000D01*
D22*
G04 #@! TO.N,VDD*
X8700000Y-15500000D02*
X10385000Y-15500000D01*
X8300000Y-15100000D02*
X8700000Y-15500000D01*
D23*
G04 #@! TO.N,CAM_D1_N*
X12610001Y-18775000D02*
X12706800Y-18775000D01*
X16274999Y-16250000D02*
X17250000Y-16250000D01*
X16249999Y-16275000D02*
X16274999Y-16250000D01*
X12706800Y-18775000D02*
X15206800Y-16275000D01*
X12335001Y-18500000D02*
X12610001Y-18775000D01*
X15206800Y-16275000D02*
X16249999Y-16275000D01*
X10385000Y-18500000D02*
X12335001Y-18500000D01*
D20*
G04 #@! TO.N,GND*
X10385000Y-19000000D02*
X8615000Y-19000000D01*
X10385000Y-23500000D02*
X8615000Y-23500000D01*
X18350000Y-18750000D02*
X17250000Y-18750000D01*
X17250000Y-21750000D02*
X18350000Y-21750000D01*
X17250000Y-14250000D02*
X18350000Y-14250000D01*
X18350000Y-20250000D02*
X17250000Y-20250000D01*
X17250000Y-23250000D02*
X18350000Y-23250000D01*
X10385000Y-22000000D02*
X8615000Y-22000000D01*
X10385000Y-16000000D02*
X11900000Y-16000000D01*
X18350000Y-17250000D02*
X17250000Y-17250000D01*
X18350000Y-15750000D02*
X17250000Y-15750000D01*
X10385000Y-20500000D02*
X8615000Y-20500000D01*
D23*
G04 #@! TO.N,CAM_D3_N*
X13206800Y-23275000D02*
X15706800Y-20775000D01*
X12610001Y-23275000D02*
X13206800Y-23275000D01*
X12335001Y-23000000D02*
X12610001Y-23275000D01*
X16249999Y-20775000D02*
X16274999Y-20750000D01*
X15706800Y-20775000D02*
X16249999Y-20775000D01*
X16274999Y-20750000D02*
X17250000Y-20750000D01*
X10385000Y-23000000D02*
X12335001Y-23000000D01*
D20*
G04 #@! TO.N,SDA_3V3*
X15750000Y-24850000D02*
X16350000Y-24250000D01*
X7300000Y-30200000D02*
X9300000Y-30200000D01*
X15750000Y-27550000D02*
X15750000Y-24850000D01*
X5900000Y-28800000D02*
X7300000Y-30200000D01*
X5900000Y-18300000D02*
X5900000Y-28800000D01*
X10050000Y-30200000D02*
X10450000Y-30200000D01*
X10450000Y-30200000D02*
X13100000Y-30200000D01*
X9700000Y-30200000D02*
X10050000Y-30200000D01*
X10250000Y-30400000D02*
X10450000Y-30200000D01*
X10385000Y-16500000D02*
X7700000Y-16500000D01*
X20000000Y-31800000D02*
X15750000Y-27550000D01*
X7700000Y-16500000D02*
X5900000Y-18300000D01*
X20000000Y-33600000D02*
X20000000Y-31800000D01*
X9300000Y-30200000D02*
X9700000Y-30200000D01*
X16350000Y-24250000D02*
X17250000Y-24250000D01*
X10250000Y-33600000D02*
X10250000Y-30400000D01*
X13100000Y-30200000D02*
X15750000Y-27550000D01*
X10250000Y-30400000D02*
X10050000Y-30200000D01*
D23*
G04 #@! TO.N,CAM_D3_P*
X12335001Y-24000000D02*
X12610001Y-23725000D01*
X16274999Y-21250000D02*
X17250000Y-21250000D01*
X12610001Y-23725000D02*
X13393200Y-23725000D01*
X15893200Y-21225000D02*
X16249999Y-21225000D01*
X16249999Y-21225000D02*
X16274999Y-21250000D01*
X13393200Y-23725000D02*
X15893200Y-21225000D01*
X10385000Y-24000000D02*
X12335001Y-24000000D01*
G04 #@! TO.N,CAM_D0_N*
X10385000Y-15000000D02*
X12335001Y-15000000D01*
X14242726Y-14218375D02*
X15201219Y-14218375D01*
X12335001Y-15000000D02*
X13385001Y-16050000D01*
X16274999Y-14750000D02*
X17250000Y-14750000D01*
X13800000Y-14661101D02*
X14242726Y-14218375D01*
X15201219Y-14218375D02*
X15782844Y-14800000D01*
X13385001Y-16050000D02*
X13517591Y-16050000D01*
X16224999Y-14800000D02*
X16274999Y-14750000D01*
X13517591Y-16050000D02*
X13800000Y-15767591D01*
X15782844Y-14800000D02*
X16224999Y-14800000D01*
X13800000Y-15767591D02*
X13800000Y-14661101D01*
D20*
G04 #@! TO.N,SCL_3V3*
X16150000Y-23750000D02*
X17250000Y-23750000D01*
X15200000Y-27250000D02*
X15200000Y-24700000D01*
X6600000Y-18550000D02*
X8150000Y-17000000D01*
X11250000Y-33600000D02*
X11250000Y-30900000D01*
X15200000Y-27250000D02*
X12950000Y-29500000D01*
X12950000Y-29500000D02*
X11250000Y-29500000D01*
X7600000Y-29500000D02*
X6600000Y-28500000D01*
X6600000Y-28500000D02*
X6600000Y-18550000D01*
X11250000Y-29500000D02*
X7600000Y-29500000D01*
X15200000Y-24700000D02*
X16150000Y-23750000D01*
X8150000Y-17000000D02*
X10385000Y-17000000D01*
D19*
G04 #@! TO.N,+3V3*
X19000000Y-33600000D02*
X19000000Y-35400000D01*
X10050000Y-35400000D02*
X9250000Y-34600000D01*
D22*
X17250000Y-24750000D02*
X18400000Y-24750000D01*
D19*
X19000000Y-35400000D02*
X10050000Y-35400000D01*
X9250000Y-34600000D02*
X9250000Y-33600000D01*
D23*
G04 #@! TO.N,CAM_D2_P*
X16274999Y-19750000D02*
X17250000Y-19750000D01*
X10385000Y-22500000D02*
X12335001Y-22500000D01*
X13293200Y-22225000D02*
X15793200Y-19725000D01*
X15793200Y-19725000D02*
X16249999Y-19725000D01*
X12610001Y-22225000D02*
X13293200Y-22225000D01*
X12335001Y-22500000D02*
X12610001Y-22225000D01*
X16249999Y-19725000D02*
X16274999Y-19750000D01*
D20*
G04 #@! TO.N,CAM_EN*
X7800000Y-28800000D02*
X7300000Y-28300000D01*
X7300000Y-18800000D02*
X8100000Y-18000000D01*
X7300000Y-28300000D02*
X7300000Y-18800000D01*
X16050000Y-22250000D02*
X14500000Y-23800000D01*
X14500000Y-23800000D02*
X14500000Y-26950000D01*
X8100000Y-18000000D02*
X10385000Y-18000000D01*
X17250000Y-22250000D02*
X16050000Y-22250000D01*
X12650000Y-28800000D02*
X7800000Y-28800000D01*
X14500000Y-26950000D02*
X12650000Y-28800000D01*
D23*
G04 #@! TO.N,CAM_D2_N*
X16249999Y-19275000D02*
X16274999Y-19250000D01*
X15606800Y-19275000D02*
X16249999Y-19275000D01*
X12335001Y-21500000D02*
X12610001Y-21775000D01*
X10385000Y-21500000D02*
X12335001Y-21500000D01*
X12610001Y-21775000D02*
X13106800Y-21775000D01*
X16274999Y-19250000D02*
X17250000Y-19250000D01*
X13106800Y-21775000D02*
X15606800Y-19275000D01*
G04 #@! TO.N,CAM_CLK_P*
X13193200Y-20725000D02*
X15693200Y-18225000D01*
X12335001Y-21000000D02*
X12610001Y-20725000D01*
X16274999Y-18250000D02*
X17250000Y-18250000D01*
X12610001Y-20725000D02*
X13193200Y-20725000D01*
X10385000Y-21000000D02*
X12335001Y-21000000D01*
X15693200Y-18225000D02*
X16249999Y-18225000D01*
X16249999Y-18225000D02*
X16274999Y-18250000D01*
G04 #@! TO.N,CAM_D1_P*
X16274999Y-16750000D02*
X17250000Y-16750000D01*
X12893200Y-19225000D02*
X15393200Y-16725000D01*
X12610001Y-19225000D02*
X12893200Y-19225000D01*
X10385000Y-19500000D02*
X12335001Y-19500000D01*
X15393200Y-16725000D02*
X16249999Y-16725000D01*
X12335001Y-19500000D02*
X12610001Y-19225000D01*
X16249999Y-16725000D02*
X16274999Y-16750000D01*
G04 #@! TO.N,CAM_CLK_N*
X16249999Y-17775000D02*
X16274999Y-17750000D01*
X12335001Y-20000000D02*
X12610001Y-20275000D01*
X12610001Y-20275000D02*
X13006800Y-20275000D01*
X15506800Y-17775000D02*
X16249999Y-17775000D01*
X10385000Y-20000000D02*
X12335001Y-20000000D01*
X16274999Y-17750000D02*
X17250000Y-17750000D01*
X13006800Y-20275000D02*
X15506800Y-17775000D01*
G04 #@! TO.N,CAM_D0_P*
X13683279Y-16450000D02*
X14200000Y-15933279D01*
X15035531Y-14618375D02*
X15617156Y-15200000D01*
X14200000Y-15933279D02*
X14200000Y-14826789D01*
X14200000Y-14826789D02*
X14408414Y-14618375D01*
X14408414Y-14618375D02*
X15035531Y-14618375D01*
X15617156Y-15200000D02*
X16224999Y-15200000D01*
X13385001Y-16450000D02*
X13683279Y-16450000D01*
X16274999Y-15250000D02*
X17250000Y-15250000D01*
X12335001Y-17500000D02*
X13385001Y-16450000D01*
X10385000Y-17500000D02*
X12335001Y-17500000D01*
X16224999Y-15200000D02*
X16274999Y-15250000D01*
G04 #@! TO.N,Net-(U2-SS{slash}TR)*
X19245900Y-7437501D02*
X18142499Y-7437501D01*
X18142499Y-7437501D02*
X17780000Y-7800000D01*
G04 #@! TO.N,Net-(U2-MODE{slash}S-CONF)*
X19245900Y-6800126D02*
X17810126Y-6800126D01*
X17810126Y-6800126D02*
X17810000Y-6800000D01*
G04 #@! TO.N,Net-(U2-FB{slash}VSET)*
X22789874Y-6800126D02*
X22800000Y-6790000D01*
X21354100Y-6800126D02*
X22789874Y-6800126D01*
G04 #@! TD*
G04 #@! TA.AperFunction,Conductor*
G04 #@! TO.N,+3V3*
G36*
X24214352Y-2514352D02*
G01*
X25035648Y-3335648D01*
X25050000Y-3370296D01*
X25050000Y-5951000D01*
X25035648Y-5985648D01*
X25001000Y-6000000D01*
X21756648Y-6000000D01*
X21729425Y-5991742D01*
X21720305Y-5985648D01*
X21699031Y-5971433D01*
X21640548Y-5959800D01*
X21067652Y-5959800D01*
X21058558Y-5961609D01*
X21021776Y-5954291D01*
X21000941Y-5923108D01*
X21000000Y-5913550D01*
X21000000Y-4200000D01*
X20714352Y-3914352D01*
X20700000Y-3879704D01*
X20700000Y-2549000D01*
X20714352Y-2514352D01*
X20749000Y-2500000D01*
X24179704Y-2500000D01*
X24214352Y-2514352D01*
G37*
G04 #@! TD.AperFunction*
G04 #@! TD*
G04 #@! TA.AperFunction,Conductor*
G04 #@! TO.N,VDD*
G36*
X19535648Y-4514352D02*
G01*
X19550000Y-4549000D01*
X19550000Y-6410926D01*
X19535648Y-6445574D01*
X19501000Y-6459926D01*
X18959448Y-6459926D01*
X18958556Y-6460104D01*
X18958254Y-6460044D01*
X18957058Y-6460162D01*
X18957022Y-6459798D01*
X18921774Y-6452785D01*
X18900941Y-6421601D01*
X18900000Y-6412045D01*
X18900000Y-6100000D01*
X18700000Y-5900000D01*
X15399000Y-5900000D01*
X15364352Y-5885648D01*
X15350000Y-5851000D01*
X15350000Y-4549000D01*
X15364352Y-4514352D01*
X15399000Y-4500000D01*
X19501000Y-4500000D01*
X19535648Y-4514352D01*
G37*
G04 #@! TD.AperFunction*
G04 #@! TD*
G04 #@! TA.AperFunction,Conductor*
G04 #@! TO.N,GND*
G36*
X15784648Y-28044974D02*
G01*
X19660148Y-31920474D01*
X19674500Y-31955122D01*
X19674500Y-32640067D01*
X19660148Y-32674715D01*
X19647024Y-32684087D01*
X19643519Y-32685800D01*
X19643515Y-32685803D01*
X19560803Y-32768515D01*
X19560801Y-32768519D01*
X19544021Y-32802843D01*
X19515910Y-32827667D01*
X19478479Y-32825343D01*
X19455979Y-32802843D01*
X19453591Y-32797960D01*
X19439198Y-32768517D01*
X19356483Y-32685802D01*
X19303938Y-32660114D01*
X19251396Y-32634428D01*
X19251394Y-32634427D01*
X19183262Y-32624500D01*
X19183260Y-32624500D01*
X18816740Y-32624500D01*
X18816738Y-32624500D01*
X18748605Y-32634427D01*
X18748603Y-32634428D01*
X18643519Y-32685801D01*
X18643515Y-32685803D01*
X18560803Y-32768515D01*
X18560801Y-32768519D01*
X18509428Y-32873603D01*
X18509427Y-32873605D01*
X18499500Y-32941738D01*
X18499500Y-33252761D01*
X18492935Y-33277261D01*
X18440424Y-33368214D01*
X18440421Y-33368220D01*
X18399500Y-33520939D01*
X18399500Y-34750500D01*
X18385148Y-34785148D01*
X18350500Y-34799500D01*
X10319031Y-34799500D01*
X10284383Y-34785148D01*
X10158383Y-34659148D01*
X10144031Y-34624500D01*
X10158383Y-34589852D01*
X10193031Y-34575500D01*
X10433262Y-34575500D01*
X10450590Y-34572974D01*
X10501393Y-34565573D01*
X10606483Y-34514198D01*
X10689198Y-34431483D01*
X10705979Y-34397157D01*
X10734089Y-34372332D01*
X10771520Y-34374656D01*
X10794021Y-34397157D01*
X10810799Y-34431478D01*
X10810801Y-34431481D01*
X10810802Y-34431483D01*
X10893517Y-34514198D01*
X10998607Y-34565573D01*
X11046884Y-34572606D01*
X11066738Y-34575500D01*
X11066740Y-34575500D01*
X11433262Y-34575500D01*
X11450590Y-34572974D01*
X11501393Y-34565573D01*
X11606483Y-34514198D01*
X11689198Y-34431483D01*
X11740573Y-34326393D01*
X11750500Y-34258260D01*
X11750500Y-32941740D01*
X11740573Y-32873607D01*
X11689198Y-32768517D01*
X11606483Y-32685802D01*
X11606482Y-32685801D01*
X11606480Y-32685800D01*
X11602976Y-32684087D01*
X11578154Y-32655974D01*
X11575500Y-32640067D01*
X11575500Y-31196544D01*
X11589852Y-31161896D01*
X11598528Y-31153220D01*
X11659719Y-31033126D01*
X11680804Y-30900000D01*
X11659719Y-30766874D01*
X11639322Y-30726842D01*
X11598532Y-30646786D01*
X11598527Y-30646779D01*
X11560896Y-30609148D01*
X11546544Y-30574500D01*
X11560896Y-30539852D01*
X11595544Y-30525500D01*
X13142856Y-30525500D01*
X13142856Y-30525499D01*
X13225639Y-30503318D01*
X13299862Y-30460465D01*
X15715352Y-28044973D01*
X15750000Y-28030622D01*
X15784648Y-28044974D01*
G37*
G04 #@! TD.AperFunction*
G04 #@! TA.AperFunction,Conductor*
G36*
X16385148Y-24744475D02*
G01*
X16399500Y-24779123D01*
X16399500Y-24919748D01*
X16411133Y-24978231D01*
X16428882Y-25004795D01*
X16455447Y-25044552D01*
X16482012Y-25062301D01*
X16521769Y-25088867D01*
X16580252Y-25100500D01*
X17203856Y-25100500D01*
X17881339Y-25100500D01*
X17915987Y-25114852D01*
X17918628Y-25117864D01*
X17919480Y-25118716D01*
X18031284Y-25230520D01*
X18031287Y-25230521D01*
X18031290Y-25230524D01*
X18168213Y-25309576D01*
X18168215Y-25309576D01*
X18168216Y-25309577D01*
X18288665Y-25341851D01*
X18320939Y-25350499D01*
X18320940Y-25350500D01*
X18320943Y-25350500D01*
X23380969Y-25350500D01*
X23415617Y-25364852D01*
X23485148Y-25434383D01*
X23499500Y-25469031D01*
X23499500Y-33330969D01*
X23485148Y-33365617D01*
X22065617Y-34785148D01*
X22030969Y-34799500D01*
X19649500Y-34799500D01*
X19614852Y-34785148D01*
X19600500Y-34750500D01*
X19600500Y-34571664D01*
X19614852Y-34537016D01*
X19649500Y-34522664D01*
X19671017Y-34527642D01*
X19748607Y-34565573D01*
X19796884Y-34572606D01*
X19816738Y-34575500D01*
X19816740Y-34575500D01*
X20183262Y-34575500D01*
X20200590Y-34572974D01*
X20251393Y-34565573D01*
X20356483Y-34514198D01*
X20439198Y-34431483D01*
X20455979Y-34397157D01*
X20484089Y-34372332D01*
X20521520Y-34374656D01*
X20544021Y-34397157D01*
X20560799Y-34431478D01*
X20560801Y-34431481D01*
X20560802Y-34431483D01*
X20643517Y-34514198D01*
X20748607Y-34565573D01*
X20796884Y-34572606D01*
X20816738Y-34575500D01*
X20816740Y-34575500D01*
X21183262Y-34575500D01*
X21200590Y-34572974D01*
X21251393Y-34565573D01*
X21356483Y-34514198D01*
X21439198Y-34431483D01*
X21490573Y-34326393D01*
X21500500Y-34258260D01*
X21500500Y-32941740D01*
X21490573Y-32873607D01*
X21439198Y-32768517D01*
X21356483Y-32685802D01*
X21356482Y-32685801D01*
X21356480Y-32685800D01*
X21352976Y-32684087D01*
X21328154Y-32655974D01*
X21325500Y-32640067D01*
X21325500Y-31807144D01*
X21325499Y-31807143D01*
X21312103Y-31757147D01*
X21303318Y-31724362D01*
X21303317Y-31724361D01*
X21303317Y-31724359D01*
X21260464Y-31650137D01*
X16836506Y-27226179D01*
X16822757Y-27199196D01*
X16809719Y-27116874D01*
X16788709Y-27075639D01*
X16748532Y-26996786D01*
X16748527Y-26996779D01*
X16653220Y-26901472D01*
X16653213Y-26901467D01*
X16533128Y-26840282D01*
X16533127Y-26840281D01*
X16533126Y-26840281D01*
X16400000Y-26819196D01*
X16266873Y-26840281D01*
X16146745Y-26901489D01*
X16109358Y-26904431D01*
X16080840Y-26880074D01*
X16075500Y-26857829D01*
X16075500Y-25005123D01*
X16089852Y-24970475D01*
X16315852Y-24744475D01*
X16350500Y-24730123D01*
X16385148Y-24744475D01*
G37*
G04 #@! TD.AperFunction*
G04 #@! TA.AperFunction,Conductor*
G36*
X35819974Y-14352D02*
G01*
X35834326Y-49000D01*
X35819974Y-83648D01*
X35801510Y-95249D01*
X35738673Y-117237D01*
X35541587Y-186200D01*
X35541581Y-186203D01*
X35288557Y-308053D01*
X35288553Y-308055D01*
X35050755Y-457474D01*
X34831182Y-632577D01*
X34831170Y-632588D01*
X34632588Y-831170D01*
X34632577Y-831182D01*
X34457474Y-1050755D01*
X34308055Y-1288553D01*
X34308053Y-1288557D01*
X34186203Y-1541581D01*
X34186200Y-1541587D01*
X34093439Y-1806684D01*
X34030944Y-2080495D01*
X34030944Y-2080499D01*
X33999500Y-2359574D01*
X33999500Y-2640425D01*
X34030944Y-2919500D01*
X34030944Y-2919504D01*
X34093439Y-3193315D01*
X34186200Y-3458412D01*
X34186203Y-3458418D01*
X34308053Y-3711442D01*
X34308055Y-3711446D01*
X34457474Y-3949244D01*
X34632577Y-4168817D01*
X34632588Y-4168829D01*
X34831170Y-4367411D01*
X34831182Y-4367422D01*
X35050755Y-4542525D01*
X35288553Y-4691944D01*
X35288557Y-4691946D01*
X35541581Y-4813796D01*
X35541587Y-4813799D01*
X35541590Y-4813800D01*
X35541592Y-4813801D01*
X35806682Y-4906560D01*
X36080491Y-4969055D01*
X36319705Y-4996007D01*
X36359574Y-5000500D01*
X36359575Y-5000500D01*
X36640426Y-5000500D01*
X36668333Y-4997355D01*
X36919509Y-4969055D01*
X37193318Y-4906560D01*
X37458408Y-4813801D01*
X37711445Y-4691945D01*
X37949248Y-4542523D01*
X38168825Y-4367416D01*
X38367416Y-4168825D01*
X38542523Y-3949248D01*
X38691945Y-3711445D01*
X38813801Y-3458408D01*
X38904750Y-3198489D01*
X38929740Y-3170527D01*
X38967184Y-3168424D01*
X38995147Y-3193414D01*
X39000000Y-3214674D01*
X39000000Y-10399412D01*
X38999985Y-10400612D01*
X38997696Y-10494035D01*
X38996769Y-10502394D01*
X38960198Y-10686250D01*
X38957410Y-10695443D01*
X38885901Y-10868079D01*
X38881373Y-10876550D01*
X38777561Y-11031916D01*
X38771467Y-11039341D01*
X38639341Y-11171467D01*
X38631916Y-11177561D01*
X38476550Y-11281373D01*
X38468079Y-11285901D01*
X38295443Y-11357410D01*
X38286250Y-11360198D01*
X38102394Y-11396769D01*
X38094035Y-11397696D01*
X38000612Y-11399985D01*
X37999412Y-11400000D01*
X33499988Y-11400000D01*
X33401759Y-11402406D01*
X33401751Y-11402406D01*
X33401746Y-11402407D01*
X33292044Y-11424228D01*
X33209015Y-11440743D01*
X33209009Y-11440745D01*
X33027466Y-11515943D01*
X32864072Y-11625118D01*
X32725118Y-11764072D01*
X32615943Y-11927466D01*
X32540745Y-12109009D01*
X32540743Y-12109015D01*
X32524228Y-12192044D01*
X32502407Y-12301746D01*
X32502407Y-12301750D01*
X32502406Y-12301759D01*
X32500000Y-12399987D01*
X32500000Y-33000012D01*
X32502406Y-33098240D01*
X32502406Y-33098247D01*
X32502407Y-33098254D01*
X32518969Y-33181517D01*
X32540743Y-33290984D01*
X32540745Y-33290990D01*
X32612761Y-33464852D01*
X32615945Y-33472537D01*
X32725119Y-33635928D01*
X32864072Y-33774881D01*
X33027463Y-33884055D01*
X33209013Y-33959256D01*
X33401746Y-33997593D01*
X33452838Y-33998844D01*
X33499988Y-34000000D01*
X33500000Y-34000000D01*
X35785326Y-34000000D01*
X35819974Y-34014352D01*
X35834326Y-34049000D01*
X35819974Y-34083648D01*
X35801510Y-34095249D01*
X35738673Y-34117237D01*
X35541587Y-34186200D01*
X35541581Y-34186203D01*
X35288557Y-34308053D01*
X35288553Y-34308055D01*
X35050755Y-34457474D01*
X34831182Y-34632577D01*
X34831170Y-34632588D01*
X34632588Y-34831170D01*
X34632577Y-34831182D01*
X34457474Y-35050755D01*
X34308055Y-35288553D01*
X34308053Y-35288557D01*
X34186203Y-35541581D01*
X34186200Y-35541587D01*
X34093439Y-35806684D01*
X34030944Y-36080495D01*
X34030944Y-36080499D01*
X33999500Y-36359574D01*
X33999500Y-36640425D01*
X34030944Y-36919500D01*
X34030944Y-36919504D01*
X34093439Y-37193315D01*
X34186200Y-37458412D01*
X34186203Y-37458418D01*
X34308053Y-37711442D01*
X34308055Y-37711446D01*
X34457474Y-37949244D01*
X34632577Y-38168817D01*
X34632588Y-38168829D01*
X34831170Y-38367411D01*
X34831182Y-38367422D01*
X35050755Y-38542525D01*
X35288553Y-38691944D01*
X35288557Y-38691946D01*
X35541581Y-38813796D01*
X35541587Y-38813799D01*
X35541590Y-38813800D01*
X35541592Y-38813801D01*
X35801510Y-38904750D01*
X35829473Y-38929740D01*
X35831576Y-38967184D01*
X35806586Y-38995147D01*
X35785326Y-39000000D01*
X3214674Y-39000000D01*
X3180026Y-38985648D01*
X3165674Y-38951000D01*
X3180026Y-38916352D01*
X3198489Y-38904750D01*
X3458408Y-38813801D01*
X3711445Y-38691945D01*
X3949248Y-38542523D01*
X4168825Y-38367416D01*
X4367416Y-38168825D01*
X4542523Y-37949248D01*
X4691945Y-37711445D01*
X4813801Y-37458408D01*
X4906560Y-37193318D01*
X4969055Y-36919509D01*
X5000500Y-36640425D01*
X5000500Y-36359575D01*
X4969055Y-36080491D01*
X4906560Y-35806682D01*
X4813801Y-35541592D01*
X4691945Y-35288555D01*
X4542523Y-35050752D01*
X4407871Y-34881904D01*
X4367422Y-34831182D01*
X4367411Y-34831170D01*
X4168829Y-34632588D01*
X4168817Y-34632577D01*
X3949244Y-34457474D01*
X3711446Y-34308055D01*
X3711442Y-34308053D01*
X3458418Y-34186203D01*
X3458412Y-34186200D01*
X3193315Y-34093439D01*
X3193316Y-34093439D01*
X3062909Y-34063675D01*
X2919509Y-34030945D01*
X2919503Y-34030944D01*
X2919502Y-34030944D01*
X2640426Y-33999500D01*
X2640425Y-33999500D01*
X2359575Y-33999500D01*
X2359574Y-33999500D01*
X2080499Y-34030944D01*
X2080495Y-34030944D01*
X1806684Y-34093439D01*
X1541587Y-34186200D01*
X1541581Y-34186203D01*
X1288557Y-34308053D01*
X1288553Y-34308055D01*
X1050755Y-34457474D01*
X831182Y-34632577D01*
X831170Y-34632588D01*
X632588Y-34831170D01*
X632577Y-34831182D01*
X457474Y-35050755D01*
X308055Y-35288553D01*
X308053Y-35288557D01*
X186203Y-35541581D01*
X186200Y-35541587D01*
X95250Y-35801509D01*
X70260Y-35829472D01*
X32816Y-35831575D01*
X4853Y-35806585D01*
X0Y-35785325D01*
X0Y-18257145D01*
X5574500Y-18257145D01*
X5574500Y-28842856D01*
X5596681Y-28925637D01*
X5596682Y-28925640D01*
X5639535Y-28999862D01*
X7100138Y-30460465D01*
X7174361Y-30503318D01*
X7239653Y-30520812D01*
X7257143Y-30525499D01*
X7257144Y-30525500D01*
X7257147Y-30525500D01*
X7342853Y-30525500D01*
X9257147Y-30525500D01*
X9657147Y-30525500D01*
X9875500Y-30525500D01*
X9910148Y-30539852D01*
X9924500Y-30574500D01*
X9924500Y-32640067D01*
X9910148Y-32674715D01*
X9897024Y-32684087D01*
X9893519Y-32685800D01*
X9893515Y-32685803D01*
X9810803Y-32768515D01*
X9810801Y-32768519D01*
X9794021Y-32802843D01*
X9765910Y-32827667D01*
X9728479Y-32825343D01*
X9705979Y-32802843D01*
X9703591Y-32797960D01*
X9689198Y-32768517D01*
X9606483Y-32685802D01*
X9553938Y-32660114D01*
X9501396Y-32634428D01*
X9501394Y-32634427D01*
X9433262Y-32624500D01*
X9433260Y-32624500D01*
X9066740Y-32624500D01*
X9066738Y-32624500D01*
X8998605Y-32634427D01*
X8998603Y-32634428D01*
X8893519Y-32685801D01*
X8893515Y-32685803D01*
X8810803Y-32768515D01*
X8810801Y-32768519D01*
X8759428Y-32873603D01*
X8759427Y-32873605D01*
X8749500Y-32941738D01*
X8749500Y-33252761D01*
X8742935Y-33277261D01*
X8690424Y-33368214D01*
X8690421Y-33368220D01*
X8649500Y-33520939D01*
X8649500Y-34517929D01*
X8649499Y-34517947D01*
X8649499Y-34679059D01*
X8690421Y-34831781D01*
X8690422Y-34831783D01*
X8690423Y-34831785D01*
X8719360Y-34881904D01*
X8719361Y-34881905D01*
X8769477Y-34968712D01*
X8769482Y-34968718D01*
X8884074Y-35083310D01*
X8884080Y-35083315D01*
X9567764Y-35766999D01*
X9567769Y-35767005D01*
X9569480Y-35768716D01*
X9681284Y-35880520D01*
X9681287Y-35880521D01*
X9681290Y-35880524D01*
X9768090Y-35930637D01*
X9768093Y-35930638D01*
X9768095Y-35930639D01*
X9818215Y-35959577D01*
X9818217Y-35959577D01*
X9818218Y-35959578D01*
X9970940Y-36000501D01*
X9970943Y-36000501D01*
X10132054Y-36000501D01*
X10132070Y-36000500D01*
X18920943Y-36000500D01*
X19079057Y-36000500D01*
X22217930Y-36000500D01*
X22217946Y-36000501D01*
X22220943Y-36000501D01*
X22379059Y-36000501D01*
X22480875Y-35973218D01*
X22531785Y-35959577D01*
X22531786Y-35959576D01*
X22531790Y-35959575D01*
X22581892Y-35930646D01*
X22581892Y-35930645D01*
X22581904Y-35930639D01*
X22668716Y-35880520D01*
X22780520Y-35768716D01*
X22780520Y-35768714D01*
X22784549Y-35764686D01*
X22784553Y-35764681D01*
X24464681Y-34084553D01*
X24464686Y-34084549D01*
X24468714Y-34080520D01*
X24468716Y-34080520D01*
X24580520Y-33968716D01*
X24659577Y-33831784D01*
X24700499Y-33679060D01*
X24700500Y-33679060D01*
X24700500Y-32884104D01*
X28749500Y-32884104D01*
X28749500Y-33015895D01*
X28783607Y-33143184D01*
X28783608Y-33143188D01*
X28846871Y-33252761D01*
X28849500Y-33257314D01*
X28942686Y-33350500D01*
X28973371Y-33368216D01*
X29056811Y-33416391D01*
X29056813Y-33416391D01*
X29056814Y-33416392D01*
X29157207Y-33443292D01*
X29184104Y-33450499D01*
X29184105Y-33450500D01*
X29184108Y-33450500D01*
X30013812Y-33450500D01*
X30048460Y-33464852D01*
X30061657Y-33478049D01*
X30061664Y-33478054D01*
X30174691Y-33535644D01*
X30174692Y-33535644D01*
X30174696Y-33535646D01*
X30268481Y-33550500D01*
X31231518Y-33550499D01*
X31325304Y-33535646D01*
X31386387Y-33504522D01*
X31438335Y-33478054D01*
X31438337Y-33478052D01*
X31438342Y-33478050D01*
X31528050Y-33388342D01*
X31547332Y-33350500D01*
X31585644Y-33275309D01*
X31585644Y-33275307D01*
X31585646Y-33275304D01*
X31600500Y-33181519D01*
X31600499Y-32718482D01*
X31585646Y-32624696D01*
X31585546Y-32624500D01*
X31528054Y-32511664D01*
X31528049Y-32511657D01*
X31438342Y-32421950D01*
X31438335Y-32421945D01*
X31325308Y-32364355D01*
X31325305Y-32364354D01*
X31325304Y-32364354D01*
X31231519Y-32349500D01*
X31231517Y-32349500D01*
X30268482Y-32349500D01*
X30174696Y-32364353D01*
X30061664Y-32421945D01*
X30061657Y-32421950D01*
X30048460Y-32435148D01*
X30013812Y-32449500D01*
X29184105Y-32449500D01*
X29056815Y-32483607D01*
X29056811Y-32483608D01*
X28942685Y-32549500D01*
X28942685Y-32549501D01*
X28849501Y-32642685D01*
X28849500Y-32642685D01*
X28783608Y-32756811D01*
X28783607Y-32756815D01*
X28749500Y-32884104D01*
X24700500Y-32884104D01*
X24700500Y-10567996D01*
X24712467Y-10535909D01*
X24780259Y-10457673D01*
X24811881Y-10408468D01*
X24871609Y-10277683D01*
X24888088Y-10221561D01*
X24908550Y-10079246D01*
X24908550Y-10020755D01*
X24905999Y-10003011D01*
X24905500Y-9996038D01*
X24905500Y-9603960D01*
X24905999Y-9596986D01*
X24908550Y-9579245D01*
X24908550Y-9520754D01*
X24888088Y-9378439D01*
X24871609Y-9322317D01*
X24811881Y-9191532D01*
X24780259Y-9142327D01*
X24712468Y-9064090D01*
X24700500Y-9032002D01*
X24700500Y-8219030D01*
X24714851Y-8184383D01*
X25414681Y-7484552D01*
X25414686Y-7484549D01*
X25418714Y-7480520D01*
X25418716Y-7480520D01*
X25530520Y-7368716D01*
X25530521Y-7368714D01*
X25859384Y-7039852D01*
X25894032Y-7025500D01*
X30859758Y-7025500D01*
X30859766Y-7025499D01*
X31231517Y-7025499D01*
X31231518Y-7025499D01*
X31325304Y-7010646D01*
X31386387Y-6979522D01*
X31438335Y-6953054D01*
X31438337Y-6953052D01*
X31438342Y-6953050D01*
X31528050Y-6863342D01*
X31528054Y-6863335D01*
X31585644Y-6750309D01*
X31585644Y-6750307D01*
X31585646Y-6750304D01*
X31600500Y-6656519D01*
X31600499Y-6193482D01*
X31585646Y-6099696D01*
X31573319Y-6075503D01*
X31528054Y-5986664D01*
X31528049Y-5986657D01*
X31438342Y-5896950D01*
X31438335Y-5896945D01*
X31325308Y-5839355D01*
X31325305Y-5839354D01*
X31325304Y-5839354D01*
X31231519Y-5824500D01*
X31231517Y-5824500D01*
X25707071Y-5824500D01*
X25707055Y-5824499D01*
X25704058Y-5824499D01*
X25594030Y-5824499D01*
X25559382Y-5810147D01*
X25533315Y-5784080D01*
X25533313Y-5784077D01*
X25269852Y-5520616D01*
X25255500Y-5485968D01*
X25255500Y-3370299D01*
X25255500Y-3370296D01*
X25239857Y-3291653D01*
X25225505Y-3257005D01*
X25180958Y-3190338D01*
X24359662Y-2369042D01*
X24292995Y-2324495D01*
X24292991Y-2324493D01*
X24292989Y-2324492D01*
X24258354Y-2310145D01*
X24258344Y-2310142D01*
X24226630Y-2303834D01*
X24179704Y-2294500D01*
X20749000Y-2294500D01*
X20709859Y-2302285D01*
X20670359Y-2310142D01*
X20670349Y-2310145D01*
X20635716Y-2324491D01*
X20635710Y-2324494D01*
X20635709Y-2324495D01*
X20617618Y-2335861D01*
X20577416Y-2361122D01*
X20524496Y-2435706D01*
X20510144Y-2470353D01*
X20510142Y-2470359D01*
X20502285Y-2509859D01*
X20494500Y-2549000D01*
X20494500Y-3879704D01*
X20504880Y-3931891D01*
X20510142Y-3958344D01*
X20510145Y-3958354D01*
X20524492Y-3992989D01*
X20524493Y-3992991D01*
X20524495Y-3992995D01*
X20569042Y-4059662D01*
X20569044Y-4059664D01*
X20780148Y-4270768D01*
X20794500Y-4305416D01*
X20794500Y-5913555D01*
X20795486Y-5933652D01*
X20795490Y-5933704D01*
X20796426Y-5943211D01*
X20797457Y-5951828D01*
X20797457Y-5951829D01*
X20797458Y-5951831D01*
X20810754Y-5986664D01*
X20830071Y-6037273D01*
X20850908Y-6068460D01*
X20850910Y-6068462D01*
X20875101Y-6094052D01*
X20888474Y-6129089D01*
X20887554Y-6137262D01*
X20886900Y-6140552D01*
X20886900Y-6459448D01*
X20892892Y-6489572D01*
X20898533Y-6517932D01*
X20901814Y-6522842D01*
X20909129Y-6559624D01*
X20901814Y-6577284D01*
X20898533Y-6582193D01*
X20893879Y-6605588D01*
X20886900Y-6640678D01*
X20886900Y-6959574D01*
X20898533Y-7018057D01*
X20900991Y-7021735D01*
X20900995Y-7021741D01*
X20908310Y-7058524D01*
X20900996Y-7076182D01*
X20898533Y-7079867D01*
X20894404Y-7100626D01*
X20886900Y-7138353D01*
X20886900Y-7736649D01*
X20898533Y-7795132D01*
X20916282Y-7821696D01*
X20942847Y-7861453D01*
X20969412Y-7879202D01*
X21009169Y-7905768D01*
X21067652Y-7917401D01*
X21067655Y-7917401D01*
X21640545Y-7917401D01*
X21640548Y-7917401D01*
X21699031Y-7905768D01*
X21765352Y-7861453D01*
X21809667Y-7795132D01*
X21821300Y-7736649D01*
X21821300Y-7149626D01*
X21835652Y-7114978D01*
X21870300Y-7100626D01*
X22296579Y-7100626D01*
X22331227Y-7114978D01*
X22334970Y-7119439D01*
X22419593Y-7204063D01*
X22419595Y-7204064D01*
X22419596Y-7204065D01*
X22526827Y-7254068D01*
X22575684Y-7260500D01*
X22575687Y-7260500D01*
X23024312Y-7260500D01*
X23024316Y-7260500D01*
X23073173Y-7254068D01*
X23180404Y-7204065D01*
X23264065Y-7120404D01*
X23314068Y-7013173D01*
X23320500Y-6964316D01*
X23320500Y-6615684D01*
X23314068Y-6566827D01*
X23264065Y-6459596D01*
X23264064Y-6459595D01*
X23264063Y-6459593D01*
X23180406Y-6375936D01*
X23180404Y-6375935D01*
X23073175Y-6325933D01*
X23073174Y-6325932D01*
X23063401Y-6324645D01*
X23024316Y-6319500D01*
X22575684Y-6319500D01*
X22543112Y-6323788D01*
X22526825Y-6325932D01*
X22526824Y-6325933D01*
X22419595Y-6375935D01*
X22419593Y-6375936D01*
X22335937Y-6459592D01*
X22335936Y-6459594D01*
X22330462Y-6471334D01*
X22302812Y-6496671D01*
X22286053Y-6499626D01*
X21870300Y-6499626D01*
X21835652Y-6485274D01*
X21821300Y-6450626D01*
X21821300Y-6254500D01*
X21835652Y-6219852D01*
X21870300Y-6205500D01*
X24235969Y-6205500D01*
X24270617Y-6219852D01*
X24435148Y-6384383D01*
X24449500Y-6419031D01*
X24449500Y-6730968D01*
X24435148Y-6765616D01*
X23619482Y-7581281D01*
X23619477Y-7581287D01*
X23595967Y-7622011D01*
X23595966Y-7622012D01*
X23540423Y-7718212D01*
X23540422Y-7718216D01*
X23499499Y-7870940D01*
X23499499Y-8033000D01*
X23499500Y-8033013D01*
X23499500Y-8805766D01*
X23485148Y-8840414D01*
X23450500Y-8854766D01*
X23439596Y-8853537D01*
X23400003Y-8844500D01*
X23400000Y-8844500D01*
X22828111Y-8844500D01*
X22828106Y-8844500D01*
X22770217Y-8852823D01*
X22770214Y-8852824D01*
X22632268Y-8893328D01*
X22632252Y-8893334D01*
X22579052Y-8917629D01*
X22579046Y-8917633D01*
X22458104Y-8995357D01*
X22458099Y-8995362D01*
X22413894Y-9033665D01*
X22319742Y-9142325D01*
X22288121Y-9191528D01*
X22228390Y-9322317D01*
X22211911Y-9378439D01*
X22211911Y-9378441D01*
X22191450Y-9520749D01*
X22191450Y-9579247D01*
X22194001Y-9596986D01*
X22194500Y-9603960D01*
X22194500Y-9996038D01*
X22194001Y-10003011D01*
X22191450Y-10020750D01*
X22191450Y-10079250D01*
X22211911Y-10221558D01*
X22211911Y-10221560D01*
X22228390Y-10277682D01*
X22256050Y-10338248D01*
X22288119Y-10408468D01*
X22288121Y-10408471D01*
X22319742Y-10457674D01*
X22413894Y-10566334D01*
X22458099Y-10604637D01*
X22458104Y-10604642D01*
X22579046Y-10682366D01*
X22579052Y-10682370D01*
X22606526Y-10694916D01*
X22632260Y-10706669D01*
X22770215Y-10747176D01*
X22828111Y-10755500D01*
X22828115Y-10755500D01*
X23400001Y-10755500D01*
X23409116Y-10754472D01*
X23445015Y-10750428D01*
X23481051Y-10760810D01*
X23499192Y-10793634D01*
X23499500Y-10799120D01*
X23499500Y-24030969D01*
X23485148Y-24065617D01*
X23415617Y-24135148D01*
X23380969Y-24149500D01*
X18320940Y-24149500D01*
X18165114Y-24191254D01*
X18164887Y-24190410D01*
X18130742Y-24190406D01*
X18104227Y-24163883D01*
X18100500Y-24145138D01*
X18100500Y-24080255D01*
X18100500Y-24080252D01*
X18088867Y-24021769D01*
X18088865Y-24021766D01*
X18088865Y-24021765D01*
X18087618Y-24018753D01*
X18087616Y-23981250D01*
X18087618Y-23981247D01*
X18088865Y-23978234D01*
X18088865Y-23978233D01*
X18088867Y-23978231D01*
X18100500Y-23919748D01*
X18100500Y-23580252D01*
X18088867Y-23521769D01*
X18062301Y-23482012D01*
X18044552Y-23455447D01*
X17998236Y-23424500D01*
X17978231Y-23411133D01*
X17919748Y-23399500D01*
X16580252Y-23399500D01*
X16545162Y-23406479D01*
X16521767Y-23411133D01*
X16514122Y-23416242D01*
X16486900Y-23424500D01*
X16107144Y-23424500D01*
X16024362Y-23446681D01*
X16024359Y-23446682D01*
X15950137Y-23489535D01*
X15950137Y-23489536D01*
X14939536Y-24500137D01*
X14939535Y-24500137D01*
X14916935Y-24539282D01*
X14887182Y-24562112D01*
X14850000Y-24557217D01*
X14827170Y-24527464D01*
X14825500Y-24514782D01*
X14825500Y-23955123D01*
X14839852Y-23920475D01*
X16170475Y-22589852D01*
X16205123Y-22575500D01*
X16350500Y-22575500D01*
X16385148Y-22589852D01*
X16399500Y-22624500D01*
X16399500Y-22919748D01*
X16411133Y-22978231D01*
X16428882Y-23004795D01*
X16455447Y-23044552D01*
X16482012Y-23062301D01*
X16521769Y-23088867D01*
X16580252Y-23100500D01*
X16580255Y-23100500D01*
X17919745Y-23100500D01*
X17919748Y-23100500D01*
X17978231Y-23088867D01*
X18044552Y-23044552D01*
X18088867Y-22978231D01*
X18100500Y-22919748D01*
X18100500Y-22580252D01*
X18088867Y-22521769D01*
X18088865Y-22521766D01*
X18088865Y-22521765D01*
X18087618Y-22518753D01*
X18087616Y-22481250D01*
X18087618Y-22481247D01*
X18088865Y-22478234D01*
X18088865Y-22478233D01*
X18088867Y-22478231D01*
X18100500Y-22419748D01*
X18100500Y-22080252D01*
X18088867Y-22021769D01*
X18062301Y-21982012D01*
X18044552Y-21955447D01*
X17998236Y-21924500D01*
X17978231Y-21911133D01*
X17919748Y-21899500D01*
X16580252Y-21899500D01*
X16545162Y-21906479D01*
X16521767Y-21911133D01*
X16514122Y-21916242D01*
X16486900Y-21924500D01*
X16007144Y-21924500D01*
X15924362Y-21946681D01*
X15924359Y-21946682D01*
X15850137Y-21989535D01*
X15850137Y-21989536D01*
X14239536Y-23600137D01*
X14239535Y-23600137D01*
X14196682Y-23674359D01*
X14196681Y-23674361D01*
X14187897Y-23707147D01*
X14174500Y-23757144D01*
X14174500Y-26794877D01*
X14160148Y-26829525D01*
X12529525Y-28460148D01*
X12494877Y-28474500D01*
X7955122Y-28474500D01*
X7920474Y-28460148D01*
X7639852Y-28179525D01*
X7625500Y-28144877D01*
X7625500Y-18955123D01*
X7639852Y-18920475D01*
X8220475Y-18339852D01*
X8255123Y-18325500D01*
X8835500Y-18325500D01*
X8870148Y-18339852D01*
X8884500Y-18374500D01*
X8884500Y-18669748D01*
X8896133Y-18728231D01*
X8913882Y-18754795D01*
X8940447Y-18794552D01*
X8967012Y-18812301D01*
X9006769Y-18838867D01*
X9065252Y-18850500D01*
X11651000Y-18850500D01*
X11685648Y-18864852D01*
X11700000Y-18899500D01*
X11700000Y-19100500D01*
X11685648Y-19135148D01*
X11651000Y-19149500D01*
X9065252Y-19149500D01*
X9006769Y-19161133D01*
X8940447Y-19205447D01*
X8896133Y-19271769D01*
X8884500Y-19330252D01*
X8884500Y-19669748D01*
X8892255Y-19708736D01*
X8896133Y-19728233D01*
X8897384Y-19731252D01*
X8897384Y-19768748D01*
X8896133Y-19771766D01*
X8890316Y-19801010D01*
X8884500Y-19830252D01*
X8884500Y-20169748D01*
X8896133Y-20228231D01*
X8913882Y-20254795D01*
X8940447Y-20294552D01*
X8967012Y-20312301D01*
X9006769Y-20338867D01*
X9065252Y-20350500D01*
X11651000Y-20350500D01*
X11685648Y-20364852D01*
X11700000Y-20399500D01*
X11700000Y-20600500D01*
X11685648Y-20635148D01*
X11651000Y-20649500D01*
X9065252Y-20649500D01*
X9006769Y-20661133D01*
X8940447Y-20705447D01*
X8896133Y-20771769D01*
X8884500Y-20830252D01*
X8884500Y-21169748D01*
X8892255Y-21208736D01*
X8896133Y-21228233D01*
X8897384Y-21231252D01*
X8897384Y-21268748D01*
X8896133Y-21271766D01*
X8890316Y-21301010D01*
X8884500Y-21330252D01*
X8884500Y-21669748D01*
X8896133Y-21728231D01*
X8913882Y-21754795D01*
X8940447Y-21794552D01*
X8967012Y-21812301D01*
X9006769Y-21838867D01*
X9065252Y-21850500D01*
X11651000Y-21850500D01*
X11685648Y-21864852D01*
X11700000Y-21899500D01*
X11700000Y-22100500D01*
X11685648Y-22135148D01*
X11651000Y-22149500D01*
X9065252Y-22149500D01*
X9006769Y-22161133D01*
X8940447Y-22205447D01*
X8896133Y-22271769D01*
X8884500Y-22330252D01*
X8884500Y-22669748D01*
X8892255Y-22708736D01*
X8896133Y-22728233D01*
X8897384Y-22731252D01*
X8897384Y-22768748D01*
X8896133Y-22771766D01*
X8890316Y-22801010D01*
X8884500Y-22830252D01*
X8884500Y-23169748D01*
X8896133Y-23228231D01*
X8913882Y-23254795D01*
X8940447Y-23294552D01*
X8967012Y-23312301D01*
X9006769Y-23338867D01*
X9065252Y-23350500D01*
X11651000Y-23350500D01*
X11685648Y-23364852D01*
X11700000Y-23399500D01*
X11700000Y-23600500D01*
X11685648Y-23635148D01*
X11651000Y-23649500D01*
X9065252Y-23649500D01*
X9006769Y-23661133D01*
X8940447Y-23705447D01*
X8905905Y-23757144D01*
X8896133Y-23771769D01*
X8884500Y-23830252D01*
X8884500Y-24169748D01*
X8896133Y-24228231D01*
X8913882Y-24254795D01*
X8940447Y-24294552D01*
X8961708Y-24308758D01*
X9006769Y-24338867D01*
X9065252Y-24350500D01*
X9065255Y-24350500D01*
X11704745Y-24350500D01*
X11704748Y-24350500D01*
X11763231Y-24338867D01*
X11808292Y-24308757D01*
X11835514Y-24300500D01*
X12374567Y-24300500D01*
X12375183Y-24300419D01*
X12381575Y-24300000D01*
X13299999Y-24300000D01*
X13300000Y-24300000D01*
X15985648Y-21614352D01*
X16020296Y-21600000D01*
X16572913Y-21600000D01*
X16577836Y-21600483D01*
X16577858Y-21600264D01*
X16580251Y-21600499D01*
X16580252Y-21600500D01*
X16580253Y-21600500D01*
X17919747Y-21600500D01*
X17919748Y-21600500D01*
X17919748Y-21600499D01*
X17922142Y-21600264D01*
X17922163Y-21600483D01*
X17927087Y-21600000D01*
X18100000Y-21600000D01*
X18100000Y-21427088D01*
X18100487Y-21422167D01*
X18100264Y-21422145D01*
X18100500Y-21419749D01*
X18100500Y-21080253D01*
X18100264Y-21077858D01*
X18100483Y-21077836D01*
X18100000Y-21072913D01*
X18100000Y-20927088D01*
X18100487Y-20922167D01*
X18100264Y-20922145D01*
X18100500Y-20919749D01*
X18100500Y-20580253D01*
X18100264Y-20577858D01*
X18100483Y-20577836D01*
X18100000Y-20572913D01*
X18100000Y-19927088D01*
X18100487Y-19922167D01*
X18100264Y-19922145D01*
X18100500Y-19919749D01*
X18100500Y-19580253D01*
X18100264Y-19577858D01*
X18100483Y-19577836D01*
X18100000Y-19572913D01*
X18100000Y-19427088D01*
X18100487Y-19422167D01*
X18100264Y-19422145D01*
X18100500Y-19419749D01*
X18100500Y-19080253D01*
X18100264Y-19077858D01*
X18100483Y-19077836D01*
X18100000Y-19072913D01*
X18100000Y-18427088D01*
X18100487Y-18422167D01*
X18100264Y-18422145D01*
X18100500Y-18419749D01*
X18100500Y-18080253D01*
X18100264Y-18077858D01*
X18100483Y-18077836D01*
X18100000Y-18072913D01*
X18100000Y-17927088D01*
X18100487Y-17922167D01*
X18100264Y-17922145D01*
X18100500Y-17919749D01*
X18100500Y-17580253D01*
X18100264Y-17577858D01*
X18100483Y-17577836D01*
X18100000Y-17572913D01*
X18100000Y-16927088D01*
X18100487Y-16922167D01*
X18100264Y-16922145D01*
X18100500Y-16919749D01*
X18100500Y-16580253D01*
X18100264Y-16577858D01*
X18100483Y-16577836D01*
X18100000Y-16572913D01*
X18100000Y-16427088D01*
X18100487Y-16422167D01*
X18100264Y-16422145D01*
X18100500Y-16419749D01*
X18100500Y-16080253D01*
X18100264Y-16077858D01*
X18100483Y-16077836D01*
X18100000Y-16072913D01*
X18100000Y-15427088D01*
X18100487Y-15422167D01*
X18100264Y-15422145D01*
X18100500Y-15419749D01*
X18100500Y-15080253D01*
X18100264Y-15077858D01*
X18100483Y-15077836D01*
X18100000Y-15072913D01*
X18100000Y-14927088D01*
X18100487Y-14922167D01*
X18100264Y-14922145D01*
X18100500Y-14919749D01*
X18100500Y-14580253D01*
X18100264Y-14577858D01*
X18100483Y-14577836D01*
X18100000Y-14572913D01*
X18100000Y-14400000D01*
X17927087Y-14400000D01*
X17922163Y-14399516D01*
X17922142Y-14399736D01*
X17919749Y-14399500D01*
X17919748Y-14399500D01*
X16580252Y-14399500D01*
X16580250Y-14399500D01*
X16577858Y-14399736D01*
X16577836Y-14399516D01*
X16572913Y-14400000D01*
X15920296Y-14400000D01*
X15885648Y-14385648D01*
X15400000Y-13900000D01*
X14100000Y-13900000D01*
X13314352Y-14685648D01*
X13279704Y-14700000D01*
X12381575Y-14700000D01*
X12375183Y-14699581D01*
X12374567Y-14699500D01*
X12374563Y-14699500D01*
X11835514Y-14699500D01*
X11808292Y-14691242D01*
X11763231Y-14661133D01*
X11704748Y-14649500D01*
X9065252Y-14649500D01*
X9006769Y-14661133D01*
X8940447Y-14705447D01*
X8909695Y-14751472D01*
X8896133Y-14771769D01*
X8884500Y-14830252D01*
X8884500Y-14830255D01*
X8884500Y-15070523D01*
X8870148Y-15105171D01*
X8835500Y-15119523D01*
X8800852Y-15105171D01*
X8729852Y-15034171D01*
X8716103Y-15007187D01*
X8709719Y-14966874D01*
X8648532Y-14846786D01*
X8648527Y-14846779D01*
X8553220Y-14751472D01*
X8553213Y-14751467D01*
X8433128Y-14690282D01*
X8433127Y-14690281D01*
X8433126Y-14690281D01*
X8300000Y-14669196D01*
X8166874Y-14690281D01*
X8166872Y-14690281D01*
X8166871Y-14690282D01*
X8046786Y-14751467D01*
X8046779Y-14751472D01*
X7951472Y-14846779D01*
X7951467Y-14846786D01*
X7890282Y-14966871D01*
X7890281Y-14966872D01*
X7890281Y-14966874D01*
X7869196Y-15100000D01*
X7890281Y-15233126D01*
X7890281Y-15233127D01*
X7890282Y-15233128D01*
X7951467Y-15353213D01*
X7951472Y-15353220D01*
X8046779Y-15448527D01*
X8046786Y-15448532D01*
X8124744Y-15488253D01*
X8166874Y-15509719D01*
X8166872Y-15509719D01*
X8183650Y-15512375D01*
X8207188Y-15516103D01*
X8234171Y-15529852D01*
X8419531Y-15715212D01*
X8484788Y-15780469D01*
X8564712Y-15826614D01*
X8586998Y-15832585D01*
X8653853Y-15850500D01*
X8653856Y-15850500D01*
X9065252Y-15850500D01*
X11651000Y-15850500D01*
X11685648Y-15864852D01*
X11700000Y-15899500D01*
X11700000Y-16100500D01*
X11685648Y-16135148D01*
X11651000Y-16149500D01*
X9065252Y-16149500D01*
X9030162Y-16156479D01*
X9006767Y-16161133D01*
X8999122Y-16166242D01*
X8971900Y-16174500D01*
X7657144Y-16174500D01*
X7574363Y-16196681D01*
X7564293Y-16202495D01*
X7550536Y-16210438D01*
X7537936Y-16217712D01*
X7500141Y-16239532D01*
X7500135Y-16239537D01*
X5639536Y-18100137D01*
X5639535Y-18100137D01*
X5596682Y-18174359D01*
X5596681Y-18174361D01*
X5584459Y-18219979D01*
X5584459Y-18219980D01*
X5574500Y-18257145D01*
X0Y-18257145D01*
X0Y-6193482D01*
X9899500Y-6193482D01*
X9899500Y-6656517D01*
X9914353Y-6750303D01*
X9971945Y-6863335D01*
X9971950Y-6863342D01*
X10061657Y-6953049D01*
X10061664Y-6953054D01*
X10174691Y-7010644D01*
X10174692Y-7010644D01*
X10174696Y-7010646D01*
X10268481Y-7025500D01*
X11231518Y-7025499D01*
X11325304Y-7010646D01*
X11386387Y-6979522D01*
X11438335Y-6953054D01*
X11438337Y-6953052D01*
X11438342Y-6953050D01*
X11528050Y-6863342D01*
X11528054Y-6863335D01*
X11585644Y-6750309D01*
X11585644Y-6750307D01*
X11585646Y-6750304D01*
X11600500Y-6656519D01*
X11600499Y-6193482D01*
X11585646Y-6099696D01*
X11573319Y-6075503D01*
X11528054Y-5986664D01*
X11528049Y-5986657D01*
X11438342Y-5896950D01*
X11438335Y-5896945D01*
X11325308Y-5839355D01*
X11325305Y-5839354D01*
X11325304Y-5839354D01*
X11231519Y-5824500D01*
X11231517Y-5824500D01*
X10268482Y-5824500D01*
X10174696Y-5839353D01*
X10061664Y-5896945D01*
X10061657Y-5896950D01*
X9971950Y-5986657D01*
X9971945Y-5986664D01*
X9914355Y-6099690D01*
X9914355Y-6099692D01*
X9914354Y-6099694D01*
X9914354Y-6099696D01*
X9900824Y-6185120D01*
X9899500Y-6193482D01*
X0Y-6193482D01*
X0Y-3214674D01*
X14352Y-3180026D01*
X49000Y-3165674D01*
X83648Y-3180026D01*
X95250Y-3198490D01*
X186200Y-3458412D01*
X186203Y-3458418D01*
X308053Y-3711442D01*
X308055Y-3711446D01*
X457474Y-3949244D01*
X632577Y-4168817D01*
X632588Y-4168829D01*
X831170Y-4367411D01*
X831182Y-4367422D01*
X1050755Y-4542525D01*
X1288553Y-4691944D01*
X1288557Y-4691946D01*
X1541581Y-4813796D01*
X1541587Y-4813799D01*
X1541590Y-4813800D01*
X1541592Y-4813801D01*
X1806682Y-4906560D01*
X2080491Y-4969055D01*
X2319705Y-4996007D01*
X2359574Y-5000500D01*
X2359575Y-5000500D01*
X2640426Y-5000500D01*
X2668333Y-4997355D01*
X2919509Y-4969055D01*
X3193318Y-4906560D01*
X3458408Y-4813801D01*
X3711445Y-4691945D01*
X3938940Y-4549000D01*
X15144500Y-4549000D01*
X15144500Y-5851000D01*
X15153639Y-5896945D01*
X15160142Y-5929640D01*
X15160145Y-5929650D01*
X15174491Y-5964283D01*
X15174490Y-5964283D01*
X15211122Y-6022583D01*
X15275777Y-6068458D01*
X15285709Y-6075505D01*
X15320357Y-6089857D01*
X15399000Y-6105500D01*
X18594584Y-6105500D01*
X18629232Y-6119852D01*
X18680148Y-6170768D01*
X18694500Y-6205416D01*
X18694500Y-6412067D01*
X18695487Y-6432153D01*
X18695491Y-6432208D01*
X18696425Y-6441699D01*
X18696796Y-6444793D01*
X18686670Y-6480904D01*
X18653977Y-6499278D01*
X18648144Y-6499626D01*
X18292600Y-6499626D01*
X18257952Y-6485274D01*
X18248191Y-6471334D01*
X18224065Y-6419596D01*
X18224064Y-6419595D01*
X18224063Y-6419593D01*
X18140406Y-6335936D01*
X18140404Y-6335935D01*
X18033175Y-6285933D01*
X18033174Y-6285932D01*
X18023401Y-6284645D01*
X17984316Y-6279500D01*
X17635684Y-6279500D01*
X17603112Y-6283788D01*
X17586825Y-6285932D01*
X17586824Y-6285933D01*
X17479595Y-6335935D01*
X17479593Y-6335936D01*
X17395936Y-6419593D01*
X17395935Y-6419595D01*
X17345933Y-6526824D01*
X17345932Y-6526825D01*
X17345932Y-6526827D01*
X17340667Y-6566825D01*
X17339500Y-6575687D01*
X17339500Y-7024312D01*
X17339499Y-7024312D01*
X17344003Y-7058524D01*
X17345932Y-7073173D01*
X17349054Y-7079868D01*
X17395935Y-7180404D01*
X17395936Y-7180406D01*
X17474463Y-7258933D01*
X17488815Y-7293581D01*
X17474463Y-7328229D01*
X17460525Y-7337989D01*
X17441684Y-7346775D01*
X17441681Y-7346777D01*
X17356777Y-7431681D01*
X17356776Y-7431683D01*
X17306029Y-7540510D01*
X17306028Y-7540511D01*
X17306028Y-7540513D01*
X17300661Y-7581284D01*
X17299500Y-7590102D01*
X17299500Y-8009896D01*
X17299501Y-8009901D01*
X17306027Y-8059487D01*
X17356776Y-8168316D01*
X17356777Y-8168318D01*
X17441681Y-8253222D01*
X17441683Y-8253223D01*
X17441684Y-8253224D01*
X17550513Y-8303972D01*
X17600099Y-8310500D01*
X17959900Y-8310499D01*
X18009487Y-8303972D01*
X18118316Y-8253224D01*
X18203224Y-8168316D01*
X18253972Y-8059487D01*
X18260500Y-8009901D01*
X18260499Y-7787000D01*
X18274851Y-7752353D01*
X18309499Y-7738001D01*
X18738756Y-7738001D01*
X18773404Y-7752353D01*
X18786813Y-7777439D01*
X18788716Y-7787001D01*
X18790333Y-7795132D01*
X18834647Y-7861453D01*
X18861212Y-7879202D01*
X18900969Y-7905768D01*
X18959452Y-7917401D01*
X18959455Y-7917401D01*
X19532345Y-7917401D01*
X19532348Y-7917401D01*
X19590831Y-7905768D01*
X19657152Y-7861453D01*
X19701467Y-7795132D01*
X19713100Y-7736649D01*
X19713100Y-7138353D01*
X19701467Y-7079870D01*
X19701466Y-7079868D01*
X19701466Y-7079867D01*
X19699007Y-7076188D01*
X19691688Y-7039407D01*
X19699005Y-7021740D01*
X19701467Y-7018057D01*
X19713100Y-6959574D01*
X19713100Y-6640678D01*
X19701840Y-6584071D01*
X19709156Y-6547289D01*
X19709884Y-6546230D01*
X19725505Y-6524217D01*
X19739857Y-6489569D01*
X19755500Y-6410926D01*
X19755500Y-4549000D01*
X19739857Y-4470357D01*
X19725508Y-4435716D01*
X19725509Y-4435716D01*
X19688877Y-4377416D01*
X19614293Y-4324496D01*
X19579646Y-4310144D01*
X19579640Y-4310142D01*
X19547926Y-4303834D01*
X19501000Y-4294500D01*
X15399000Y-4294500D01*
X15359859Y-4302285D01*
X15320359Y-4310142D01*
X15320349Y-4310145D01*
X15285716Y-4324491D01*
X15285710Y-4324494D01*
X15285709Y-4324495D01*
X15267618Y-4335861D01*
X15227416Y-4361122D01*
X15174496Y-4435706D01*
X15160144Y-4470353D01*
X15160142Y-4470359D01*
X15152285Y-4509859D01*
X15144500Y-4549000D01*
X3938940Y-4549000D01*
X3949248Y-4542523D01*
X4168825Y-4367416D01*
X4367416Y-4168825D01*
X4542523Y-3949248D01*
X4691945Y-3711445D01*
X4813801Y-3458408D01*
X4906560Y-3193318D01*
X4969055Y-2919509D01*
X5000500Y-2640425D01*
X5000500Y-2359575D01*
X4969055Y-2080491D01*
X4906560Y-1806682D01*
X4813801Y-1541592D01*
X4691945Y-1288555D01*
X4542523Y-1050752D01*
X4367416Y-831175D01*
X4168825Y-632584D01*
X4168822Y-632581D01*
X4168817Y-632577D01*
X3949244Y-457474D01*
X3711446Y-308055D01*
X3711442Y-308053D01*
X3458418Y-186203D01*
X3458412Y-186200D01*
X3295753Y-129283D01*
X3198489Y-95249D01*
X3170527Y-70260D01*
X3168424Y-32816D01*
X3193414Y-4853D01*
X3214674Y0D01*
X35785326Y0D01*
X35819974Y-14352D01*
G37*
G04 #@! TD.AperFunction*
G04 #@! TD*
M02*
